<svg width="768" height="81" viewBox="0 0 768 81" fill="none" xmlns="http://www.w3.org/2000/svg">
<rect width="768" height="1" fill="#D9FFF5"/>
<path opacity="0.721842" d="M25.26 38.65C25.26 37.0167 26.1 36.2 27.78 36.2H32.68C34.36 36.2 35.2 37.0167 35.2 38.65V43.55C35.2 45.1833 34.36 46 32.68 46H27.78C26.1 46 25.26 45.1833 25.26 43.55V38.65ZM33.87 38.65C33.87 37.8567 33.4733 37.46 32.68 37.46H27.78C26.9867 37.46 26.59 37.8567 26.59 38.65V43.55C26.59 44.3433 26.9867 44.74 27.78 44.74H32.68C33.4733 44.74 33.87 44.3433 33.87 43.55V38.65ZM29.25 42.08C29.25 42.3133 29.3667 42.43 29.6 42.43H30.86C31.0933 42.43 31.21 42.3133 31.21 42.08V41.87C31.21 41.7767 31.2567 41.73 31.35 41.73H32.12C32.2133 41.73 32.26 41.7767 32.26 41.87V42.08C32.26 43.0133 31.7933 43.48 30.86 43.48H29.6C28.6667 43.48 28.2 43.0133 28.2 42.08V40.12C28.2 39.1867 28.6667 38.72 29.6 38.72H30.86C31.7933 38.72 32.26 39.1867 32.26 40.12V40.33C32.26 40.4233 32.2133 40.47 32.12 40.47H31.35C31.2567 40.47 31.21 40.4233 31.21 40.33V40.12C31.21 39.8867 31.0933 39.77 30.86 39.77H29.6C29.3667 39.77 29.25 39.8867 29.25 40.12V42.08ZM47.3778 39.14C47.3778 39.3827 47.3451 39.602 47.2798 39.798C47.2145 39.994 47.1305 40.1713 47.0278 40.33C46.9345 40.4887 46.8225 40.6333 46.6918 40.764C46.5705 40.8853 46.4491 40.9973 46.3278 41.1L42.1978 44.67V44.74H47.1678C47.3078 44.74 47.3778 44.81 47.3778 44.95V45.79C47.3778 45.93 47.3078 46 47.1678 46H40.4478C40.3078 46 40.2378 45.93 40.2378 45.79V45.02C40.2378 44.9173 40.2518 44.838 40.2798 44.782C40.3171 44.726 40.3731 44.6653 40.4478 44.6L45.4178 40.26C45.6231 40.0827 45.7771 39.924 45.8798 39.784C45.9918 39.6347 46.0478 39.42 46.0478 39.14V38.51C46.0478 37.7167 45.6511 37.32 44.8578 37.32H42.7578C41.9645 37.32 41.5678 37.7167 41.5678 38.51V39.07C41.5678 39.21 41.4978 39.28 41.3578 39.28H40.4478C40.3078 39.28 40.2378 39.21 40.2378 39.07V38.51C40.2378 36.8767 41.0778 36.06 42.7578 36.06H44.8578C46.5378 36.06 47.3778 36.8767 47.3778 38.51V39.14ZM57.6 43.69C57.6 45.3233 56.76 46.14 55.08 46.14H52.28C50.6 46.14 49.76 45.3233 49.76 43.69V38.51C49.76 36.8767 50.6 36.06 52.28 36.06H55.08C56.76 36.06 57.6 36.8767 57.6 38.51V43.69ZM51.09 43.69C51.09 44.4833 51.4867 44.88 52.28 44.88H55.08C55.8733 44.88 56.27 44.4833 56.27 43.69V38.51C56.27 37.7167 55.8733 37.32 55.08 37.32H52.28C51.4867 37.32 51.09 37.7167 51.09 38.51V43.69ZM62.7133 45.79C62.7133 45.93 62.6433 46 62.5033 46H61.5933C61.4533 46 61.3833 45.93 61.3833 45.79V37.46H59.3533C59.2133 37.46 59.1433 37.39 59.1433 37.25V36.41C59.1433 36.27 59.2133 36.2 59.3533 36.2H62.5033C62.6433 36.2 62.7133 36.27 62.7133 36.41V45.79ZM71.1833 40.82V38.51C71.1833 37.7167 70.7866 37.32 69.9933 37.32H67.7533C66.9599 37.32 66.5633 37.7213 66.5633 38.524V39.616C66.5633 40.4187 66.9599 40.82 67.7533 40.82H71.1833ZM71.1833 42.08H67.7533C66.0733 42.08 65.2333 41.2633 65.2333 39.63V38.51C65.2333 36.8767 66.0733 36.06 67.7533 36.06H69.9933C71.6733 36.06 72.5133 36.8767 72.5133 38.51V43.69C72.5133 45.3233 71.6733 46.14 69.9933 46.14H68.0333C66.3533 46.14 65.5133 45.3233 65.5133 43.69V43.27C65.5133 43.13 65.5833 43.06 65.7233 43.06H66.6333C66.7733 43.06 66.8433 43.13 66.8433 43.27V43.69C66.8433 44.4833 67.2399 44.88 68.0333 44.88H69.9933C70.7866 44.88 71.1833 44.4833 71.1833 43.69V42.08ZM77.842 38.51C77.842 36.8767 78.682 36.06 80.362 36.06H83.582C85.262 36.06 86.102 36.8767 86.102 38.51V39.07C86.102 39.21 86.032 39.28 85.892 39.28H84.982C84.842 39.28 84.772 39.21 84.772 39.07V38.51C84.772 37.7167 84.3754 37.32 83.582 37.32H80.362C79.5687 37.32 79.172 37.7167 79.172 38.51V43.69C79.172 44.4833 79.5687 44.88 80.362 44.88H83.582C84.3754 44.88 84.772 44.4833 84.772 43.69V43.13C84.772 42.99 84.842 42.92 84.982 42.92H85.892C86.032 42.92 86.102 42.99 86.102 43.13V43.69C86.102 45.3233 85.262 46.14 83.582 46.14H80.362C78.682 46.14 77.842 45.3233 77.842 43.69V38.51ZM93.802 41.66C94.5954 41.66 94.992 41.2633 94.992 40.47V38.65C94.992 37.8567 94.5954 37.46 93.802 37.46H89.812V41.66H93.802ZM89.812 42.92V45.79C89.812 45.93 89.742 46 89.602 46H88.692C88.552 46 88.482 45.93 88.482 45.79V36.41C88.482 36.27 88.552 36.2 88.692 36.2H93.802C95.482 36.2 96.322 37.0167 96.322 38.65V40.47C96.322 42.1033 95.482 42.92 93.802 42.92H89.812ZM104.799 43.06C104.799 42.8173 104.729 42.626 104.589 42.486C104.458 42.3367 104.271 42.2247 104.029 42.15L99.8286 40.82C99.4086 40.6893 99.0679 40.4793 98.8066 40.19C98.5546 39.8913 98.4286 39.4947 98.4286 39V38.51C98.4286 36.8767 99.2686 36.06 100.949 36.06H103.469C105.149 36.06 105.989 36.8767 105.989 38.51V39.07C105.989 39.21 105.919 39.28 105.779 39.28H104.869C104.729 39.28 104.659 39.21 104.659 39.07V38.51C104.659 37.7167 104.262 37.32 103.469 37.32H100.949C100.155 37.32 99.7586 37.7167 99.7586 38.51V38.86C99.7586 39.1027 99.8239 39.2987 99.9546 39.448C100.095 39.588 100.286 39.6953 100.529 39.77L104.729 41.1C105.149 41.2307 105.485 41.4453 105.737 41.744C105.998 42.0333 106.129 42.4253 106.129 42.92V43.69C106.129 45.3233 105.289 46.14 103.609 46.14H100.809C99.1286 46.14 98.2886 45.3233 98.2886 43.69V43.13C98.2886 42.99 98.3586 42.92 98.4986 42.92H99.4086C99.5486 42.92 99.6186 42.99 99.6186 43.13V43.69C99.6186 44.4833 100.015 44.88 100.809 44.88H103.609C104.402 44.88 104.799 44.4833 104.799 43.69V43.06ZM30.72 57.66C31.5133 57.66 31.91 57.2633 31.91 56.47V54.65C31.91 53.8567 31.5133 53.46 30.72 53.46H26.73V57.66H30.72ZM26.73 58.92V61.79C26.73 61.93 26.66 62 26.52 62H25.61C25.47 62 25.4 61.93 25.4 61.79V52.41C25.4 52.27 25.47 52.2 25.61 52.2H30.72C32.4 52.2 33.24 53.0167 33.24 54.65V56.47C33.24 58.1033 32.4 58.92 30.72 58.92H26.73ZM34.7931 59.83C34.7931 58.4767 35.4931 57.8 36.8931 57.8H39.4831V56.89C39.4831 56.5727 39.3851 56.3207 39.1891 56.134C39.0025 55.938 38.7505 55.84 38.4331 55.84H37.4531C37.1358 55.84 36.8791 55.938 36.6831 56.134C36.4965 56.3207 36.4031 56.5727 36.4031 56.89C36.4031 57.03 36.3331 57.1 36.1931 57.1H35.4231C35.2831 57.1 35.2131 57.03 35.2131 56.89C35.2131 56.19 35.3998 55.6533 35.7731 55.28C36.1558 54.9067 36.7158 54.72 37.4531 54.72H38.4331C39.1705 54.72 39.7258 54.9067 40.0991 55.28C40.4818 55.6533 40.6731 56.19 40.6731 56.89V61.79C40.6731 61.93 40.6031 62 40.4631 62H39.6931C39.5531 62 39.4831 61.93 39.4831 61.79V61.3H39.4131C39.3385 61.4587 39.2311 61.5987 39.0911 61.72C38.9698 61.8227 38.8111 61.916 38.6151 62C38.4191 62.0933 38.1718 62.14 37.8731 62.14H36.8931C35.4931 62.14 34.7931 61.4633 34.7931 60.11V59.83ZM35.9831 60.11C35.9831 60.39 36.0625 60.614 36.2211 60.782C36.3891 60.9407 36.6131 61.02 36.8931 61.02H38.0131C38.4331 61.02 38.7831 60.88 39.0631 60.6C39.3431 60.32 39.4831 59.97 39.4831 59.55V58.92H36.8931C36.6131 58.92 36.3891 59.004 36.2211 59.172C36.0625 59.3307 35.9831 59.55 35.9831 59.83V60.11ZM44.7271 62.14C43.9898 62.14 43.4298 61.9533 43.0471 61.58C42.6738 61.2067 42.4871 60.67 42.4871 59.97V59.62C42.4871 59.48 42.5571 59.41 42.6971 59.41H43.4671C43.6071 59.41 43.6771 59.48 43.6771 59.62V59.97C43.6771 60.2873 43.7704 60.544 43.9571 60.74C44.1531 60.9267 44.4098 61.02 44.7271 61.02H46.5471C46.8271 61.02 47.0464 60.9407 47.2051 60.782C47.3731 60.614 47.4571 60.39 47.4571 60.11V59.83C47.4571 59.55 47.3731 59.3307 47.2051 59.172C47.0464 59.004 46.8271 58.92 46.5471 58.92H45.3571C45.2171 58.92 45.1471 58.85 45.1471 58.71V58.01C45.1471 57.87 45.2171 57.8 45.3571 57.8H46.4071C46.6871 57.8 46.9064 57.7207 47.0651 57.562C47.2331 57.394 47.3171 57.17 47.3171 56.89V56.75C47.3171 56.47 47.2331 56.2507 47.0651 56.092C46.9064 55.924 46.6871 55.84 46.4071 55.84H44.8671C44.5498 55.84 44.2931 55.938 44.0971 56.134C43.9104 56.3207 43.8171 56.5727 43.8171 56.89V57.24C43.8171 57.38 43.7471 57.45 43.6071 57.45H42.8371C42.6971 57.45 42.6271 57.38 42.6271 57.24V56.89C42.6271 56.19 42.8138 55.6533 43.1871 55.28C43.5698 54.9067 44.1298 54.72 44.8671 54.72H46.4071C47.8071 54.72 48.5071 55.3967 48.5071 56.75V56.89C48.5071 57.17 48.4511 57.3987 48.3391 57.576C48.2271 57.744 48.1058 57.8793 47.9751 57.982C47.8164 58.094 47.6438 58.1733 47.4571 58.22V58.29C47.6811 58.3367 47.8771 58.4253 48.0451 58.556C48.1944 58.668 48.3298 58.8267 48.4511 59.032C48.5818 59.2373 48.6471 59.5033 48.6471 59.83V60.11C48.6471 61.4633 47.9471 62.14 46.5471 62.14H44.7271ZM54.4544 60.88C54.7717 60.88 55.0237 60.7867 55.2104 60.6C55.4064 60.404 55.5044 60.1473 55.5044 59.83V56.89C55.5044 56.5727 55.4064 56.3207 55.2104 56.134C55.0237 55.938 54.7717 55.84 54.4544 55.84H53.2644C52.8444 55.84 52.4944 55.98 52.2144 56.26C51.9344 56.54 51.7944 56.89 51.7944 57.31V60.88H54.4544ZM51.7944 62V64.45C51.7944 64.59 51.7244 64.66 51.5844 64.66H50.8144C50.6744 64.66 50.6044 64.59 50.6044 64.45V55.07C50.6044 54.93 50.6744 54.86 50.8144 54.86H51.5844C51.7244 54.86 51.7944 54.93 51.7944 55.07V55.56H51.8644C51.939 55.4013 52.0464 55.2613 52.1864 55.14C52.3077 55.0373 52.4664 54.944 52.6624 54.86C52.8584 54.7667 53.1057 54.72 53.4044 54.72H54.4544C55.1917 54.72 55.747 54.9067 56.1204 55.28C56.503 55.6533 56.6944 56.19 56.6944 56.89V59.83C56.6944 60.53 56.503 61.0667 56.1204 61.44C55.747 61.8133 55.1917 62 54.4544 62H51.7944ZM58.5138 59.83C58.5138 58.4767 59.2138 57.8 60.6138 57.8H63.2038V56.89C63.2038 56.5727 63.1058 56.3207 62.9098 56.134C62.7232 55.938 62.4712 55.84 62.1538 55.84H61.1738C60.8565 55.84 60.5998 55.938 60.4038 56.134C60.2172 56.3207 60.1238 56.5727 60.1238 56.89C60.1238 57.03 60.0538 57.1 59.9138 57.1H59.1438C59.0038 57.1 58.9338 57.03 58.9338 56.89C58.9338 56.19 59.1205 55.6533 59.4938 55.28C59.8765 54.9067 60.4365 54.72 61.1738 54.72H62.1538C62.8912 54.72 63.4465 54.9067 63.8198 55.28C64.2025 55.6533 64.3938 56.19 64.3938 56.89V61.79C64.3938 61.93 64.3238 62 64.1838 62H63.4138C63.2738 62 63.2038 61.93 63.2038 61.79V61.3H63.1338C63.0592 61.4587 62.9518 61.5987 62.8118 61.72C62.6905 61.8227 62.5318 61.916 62.3358 62C62.1398 62.0933 61.8925 62.14 61.5938 62.14H60.6138C59.2138 62.14 58.5138 61.4633 58.5138 60.11V59.83ZM59.7038 60.11C59.7038 60.39 59.7832 60.614 59.9418 60.782C60.1098 60.9407 60.3338 61.02 60.6138 61.02H61.7338C62.1538 61.02 62.5038 60.88 62.7838 60.6C63.0638 60.32 63.2038 59.97 63.2038 59.55V58.92H60.6138C60.3338 58.92 60.1098 59.004 59.9418 59.172C59.7832 59.3307 59.7038 59.55 59.7038 59.83V60.11ZM67.6778 59.97C67.6778 60.2873 67.7711 60.544 67.9578 60.74C68.1538 60.9267 68.4105 61.02 68.7278 61.02H70.2678C70.5851 61.02 70.8371 60.9267 71.0238 60.74C71.2198 60.544 71.3178 60.2873 71.3178 59.97V58.15C71.3178 57.8327 71.2198 57.5807 71.0238 57.394C70.8371 57.198 70.5851 57.1 70.2678 57.1H67.6778V59.97ZM66.4878 55.42C66.4878 54.0107 67.2345 53.2407 68.7278 53.11L70.4078 52.97C70.6225 52.9513 70.7811 52.886 70.8838 52.774C70.9865 52.662 71.0378 52.5173 71.0378 52.34V52.27C71.0378 52.13 71.1078 52.06 71.2478 52.06H72.0178C72.1578 52.06 72.2278 52.13 72.2278 52.27V52.34C72.2278 52.9373 72.0831 53.3807 71.7938 53.67C71.5045 53.95 71.0425 54.1133 70.4078 54.16L68.7278 54.3C68.4105 54.328 68.1538 54.4447 67.9578 54.65C67.7711 54.846 67.6778 55.1027 67.6778 55.42V55.98H70.2678C71.0051 55.98 71.5605 56.1667 71.9338 56.54C72.3165 56.9133 72.5078 57.45 72.5078 58.15V59.97C72.5078 60.67 72.3165 61.2067 71.9338 61.58C71.5605 61.9533 71.0051 62.14 70.2678 62.14H68.7278C67.9905 62.14 67.4305 61.9533 67.0478 61.58C66.6745 61.2067 66.4878 60.67 66.4878 59.97V55.42ZM79.3618 56.89C79.3618 56.5727 79.2638 56.3207 79.0678 56.134C78.8811 55.938 78.6291 55.84 78.3118 55.84H76.5618C76.2445 55.84 75.9878 55.938 75.7918 56.134C75.6051 56.3207 75.5118 56.5727 75.5118 56.89V59.97C75.5118 60.2873 75.6051 60.544 75.7918 60.74C75.9878 60.9267 76.2445 61.02 76.5618 61.02H78.3118C78.6291 61.02 78.8811 60.9267 79.0678 60.74C79.2638 60.544 79.3618 60.2873 79.3618 59.97V56.89ZM80.5518 59.97C80.5518 60.67 80.3605 61.2067 79.9778 61.58C79.6045 61.9533 79.0491 62.14 78.3118 62.14H76.5618C75.8245 62.14 75.2645 61.9533 74.8818 61.58C74.5085 61.2067 74.3218 60.67 74.3218 59.97V56.89C74.3218 56.19 74.5085 55.6533 74.8818 55.28C75.2645 54.9067 75.8245 54.72 76.5618 54.72H78.3118C79.0491 54.72 79.6045 54.9067 79.9778 55.28C80.3605 55.6533 80.5518 56.19 80.5518 56.89V59.97ZM84.2613 62C84.1213 62 84.0513 61.93 84.0513 61.79V55.98H81.8813C81.7413 55.98 81.6713 55.91 81.6713 55.77V55.07C81.6713 54.93 81.7413 54.86 81.8813 54.86H87.4113C87.5513 54.86 87.6213 54.93 87.6213 55.07V55.77C87.6213 55.91 87.5513 55.98 87.4113 55.98H85.2413V61.79C85.2413 61.93 85.1713 62 85.0312 62H84.2613ZM88.6056 59.83C88.6056 58.4767 89.3056 57.8 90.7056 57.8H93.2956V56.89C93.2956 56.5727 93.1976 56.3207 93.0016 56.134C92.815 55.938 92.563 55.84 92.2456 55.84H91.2656C90.9483 55.84 90.6916 55.938 90.4956 56.134C90.309 56.3207 90.2156 56.5727 90.2156 56.89C90.2156 57.03 90.1456 57.1 90.0056 57.1H89.2356C89.0956 57.1 89.0256 57.03 89.0256 56.89C89.0256 56.19 89.2123 55.6533 89.5856 55.28C89.9683 54.9067 90.5283 54.72 91.2656 54.72H92.2456C92.983 54.72 93.5383 54.9067 93.9116 55.28C94.2943 55.6533 94.4856 56.19 94.4856 56.89V61.79C94.4856 61.93 94.4156 62 94.2756 62H93.5056C93.3656 62 93.2956 61.93 93.2956 61.79V61.3H93.2256C93.151 61.4587 93.0436 61.5987 92.9036 61.72C92.7823 61.8227 92.6236 61.916 92.4276 62C92.2316 62.0933 91.9843 62.14 91.6856 62.14H90.7056C89.3056 62.14 88.6056 61.4633 88.6056 60.11V59.83ZM89.7956 60.11C89.7956 60.39 89.875 60.614 90.0336 60.782C90.2016 60.9407 90.4256 61.02 90.7056 61.02H91.8256C92.2456 61.02 92.5956 60.88 92.8756 60.6C93.1556 60.32 93.2956 59.97 93.2956 59.55V58.92H90.7056C90.4256 58.92 90.2016 59.004 90.0336 59.172C89.875 59.3307 89.7956 59.55 89.7956 59.83V60.11ZM97.9096 58.92V61.79C97.9096 61.93 97.8396 62 97.6996 62H96.9296C96.7896 62 96.7196 61.93 96.7196 61.79V55.07C96.7196 54.93 96.7896 54.86 96.9296 54.86H97.6996C97.8396 54.86 97.9096 54.93 97.9096 55.07V57.87H101.48V55.07C101.48 54.93 101.55 54.86 101.69 54.86H102.46C102.6 54.86 102.67 54.93 102.67 55.07V61.79C102.67 61.93 102.6 62 102.46 62H101.69C101.55 62 101.48 61.93 101.48 61.79V58.92H97.9096ZM109.809 56.89C109.809 56.5727 109.711 56.3207 109.515 56.134C109.328 55.938 109.076 55.84 108.759 55.84H107.009C106.692 55.84 106.435 55.938 106.239 56.134C106.052 56.3207 105.959 56.5727 105.959 56.89V59.97C105.959 60.2873 106.052 60.544 106.239 60.74C106.435 60.9267 106.692 61.02 107.009 61.02H108.759C109.076 61.02 109.328 60.9267 109.515 60.74C109.711 60.544 109.809 60.2873 109.809 59.97V56.89ZM110.999 59.97C110.999 60.67 110.808 61.2067 110.425 61.58C110.052 61.9533 109.496 62.14 108.759 62.14H107.009C106.272 62.14 105.712 61.9533 105.329 61.58C104.956 61.2067 104.769 60.67 104.769 59.97V56.89C104.769 56.19 104.956 55.6533 105.329 55.28C105.712 54.9067 106.272 54.72 107.009 54.72H108.759C109.496 54.72 110.052 54.9067 110.425 55.28C110.808 55.6533 110.999 56.19 110.999 56.89V59.97ZM118.841 58.78H117.091V61.79C117.091 61.93 117.021 62 116.881 62H116.111C115.971 62 115.901 61.93 115.901 61.79V55.07C115.901 54.93 115.971 54.86 116.111 54.86H116.881C117.021 54.86 117.091 54.93 117.091 55.07V57.66H118.841L120.241 55.07C120.279 54.9953 120.321 54.944 120.367 54.916C120.414 54.8787 120.489 54.86 120.591 54.86H121.431C121.59 54.86 121.637 54.93 121.571 55.07L119.821 58.22L121.781 61.79C121.847 61.93 121.8 62 121.641 62H120.801C120.699 62 120.624 61.986 120.577 61.958C120.531 61.9207 120.489 61.8647 120.451 61.79L118.841 58.78ZM127.979 56.89C127.979 56.5727 127.881 56.3207 127.685 56.134C127.498 55.938 127.246 55.84 126.929 55.84H125.179C124.862 55.84 124.605 55.938 124.409 56.134C124.222 56.3207 124.129 56.5727 124.129 56.89V59.97C124.129 60.2873 124.222 60.544 124.409 60.74C124.605 60.9267 124.862 61.02 125.179 61.02H126.929C127.246 61.02 127.498 60.9267 127.685 60.74C127.881 60.544 127.979 60.2873 127.979 59.97V56.89ZM129.169 59.97C129.169 60.67 128.978 61.2067 128.595 61.58C128.222 61.9533 127.666 62.14 126.929 62.14H125.179C124.442 62.14 123.882 61.9533 123.499 61.58C123.126 61.2067 122.939 60.67 122.939 59.97V56.89C122.939 56.19 123.126 55.6533 123.499 55.28C123.882 54.9067 124.442 54.72 125.179 54.72H126.929C127.666 54.72 128.222 54.9067 128.595 55.28C128.978 55.6533 129.169 56.19 129.169 56.89V59.97ZM135.328 60.46L137.848 55.07C137.886 54.9953 137.928 54.944 137.974 54.916C138.03 54.8787 138.128 54.86 138.268 54.86H139.108C139.248 54.86 139.318 54.93 139.318 55.07V61.79C139.318 61.93 139.248 62 139.108 62H138.338C138.198 62 138.128 61.93 138.128 61.79V57.17H138.058L135.888 61.79C135.851 61.8647 135.804 61.9207 135.748 61.958C135.702 61.986 135.608 62 135.468 62H135.118C134.978 62 134.88 61.986 134.824 61.958C134.778 61.9207 134.736 61.8647 134.698 61.79L132.528 57.17H132.458V61.79C132.458 61.93 132.388 62 132.248 62H131.478C131.338 62 131.268 61.93 131.268 61.79V55.07C131.268 54.93 131.338 54.86 131.478 54.86H132.318C132.458 54.86 132.552 54.8787 132.598 54.916C132.654 54.944 132.701 54.9953 132.738 55.07L135.258 60.46H135.328ZM141.283 59.83C141.283 58.4767 141.983 57.8 143.383 57.8H145.973V56.89C145.973 56.5727 145.875 56.3207 145.679 56.134C145.493 55.938 145.241 55.84 144.923 55.84H143.943C143.626 55.84 143.369 55.938 143.173 56.134C142.987 56.3207 142.893 56.5727 142.893 56.89C142.893 57.03 142.823 57.1 142.683 57.1H141.913C141.773 57.1 141.703 57.03 141.703 56.89C141.703 56.19 141.89 55.6533 142.263 55.28C142.646 54.9067 143.206 54.72 143.943 54.72H144.923C145.661 54.72 146.216 54.9067 146.589 55.28C146.972 55.6533 147.163 56.19 147.163 56.89V61.79C147.163 61.93 147.093 62 146.953 62H146.183C146.043 62 145.973 61.93 145.973 61.79V61.3H145.903C145.829 61.4587 145.721 61.5987 145.581 61.72C145.46 61.8227 145.301 61.916 145.105 62C144.909 62.0933 144.662 62.14 144.363 62.14H143.383C141.983 62.14 141.283 61.4633 141.283 60.11V59.83ZM142.473 60.11C142.473 60.39 142.553 60.614 142.711 60.782C142.879 60.9407 143.103 61.02 143.383 61.02H144.503C144.923 61.02 145.273 60.88 145.553 60.6C145.833 60.32 145.973 59.97 145.973 59.55V58.92H143.383C143.103 58.92 142.879 59.004 142.711 59.172C142.553 59.3307 142.473 59.55 142.473 59.83V60.11ZM150.587 58.92V61.79C150.587 61.93 150.517 62 150.377 62H149.607C149.467 62 149.397 61.93 149.397 61.79V55.07C149.397 54.93 149.467 54.86 149.607 54.86H150.377C150.517 54.86 150.587 54.93 150.587 55.07V57.87H154.157V55.07C154.157 54.93 154.227 54.86 154.367 54.86H155.137C155.277 54.86 155.347 54.93 155.347 55.07V61.79C155.347 61.93 155.277 62 155.137 62H154.367C154.227 62 154.157 61.93 154.157 61.79V58.92H150.587ZM161.787 55.98H159.477L158.497 60.88H161.787V55.98ZM162.977 60.88H163.677C163.817 60.88 163.887 60.95 163.887 61.09V63.33C163.887 63.47 163.817 63.54 163.677 63.54H162.907C162.767 63.54 162.697 63.47 162.697 63.33V62H157.657V63.33C157.657 63.47 157.587 63.54 157.447 63.54H156.677C156.537 63.54 156.467 63.47 156.467 63.33V61.09C156.467 60.95 156.537 60.88 156.677 60.88H157.307L158.497 55.07C158.525 54.93 158.641 54.86 158.847 54.86H162.767C162.907 54.86 162.977 54.93 162.977 55.07V60.88ZM170.321 56.89C170.321 56.5727 170.223 56.3207 170.027 56.134C169.84 55.938 169.588 55.84 169.271 55.84H167.521C167.203 55.84 166.947 55.938 166.751 56.134C166.564 56.3207 166.471 56.5727 166.471 56.89V59.97C166.471 60.2873 166.564 60.544 166.751 60.74C166.947 60.9267 167.203 61.02 167.521 61.02H169.271C169.588 61.02 169.84 60.9267 170.027 60.74C170.223 60.544 170.321 60.2873 170.321 59.97V56.89ZM171.511 59.97C171.511 60.67 171.319 61.2067 170.937 61.58C170.563 61.9533 170.008 62.14 169.271 62.14H167.521C166.783 62.14 166.223 61.9533 165.841 61.58C165.467 61.2067 165.281 60.67 165.281 59.97V56.89C165.281 56.19 165.467 55.6533 165.841 55.28C166.223 54.9067 166.783 54.72 167.521 54.72H169.271C170.008 54.72 170.563 54.9067 170.937 55.28C171.319 55.6533 171.511 56.19 171.511 56.89V59.97ZM176.27 53.74C175.738 53.74 175.337 53.6093 175.066 53.348C174.796 53.0773 174.66 52.6947 174.66 52.2V51.85C174.66 51.71 174.73 51.64 174.87 51.64H175.5C175.64 51.64 175.71 51.71 175.71 51.85V52.2C175.71 52.5733 175.897 52.76 176.27 52.76H177.04C177.414 52.76 177.6 52.5733 177.6 52.2V51.85C177.6 51.71 177.67 51.64 177.81 51.64H178.44C178.58 51.64 178.65 51.71 178.65 51.85V52.2C178.65 52.6947 178.515 53.0773 178.244 53.348C177.974 53.6093 177.572 53.74 177.04 53.74H176.27ZM179.49 54.86C179.63 54.86 179.7 54.93 179.7 55.07V61.79C179.7 61.93 179.63 62 179.49 62H178.72C178.58 62 178.51 61.93 178.51 61.79V56.68H178.44L175.08 61.79C175.034 61.8647 174.987 61.9207 174.94 61.958C174.894 61.986 174.8 62 174.66 62H173.82C173.68 62 173.61 61.93 173.61 61.79V55.07C173.61 54.93 173.68 54.86 173.82 54.86H174.59C174.73 54.86 174.8 54.93 174.8 55.07V60.18H174.87L178.23 55.07C178.277 54.9953 178.324 54.944 178.37 54.916C178.417 54.8787 178.51 54.86 178.65 54.86H179.49ZM189.947 58.22L188.295 53.74H188.239L186.587 58.22H189.947ZM186.097 59.48L185.257 61.79C185.229 61.8647 185.187 61.9207 185.131 61.958C185.084 61.986 185.01 62 184.907 62H183.927C183.778 62 183.731 61.93 183.787 61.79L187.427 52.41C187.464 52.3353 187.506 52.284 187.553 52.256C187.6 52.2187 187.674 52.2 187.777 52.2H188.757C188.86 52.2 188.934 52.2187 188.981 52.256C189.028 52.284 189.07 52.3353 189.107 52.41L192.747 61.79C192.803 61.93 192.756 62 192.607 62H191.627C191.524 62 191.445 61.986 191.389 61.958C191.342 61.9207 191.305 61.8647 191.277 61.79L190.437 59.48H186.097ZM197.886 60.88C198.203 60.88 198.455 60.7867 198.642 60.6C198.838 60.404 198.936 60.1473 198.936 59.83V56.89C198.936 56.5727 198.838 56.3207 198.642 56.134C198.455 55.938 198.203 55.84 197.886 55.84H196.696C196.276 55.84 195.926 55.98 195.646 56.26C195.366 56.54 195.226 56.89 195.226 57.31V60.88H197.886ZM195.226 62V64.45C195.226 64.59 195.156 64.66 195.016 64.66H194.246C194.106 64.66 194.036 64.59 194.036 64.45V55.07C194.036 54.93 194.106 54.86 194.246 54.86H195.016C195.156 54.86 195.226 54.93 195.226 55.07V55.56H195.296C195.371 55.4013 195.478 55.2613 195.618 55.14C195.739 55.0373 195.898 54.944 196.094 54.86C196.29 54.7667 196.537 54.72 196.836 54.72H197.886C198.623 54.72 199.179 54.9067 199.552 55.28C199.935 55.6533 200.126 56.19 200.126 56.89V59.83C200.126 60.53 199.935 61.0667 199.552 61.44C199.179 61.8133 198.623 62 197.886 62H195.226ZM207.055 57.8V56.89C207.055 56.5727 206.957 56.3207 206.761 56.134C206.575 55.938 206.323 55.84 206.005 55.84H204.325C204.008 55.84 203.751 55.938 203.555 56.134C203.369 56.3207 203.275 56.5727 203.275 56.89V57.8H207.055ZM203.275 58.92V59.97C203.275 60.2873 203.369 60.544 203.555 60.74C203.751 60.9267 204.008 61.02 204.325 61.02H206.005C206.323 61.02 206.575 60.9267 206.761 60.74C206.957 60.544 207.055 60.2873 207.055 59.97V59.9C207.055 59.76 207.125 59.69 207.265 59.69H208.035C208.175 59.69 208.245 59.76 208.245 59.9V59.97C208.245 60.67 208.054 61.2067 207.671 61.58C207.298 61.9533 206.743 62.14 206.005 62.14H204.325C203.588 62.14 203.028 61.9533 202.645 61.58C202.272 61.2067 202.085 60.67 202.085 59.97V56.89C202.085 56.19 202.272 55.6533 202.645 55.28C203.028 54.9067 203.588 54.72 204.325 54.72H206.005C206.743 54.72 207.298 54.9067 207.671 55.28C208.054 55.6533 208.245 56.19 208.245 56.89V58.71C208.245 58.85 208.175 58.92 208.035 58.92H203.275ZM210.067 56.75C210.067 55.3967 210.767 54.72 212.167 54.72H213.567C214.304 54.72 214.859 54.9067 215.233 55.28C215.615 55.6533 215.807 56.19 215.807 56.89V57.03C215.807 57.17 215.737 57.24 215.597 57.24H214.827C214.687 57.24 214.617 57.17 214.617 57.03V56.89C214.617 56.5727 214.519 56.3207 214.323 56.134C214.136 55.938 213.884 55.84 213.567 55.84H212.167C211.887 55.84 211.663 55.924 211.495 56.092C211.336 56.2507 211.257 56.47 211.257 56.75V56.82C211.257 56.96 211.303 57.0767 211.397 57.17C211.49 57.2633 211.607 57.3333 211.747 57.38L214.827 58.36C215.144 58.4627 215.41 58.64 215.625 58.892C215.839 59.144 215.947 59.48 215.947 59.9V60.11C215.947 61.4633 215.247 62.14 213.847 62.14H212.167C211.429 62.14 210.869 61.9533 210.487 61.58C210.113 61.2067 209.927 60.67 209.927 59.97V59.83C209.927 59.69 209.997 59.62 210.137 59.62H210.907C211.047 59.62 211.117 59.69 211.117 59.83V59.97C211.117 60.2873 211.21 60.544 211.397 60.74C211.593 60.9267 211.849 61.02 212.167 61.02H213.847C214.127 61.02 214.346 60.9407 214.505 60.782C214.673 60.614 214.757 60.39 214.757 60.11V59.97C214.757 59.83 214.71 59.7133 214.617 59.62C214.523 59.5267 214.407 59.4567 214.267 59.41L211.187 58.43C210.869 58.3273 210.603 58.15 210.389 57.898C210.174 57.646 210.067 57.31 210.067 56.89V56.75ZM222.807 56.89C222.807 56.5727 222.709 56.3207 222.513 56.134C222.326 55.938 222.074 55.84 221.757 55.84H220.007C219.69 55.84 219.433 55.938 219.237 56.134C219.05 56.3207 218.957 56.5727 218.957 56.89V59.97C218.957 60.2873 219.05 60.544 219.237 60.74C219.433 60.9267 219.69 61.02 220.007 61.02H221.757C222.074 61.02 222.326 60.9267 222.513 60.74C222.709 60.544 222.807 60.2873 222.807 59.97V56.89ZM223.997 59.97C223.997 60.67 223.806 61.2067 223.423 61.58C223.05 61.9533 222.494 62.14 221.757 62.14H220.007C219.27 62.14 218.71 61.9533 218.327 61.58C217.954 61.2067 217.767 60.67 217.767 59.97V56.89C217.767 56.19 217.954 55.6533 218.327 55.28C218.71 54.9067 219.27 54.72 220.007 54.72H221.757C222.494 54.72 223.05 54.9067 223.423 55.28C223.806 55.6533 223.997 56.19 223.997 56.89V59.97ZM229.947 54.72C230.684 54.72 231.239 54.9067 231.613 55.28C231.995 55.6533 232.187 56.19 232.187 56.89V61.79C232.187 61.93 232.117 62 231.977 62H231.207C231.067 62 230.997 61.93 230.997 61.79V56.89C230.997 56.5727 230.899 56.3207 230.703 56.134C230.516 55.938 230.264 55.84 229.947 55.84H228.757C228.337 55.84 227.987 55.98 227.707 56.26C227.427 56.54 227.287 56.89 227.287 57.31V61.79C227.287 61.93 227.217 62 227.077 62H226.307C226.167 62 226.097 61.93 226.097 61.79V55.07C226.097 54.93 226.167 54.86 226.307 54.86H227.077C227.217 54.86 227.287 54.93 227.287 55.07V55.56H227.357C227.431 55.4013 227.539 55.2613 227.679 55.14C227.8 55.0373 227.959 54.944 228.155 54.86C228.351 54.7667 228.598 54.72 228.897 54.72H229.947ZM236.523 61.44C235.785 61.44 235.225 61.2533 234.843 60.88C234.469 60.5067 234.283 59.97 234.283 59.27V56.89C234.283 56.19 234.469 55.6533 234.843 55.28C235.225 54.9067 235.785 54.72 236.523 54.72H237.573C237.871 54.72 238.119 54.7667 238.315 54.86C238.511 54.944 238.669 55.0373 238.791 55.14C238.931 55.2613 239.038 55.4013 239.113 55.56H239.183V55.07C239.183 54.93 239.253 54.86 239.393 54.86H240.163C240.303 54.86 240.373 54.93 240.373 55.07V62.63C240.373 63.33 240.181 63.8667 239.799 64.24C239.425 64.6133 238.87 64.8 238.133 64.8H236.663C235.925 64.8 235.365 64.6133 234.983 64.24C234.609 63.8667 234.423 63.33 234.423 62.63V62.42C234.423 62.28 234.493 62.21 234.633 62.21H235.403C235.543 62.21 235.613 62.28 235.613 62.42V62.63C235.613 62.9473 235.706 63.1993 235.893 63.386C236.089 63.582 236.345 63.68 236.663 63.68H238.133C238.45 63.68 238.702 63.582 238.889 63.386C239.085 63.1993 239.183 62.9473 239.183 62.63V61.44H236.523ZM239.183 60.32V57.31C239.183 56.89 239.043 56.54 238.763 56.26C238.483 55.98 238.133 55.84 237.713 55.84H236.523C236.205 55.84 235.949 55.938 235.753 56.134C235.566 56.3207 235.473 56.5727 235.473 56.89V59.27C235.473 59.5873 235.566 59.844 235.753 60.04C235.949 60.2267 236.205 60.32 236.523 60.32H239.183Z" fill="#7E7E82"/>
<path opacity="0.721842" d="M547.453 36.2C547.593 36.2 547.663 36.27 547.663 36.41V45.79C547.663 45.93 547.593 46 547.453 46H546.543C546.403 46 546.333 45.93 546.333 45.79V38.23H546.263L541.223 45.79C541.139 45.93 540.999 46 540.803 46H539.753C539.613 46 539.543 45.93 539.543 45.79V36.41C539.543 36.27 539.613 36.2 539.753 36.2H540.663C540.803 36.2 540.873 36.27 540.873 36.41V43.97H540.943L545.983 36.41C546.067 36.27 546.207 36.2 546.403 36.2H547.453ZM551.376 42.92V45.79C551.376 45.93 551.306 46 551.166 46H550.396C550.256 46 550.186 45.93 550.186 45.79V39.07C550.186 38.93 550.256 38.86 550.396 38.86H551.166C551.306 38.86 551.376 38.93 551.376 39.07V41.87H554.946V39.07C554.946 38.93 555.016 38.86 555.156 38.86H555.926C556.066 38.86 556.136 38.93 556.136 39.07V45.79C556.136 45.93 556.066 46 555.926 46H555.156C555.016 46 554.946 45.93 554.946 45.79V42.92H551.376ZM561.946 38.86V36.41C561.946 36.27 562.016 36.2 562.156 36.2H562.926C563.066 36.2 563.136 36.27 563.136 36.41V38.86H564.606C565.343 38.86 565.899 39.0467 566.272 39.42C566.655 39.7933 566.846 40.33 566.846 41.03V43.83C566.846 44.53 566.655 45.0667 566.272 45.44C565.899 45.8133 565.343 46 564.606 46H563.136V48.45C563.136 48.59 563.066 48.66 562.926 48.66H562.156C562.016 48.66 561.946 48.59 561.946 48.45V46H560.476C559.739 46 559.179 45.8133 558.796 45.44C558.423 45.0667 558.236 44.53 558.236 43.83V41.03C558.236 40.33 558.423 39.7933 558.796 39.42C559.179 39.0467 559.739 38.86 560.476 38.86H561.946ZM560.476 39.98C560.159 39.98 559.902 40.078 559.706 40.274C559.519 40.4607 559.426 40.7127 559.426 41.03V43.83C559.426 44.1473 559.519 44.404 559.706 44.6C559.902 44.7867 560.159 44.88 560.476 44.88H561.946V39.98H560.476ZM564.606 44.88C564.923 44.88 565.175 44.7867 565.362 44.6C565.558 44.404 565.656 44.1473 565.656 43.83V41.03C565.656 40.7127 565.558 40.4607 565.362 40.274C565.175 40.078 564.923 39.98 564.606 39.98H563.136V44.88H564.606ZM573.844 40.89C573.844 40.5727 573.746 40.3207 573.55 40.134C573.364 39.938 573.112 39.84 572.794 39.84H571.044C570.727 39.84 570.47 39.938 570.274 40.134C570.088 40.3207 569.994 40.5727 569.994 40.89V43.97C569.994 44.2873 570.088 44.544 570.274 44.74C570.47 44.9267 570.727 45.02 571.044 45.02H572.794C573.112 45.02 573.364 44.9267 573.55 44.74C573.746 44.544 573.844 44.2873 573.844 43.97V40.89ZM575.034 43.97C575.034 44.67 574.843 45.2067 574.46 45.58C574.087 45.9533 573.532 46.14 572.794 46.14H571.044C570.307 46.14 569.747 45.9533 569.364 45.58C568.991 45.2067 568.804 44.67 568.804 43.97V40.89C568.804 40.19 568.991 39.6533 569.364 39.28C569.747 38.9067 570.307 38.72 571.044 38.72H572.794C573.532 38.72 574.087 38.9067 574.46 39.28C574.843 39.6533 575.034 40.19 575.034 40.89V43.97ZM580.984 44.88C581.301 44.88 581.553 44.7867 581.74 44.6C581.936 44.404 582.034 44.1473 582.034 43.83V40.89C582.034 40.5727 581.936 40.3207 581.74 40.134C581.553 39.938 581.301 39.84 580.984 39.84H579.794C579.374 39.84 579.024 39.98 578.744 40.26C578.464 40.54 578.324 40.89 578.324 41.31V44.88H580.984ZM578.324 46V48.45C578.324 48.59 578.254 48.66 578.114 48.66H577.344C577.204 48.66 577.134 48.59 577.134 48.45V39.07C577.134 38.93 577.204 38.86 577.344 38.86H578.114C578.254 38.86 578.324 38.93 578.324 39.07V39.56H578.394C578.468 39.4013 578.576 39.2613 578.716 39.14C578.837 39.0373 578.996 38.944 579.192 38.86C579.388 38.7667 579.635 38.72 579.934 38.72H580.984C581.721 38.72 582.276 38.9067 582.65 39.28C583.032 39.6533 583.224 40.19 583.224 40.89V43.83C583.224 44.53 583.032 45.0667 582.65 45.44C582.276 45.8133 581.721 46 580.984 46H578.324ZM589.383 44.46L591.903 39.07C591.94 38.9953 591.982 38.944 592.029 38.916C592.085 38.8787 592.183 38.86 592.323 38.86H593.163C593.303 38.86 593.373 38.93 593.373 39.07V45.79C593.373 45.93 593.303 46 593.163 46H592.393C592.253 46 592.183 45.93 592.183 45.79V41.17H592.113L589.943 45.79C589.906 45.8647 589.859 45.9207 589.803 45.958C589.756 45.986 589.663 46 589.523 46H589.173C589.033 46 588.935 45.986 588.879 45.958C588.832 45.9207 588.79 45.8647 588.753 45.79L586.583 41.17H586.513V45.79C586.513 45.93 586.443 46 586.303 46H585.533C585.393 46 585.323 45.93 585.323 45.79V39.07C585.323 38.93 585.393 38.86 585.533 38.86H586.373C586.513 38.86 586.606 38.8787 586.653 38.916C586.709 38.944 586.756 38.9953 586.793 39.07L589.313 44.46H589.383ZM595.338 43.83C595.338 42.4767 596.038 41.8 597.438 41.8H600.028V40.89C600.028 40.5727 599.93 40.3207 599.734 40.134C599.547 39.938 599.295 39.84 598.978 39.84H597.998C597.681 39.84 597.424 39.938 597.228 40.134C597.041 40.3207 596.948 40.5727 596.948 40.89C596.948 41.03 596.878 41.1 596.738 41.1H595.968C595.828 41.1 595.758 41.03 595.758 40.89C595.758 40.19 595.945 39.6533 596.318 39.28C596.701 38.9067 597.261 38.72 597.998 38.72H598.978C599.715 38.72 600.271 38.9067 600.644 39.28C601.027 39.6533 601.218 40.19 601.218 40.89V45.79C601.218 45.93 601.148 46 601.008 46H600.238C600.098 46 600.028 45.93 600.028 45.79V45.3H599.958C599.883 45.4587 599.776 45.5987 599.636 45.72C599.515 45.8227 599.356 45.916 599.16 46C598.964 46.0933 598.717 46.14 598.418 46.14H597.438C596.038 46.14 595.338 45.4633 595.338 44.11V43.83ZM596.528 44.11C596.528 44.39 596.607 44.614 596.766 44.782C596.934 44.9407 597.158 45.02 597.438 45.02H598.558C598.978 45.02 599.328 44.88 599.608 44.6C599.888 44.32 600.028 43.97 600.028 43.55V42.92H597.438C597.158 42.92 596.934 43.004 596.766 43.172C596.607 43.3307 596.528 43.55 596.528 43.83V44.11ZM603.662 46C603.522 46 603.452 45.93 603.452 45.79V39.07C603.452 38.93 603.522 38.86 603.662 38.86H604.432C604.572 38.86 604.642 38.93 604.642 39.07V44.88H608.072V39.07C608.072 38.93 608.142 38.86 608.282 38.86H609.052C609.192 38.86 609.262 38.93 609.262 39.07V45.09L610.522 46.49C610.559 46.5273 610.578 46.574 610.578 46.63C610.578 46.686 610.559 46.7327 610.522 46.77L609.892 47.33C609.789 47.414 609.696 47.414 609.612 47.33L608.422 46H603.662ZM617.576 38.86C617.716 38.86 617.786 38.93 617.786 39.07V45.79C617.786 45.93 617.716 46 617.576 46H616.806C616.666 46 616.596 45.93 616.596 45.79V40.68H616.526L613.166 45.79C613.12 45.8647 613.073 45.9207 613.026 45.958C612.98 45.986 612.886 46 612.746 46H611.906C611.766 46 611.696 45.93 611.696 45.79V39.07C611.696 38.93 611.766 38.86 611.906 38.86H612.676C612.816 38.86 612.886 38.93 612.886 39.07V44.18H612.956L616.316 39.07C616.363 38.9953 616.41 38.944 616.456 38.916C616.503 38.8787 616.596 38.86 616.736 38.86H617.576ZM625.174 38.86C625.314 38.86 625.384 38.93 625.384 39.07V45.79C625.384 45.93 625.314 46 625.174 46H624.404C624.264 46 624.194 45.93 624.194 45.79V43.62H622.164L620.974 45.79C620.937 45.8647 620.895 45.9207 620.848 45.958C620.802 45.986 620.727 46 620.624 46H619.784C619.71 46 619.654 45.986 619.616 45.958C619.588 45.9207 619.598 45.8647 619.644 45.79L620.904 43.48C620.662 43.4333 620.452 43.3307 620.274 43.172C620.116 43.0413 619.971 42.85 619.84 42.598C619.71 42.346 619.644 42.01 619.644 41.59V40.89C619.644 39.5367 620.344 38.86 621.744 38.86H625.174ZM621.744 39.98C621.464 39.98 621.24 40.064 621.072 40.232C620.914 40.3907 620.834 40.61 620.834 40.89V41.59C620.834 41.87 620.914 42.094 621.072 42.262C621.24 42.4207 621.464 42.5 621.744 42.5H624.194V39.98H621.744ZM628.268 45.72C628.268 45.776 628.259 45.8273 628.24 45.874C628.231 45.9207 628.217 45.9673 628.198 46.014C628.17 46.0607 628.147 46.1027 628.128 46.14L627.568 47.26C627.549 47.2973 627.517 47.33 627.47 47.358C627.433 47.386 627.395 47.4 627.358 47.4H627.008C626.924 47.4 626.901 47.3533 626.938 47.26L627.568 46H627.218C627.078 46 627.008 45.93 627.008 45.79V44.95C627.008 44.81 627.078 44.74 627.218 44.74H628.058C628.198 44.74 628.268 44.81 628.268 44.95V45.72ZM636.601 44.88C636.918 44.88 637.17 44.7867 637.357 44.6C637.553 44.404 637.651 44.1473 637.651 43.83V40.89C637.651 40.5727 637.553 40.3207 637.357 40.134C637.17 39.938 636.918 39.84 636.601 39.84H635.411C634.991 39.84 634.641 39.98 634.361 40.26C634.081 40.54 633.941 40.89 633.941 41.31V44.88H636.601ZM633.941 46V48.45C633.941 48.59 633.871 48.66 633.731 48.66H632.961C632.821 48.66 632.751 48.59 632.751 48.45V39.07C632.751 38.93 632.821 38.86 632.961 38.86H633.731C633.871 38.86 633.941 38.93 633.941 39.07V39.56H634.011C634.086 39.4013 634.193 39.2613 634.333 39.14C634.454 39.0373 634.613 38.944 634.809 38.86C635.005 38.7667 635.252 38.72 635.551 38.72H636.601C637.338 38.72 637.894 38.9067 638.267 39.28C638.65 39.6533 638.841 40.19 638.841 40.89V43.83C638.841 44.53 638.65 45.0667 638.267 45.44C637.894 45.8133 637.338 46 636.601 46H633.941ZM640.66 43.83C640.66 42.4767 641.36 41.8 642.76 41.8H645.35V40.89C645.35 40.5727 645.252 40.3207 645.056 40.134C644.87 39.938 644.618 39.84 644.3 39.84H643.32C643.003 39.84 642.746 39.938 642.55 40.134C642.364 40.3207 642.27 40.5727 642.27 40.89C642.27 41.03 642.2 41.1 642.06 41.1H641.29C641.15 41.1 641.08 41.03 641.08 40.89C641.08 40.19 641.267 39.6533 641.64 39.28C642.023 38.9067 642.583 38.72 643.32 38.72H644.3C645.038 38.72 645.593 38.9067 645.966 39.28C646.349 39.6533 646.54 40.19 646.54 40.89V45.79C646.54 45.93 646.47 46 646.33 46H645.56C645.42 46 645.35 45.93 645.35 45.79V45.3H645.28C645.206 45.4587 645.098 45.5987 644.958 45.72C644.837 45.8227 644.678 45.916 644.482 46C644.286 46.0933 644.039 46.14 643.74 46.14H642.76C641.36 46.14 640.66 45.4633 640.66 44.11V43.83ZM641.85 44.11C641.85 44.39 641.93 44.614 642.088 44.782C642.256 44.9407 642.48 45.02 642.76 45.02H643.88C644.3 45.02 644.65 44.88 644.93 44.6C645.21 44.32 645.35 43.97 645.35 43.55V42.92H642.76C642.48 42.92 642.256 43.004 642.088 43.172C641.93 43.3307 641.85 43.55 641.85 43.83V44.11ZM650.594 46.14C649.857 46.14 649.297 45.9533 648.914 45.58C648.541 45.2067 648.354 44.67 648.354 43.97V43.62C648.354 43.48 648.424 43.41 648.564 43.41H649.334C649.474 43.41 649.544 43.48 649.544 43.62V43.97C649.544 44.2873 649.638 44.544 649.824 44.74C650.02 44.9267 650.277 45.02 650.594 45.02H652.414C652.694 45.02 652.914 44.9407 653.072 44.782C653.24 44.614 653.324 44.39 653.324 44.11V43.83C653.324 43.55 653.24 43.3307 653.072 43.172C652.914 43.004 652.694 42.92 652.414 42.92H651.224C651.084 42.92 651.014 42.85 651.014 42.71V42.01C651.014 41.87 651.084 41.8 651.224 41.8H652.274C652.554 41.8 652.774 41.7207 652.932 41.562C653.1 41.394 653.184 41.17 653.184 40.89V40.75C653.184 40.47 653.1 40.2507 652.932 40.092C652.774 39.924 652.554 39.84 652.274 39.84H650.734C650.417 39.84 650.16 39.938 649.964 40.134C649.778 40.3207 649.684 40.5727 649.684 40.89V41.24C649.684 41.38 649.614 41.45 649.474 41.45H648.704C648.564 41.45 648.494 41.38 648.494 41.24V40.89C648.494 40.19 648.681 39.6533 649.054 39.28C649.437 38.9067 649.997 38.72 650.734 38.72H652.274C653.674 38.72 654.374 39.3967 654.374 40.75V40.89C654.374 41.17 654.318 41.3987 654.206 41.576C654.094 41.744 653.973 41.8793 653.842 41.982C653.684 42.094 653.511 42.1733 653.324 42.22V42.29C653.548 42.3367 653.744 42.4253 653.912 42.556C654.062 42.668 654.197 42.8267 654.318 43.032C654.449 43.2373 654.514 43.5033 654.514 43.83V44.11C654.514 45.4633 653.814 46.14 652.414 46.14H650.594ZM660.532 44.46L663.052 39.07C663.089 38.9953 663.131 38.944 663.178 38.916C663.234 38.8787 663.332 38.86 663.472 38.86H664.312C664.452 38.86 664.522 38.93 664.522 39.07V45.79C664.522 45.93 664.452 46 664.312 46H663.542C663.402 46 663.332 45.93 663.332 45.79V41.17H663.262L661.092 45.79C661.054 45.8647 661.008 45.9207 660.952 45.958C660.905 45.986 660.812 46 660.672 46H660.322C660.182 46 660.084 45.986 660.028 45.958C659.981 45.9207 659.939 45.8647 659.902 45.79L657.732 41.17H657.662V45.79C657.662 45.93 657.592 46 657.452 46H656.682C656.542 46 656.472 45.93 656.472 45.79V39.07C656.472 38.93 656.542 38.86 656.682 38.86H657.522C657.662 38.86 657.755 38.8787 657.802 38.916C657.858 38.944 657.904 38.9953 657.942 39.07L660.462 44.46H660.532ZM671.596 41.8V40.89C671.596 40.5727 671.498 40.3207 671.302 40.134C671.116 39.938 670.864 39.84 670.546 39.84H668.866C668.549 39.84 668.292 39.938 668.096 40.134C667.91 40.3207 667.816 40.5727 667.816 40.89V41.8H671.596ZM667.816 42.92V43.97C667.816 44.2873 667.91 44.544 668.096 44.74C668.292 44.9267 668.549 45.02 668.866 45.02H670.546C670.864 45.02 671.116 44.9267 671.302 44.74C671.498 44.544 671.596 44.2873 671.596 43.97V43.9C671.596 43.76 671.666 43.69 671.806 43.69H672.576C672.716 43.69 672.786 43.76 672.786 43.9V43.97C672.786 44.67 672.595 45.2067 672.212 45.58C671.839 45.9533 671.284 46.14 670.546 46.14H668.866C668.129 46.14 667.569 45.9533 667.186 45.58C666.813 45.2067 666.626 44.67 666.626 43.97V40.89C666.626 40.19 666.813 39.6533 667.186 39.28C667.569 38.9067 668.129 38.72 668.866 38.72H670.546C671.284 38.72 671.839 38.9067 672.212 39.28C672.595 39.6533 672.786 40.19 672.786 40.89V42.71C672.786 42.85 672.716 42.92 672.576 42.92H667.816ZM675.098 46C674.958 46 674.888 45.93 674.888 45.79V39.07C674.888 38.93 674.958 38.86 675.098 38.86H675.868C676.008 38.86 676.078 38.93 676.078 39.07V44.88H678.808V39.07C678.808 38.93 678.878 38.86 679.018 38.86H679.788C679.928 38.86 679.998 38.93 679.998 39.07V44.88H682.728V39.07C682.728 38.93 682.798 38.86 682.938 38.86H683.708C683.848 38.86 683.918 38.93 683.918 39.07V45.09L685.178 46.49C685.215 46.5273 685.234 46.574 685.234 46.63C685.234 46.686 685.215 46.7327 685.178 46.77L684.548 47.33C684.445 47.414 684.352 47.414 684.268 47.33L683.078 46H675.098ZM691.188 41.8V40.89C691.188 40.5727 691.09 40.3207 690.894 40.134C690.708 39.938 690.456 39.84 690.138 39.84H688.458C688.141 39.84 687.884 39.938 687.688 40.134C687.502 40.3207 687.408 40.5727 687.408 40.89V41.8H691.188ZM687.408 42.92V43.97C687.408 44.2873 687.502 44.544 687.688 44.74C687.884 44.9267 688.141 45.02 688.458 45.02H690.138C690.456 45.02 690.708 44.9267 690.894 44.74C691.09 44.544 691.188 44.2873 691.188 43.97V43.9C691.188 43.76 691.258 43.69 691.398 43.69H692.168C692.308 43.69 692.378 43.76 692.378 43.9V43.97C692.378 44.67 692.187 45.2067 691.804 45.58C691.431 45.9533 690.876 46.14 690.138 46.14H688.458C687.721 46.14 687.161 45.9533 686.778 45.58C686.405 45.2067 686.218 44.67 686.218 43.97V40.89C686.218 40.19 686.405 39.6533 686.778 39.28C687.161 38.9067 687.721 38.72 688.458 38.72H690.138C690.876 38.72 691.431 38.9067 691.804 39.28C692.187 39.6533 692.378 40.19 692.378 40.89V42.71C692.378 42.85 692.308 42.92 692.168 42.92H687.408ZM695.669 42.92V45.79C695.669 45.93 695.599 46 695.459 46H694.689C694.549 46 694.479 45.93 694.479 45.79V39.07C694.479 38.93 694.549 38.86 694.689 38.86H695.459C695.599 38.86 695.669 38.93 695.669 39.07V41.87H699.239V39.07C699.239 38.93 699.309 38.86 699.449 38.86H700.219C700.359 38.86 700.429 38.93 700.429 39.07V45.79C700.429 45.93 700.359 46 700.219 46H699.449C699.309 46 699.239 45.93 699.239 45.79V42.92H695.669ZM703.859 42.92V45.79C703.859 45.93 703.789 46 703.649 46H702.879C702.739 46 702.669 45.93 702.669 45.79V39.07C702.669 38.93 702.739 38.86 702.879 38.86H703.649C703.789 38.86 703.859 38.93 703.859 39.07V41.87H707.429V39.07C707.429 38.93 707.499 38.86 707.639 38.86H708.409C708.549 38.86 708.619 38.93 708.619 39.07V45.79C708.619 45.93 708.549 46 708.409 46H707.639C707.499 46 707.429 45.93 707.429 45.79V42.92H703.859ZM710.578 43.83C710.578 42.4767 711.278 41.8 712.678 41.8H715.268V40.89C715.268 40.5727 715.17 40.3207 714.974 40.134C714.788 39.938 714.536 39.84 714.218 39.84H713.238C712.921 39.84 712.664 39.938 712.468 40.134C712.282 40.3207 712.188 40.5727 712.188 40.89C712.188 41.03 712.118 41.1 711.978 41.1H711.208C711.068 41.1 710.998 41.03 710.998 40.89C710.998 40.19 711.185 39.6533 711.558 39.28C711.941 38.9067 712.501 38.72 713.238 38.72H714.218C714.956 38.72 715.511 38.9067 715.884 39.28C716.267 39.6533 716.458 40.19 716.458 40.89V45.79C716.458 45.93 716.388 46 716.248 46H715.478C715.338 46 715.268 45.93 715.268 45.79V45.3H715.198C715.124 45.4587 715.016 45.5987 714.876 45.72C714.755 45.8227 714.596 45.916 714.4 46C714.204 46.0933 713.957 46.14 713.658 46.14H712.678C711.278 46.14 710.578 45.4633 710.578 44.11V43.83ZM711.768 44.11C711.768 44.39 711.848 44.614 712.006 44.782C712.174 44.9407 712.398 45.02 712.678 45.02H713.798C714.218 45.02 714.568 44.88 714.848 44.6C715.128 44.32 715.268 43.97 715.268 43.55V42.92H712.678C712.398 42.92 712.174 43.004 712.006 43.172C711.848 43.3307 711.768 43.55 711.768 43.83V44.11ZM723.844 38.86C723.984 38.86 724.054 38.93 724.054 39.07V45.79C724.054 45.93 723.984 46 723.844 46H723.074C722.934 46 722.864 45.93 722.864 45.79V43.62H720.834L719.644 45.79C719.607 45.8647 719.565 45.9207 719.518 45.958C719.472 45.986 719.397 46 719.294 46H718.454C718.38 46 718.324 45.986 718.286 45.958C718.258 45.9207 718.268 45.8647 718.314 45.79L719.574 43.48C719.332 43.4333 719.122 43.3307 718.944 43.172C718.786 43.0413 718.641 42.85 718.51 42.598C718.38 42.346 718.314 42.01 718.314 41.59V40.89C718.314 39.5367 719.014 38.86 720.414 38.86H723.844ZM720.414 39.98C720.134 39.98 719.91 40.064 719.742 40.232C719.584 40.3907 719.504 40.61 719.504 40.89V41.59C719.504 41.87 719.584 42.094 719.742 42.262C719.91 42.4207 720.134 42.5 720.414 42.5H722.864V39.98H720.414ZM730.287 42.92V45.79C730.287 45.93 730.217 46 730.077 46H729.307C729.167 46 729.097 45.93 729.097 45.79V39.07C729.097 38.93 729.167 38.86 729.307 38.86H730.077C730.217 38.86 730.287 38.93 730.287 39.07V41.87H733.857V39.07C733.857 38.93 733.927 38.86 734.067 38.86H734.837C734.977 38.86 735.047 38.93 735.047 39.07V45.79C735.047 45.93 734.977 46 734.837 46H734.067C733.927 46 733.857 45.93 733.857 45.79V42.92H730.287ZM737.006 43.83C737.006 42.4767 737.706 41.8 739.106 41.8H741.696V40.89C741.696 40.5727 741.598 40.3207 741.402 40.134C741.215 39.938 740.963 39.84 740.646 39.84H739.666C739.349 39.84 739.092 39.938 738.896 40.134C738.709 40.3207 738.616 40.5727 738.616 40.89C738.616 41.03 738.546 41.1 738.406 41.1H737.636C737.496 41.1 737.426 41.03 737.426 40.89C737.426 40.19 737.613 39.6533 737.986 39.28C738.369 38.9067 738.929 38.72 739.666 38.72H740.646C741.383 38.72 741.939 38.9067 742.312 39.28C742.695 39.6533 742.886 40.19 742.886 40.89V45.79C742.886 45.93 742.816 46 742.676 46H741.906C741.766 46 741.696 45.93 741.696 45.79V45.3H741.626C741.551 45.4587 741.444 45.5987 741.304 45.72C741.183 45.8227 741.024 45.916 740.828 46C740.632 46.0933 740.385 46.14 740.086 46.14H739.106C737.706 46.14 737.006 45.4633 737.006 44.11V43.83ZM738.196 44.11C738.196 44.39 738.275 44.614 738.434 44.782C738.602 44.9407 738.826 45.02 739.106 45.02H740.226C740.646 45.02 740.996 44.88 741.276 44.6C741.556 44.32 741.696 43.97 741.696 43.55V42.92H739.106C738.826 42.92 738.602 43.004 738.434 43.172C738.275 43.3307 738.196 43.55 738.196 43.83V44.11ZM549.765 55.98H547.455L546.475 60.88H549.765V55.98ZM550.955 60.88H551.655C551.795 60.88 551.865 60.95 551.865 61.09V63.33C551.865 63.47 551.795 63.54 551.655 63.54H550.885C550.745 63.54 550.675 63.47 550.675 63.33V62H545.635V63.33C545.635 63.47 545.565 63.54 545.425 63.54H544.655C544.515 63.54 544.445 63.47 544.445 63.33V61.09C544.445 60.95 544.515 60.88 544.655 60.88H545.285L546.475 55.07C546.503 54.93 546.62 54.86 546.825 54.86H550.745C550.885 54.86 550.955 54.93 550.955 55.07V60.88ZM553.119 59.83C553.119 58.4767 553.819 57.8 555.219 57.8H557.809V56.89C557.809 56.5727 557.711 56.3207 557.515 56.134C557.329 55.938 557.077 55.84 556.759 55.84H555.779C555.462 55.84 555.205 55.938 555.009 56.134C554.823 56.3207 554.729 56.5727 554.729 56.89C554.729 57.03 554.659 57.1 554.519 57.1H553.749C553.609 57.1 553.539 57.03 553.539 56.89C553.539 56.19 553.726 55.6533 554.099 55.28C554.482 54.9067 555.042 54.72 555.779 54.72H556.759C557.497 54.72 558.052 54.9067 558.425 55.28C558.808 55.6533 558.999 56.19 558.999 56.89V61.79C558.999 61.93 558.929 62 558.789 62H558.019C557.879 62 557.809 61.93 557.809 61.79V61.3H557.739C557.665 61.4587 557.557 61.5987 557.417 61.72C557.296 61.8227 557.137 61.916 556.941 62C556.745 62.0933 556.498 62.14 556.199 62.14H555.219C553.819 62.14 553.119 61.4633 553.119 60.11V59.83ZM554.309 60.11C554.309 60.39 554.389 60.614 554.547 60.782C554.715 60.9407 554.939 61.02 555.219 61.02H556.339C556.759 61.02 557.109 60.88 557.389 60.6C557.669 60.32 557.809 59.97 557.809 59.55V58.92H555.219C554.939 58.92 554.715 59.004 554.547 59.172C554.389 59.3307 554.309 59.55 554.309 59.83V60.11ZM562.423 58.92V61.79C562.423 61.93 562.353 62 562.213 62H561.443C561.303 62 561.233 61.93 561.233 61.79V55.07C561.233 54.93 561.303 54.86 561.443 54.86H562.213C562.353 54.86 562.423 54.93 562.423 55.07V57.87H565.993V55.07C565.993 54.93 566.063 54.86 566.203 54.86H566.973C567.113 54.86 567.183 54.93 567.183 55.07V61.79C567.183 61.93 567.113 62 566.973 62H566.203C566.063 62 565.993 61.93 565.993 61.79V58.92H562.423ZM570.613 58.92V61.79C570.613 61.93 570.543 62 570.403 62H569.633C569.493 62 569.423 61.93 569.423 61.79V55.07C569.423 54.93 569.493 54.86 569.633 54.86H570.403C570.543 54.86 570.613 54.93 570.613 55.07V57.87H574.183V55.07C574.183 54.93 574.253 54.86 574.393 54.86H575.163C575.303 54.86 575.373 54.93 575.373 55.07V61.79C575.373 61.93 575.303 62 575.163 62H574.393C574.253 62 574.183 61.93 574.183 61.79V58.92H570.613ZM582.512 56.89C582.512 56.5727 582.414 56.3207 582.218 56.134C582.032 55.938 581.78 55.84 581.462 55.84H579.712C579.395 55.84 579.138 55.938 578.942 56.134C578.756 56.3207 578.662 56.5727 578.662 56.89V59.97C578.662 60.2873 578.756 60.544 578.942 60.74C579.138 60.9267 579.395 61.02 579.712 61.02H581.462C581.78 61.02 582.032 60.9267 582.218 60.74C582.414 60.544 582.512 60.2873 582.512 59.97V56.89ZM583.702 59.97C583.702 60.67 583.511 61.2067 583.128 61.58C582.755 61.9533 582.2 62.14 581.462 62.14H579.712C578.975 62.14 578.415 61.9533 578.032 61.58C577.659 61.2067 577.472 60.67 577.472 59.97V56.89C577.472 56.19 577.659 55.6533 578.032 55.28C578.415 54.9067 578.975 54.72 579.712 54.72H581.462C582.2 54.72 582.755 54.9067 583.128 55.28C583.511 55.6533 583.702 56.19 583.702 56.89V59.97ZM588.462 53.74C587.93 53.74 587.528 53.6093 587.258 53.348C586.987 53.0773 586.852 52.6947 586.852 52.2V51.85C586.852 51.71 586.922 51.64 587.062 51.64H587.692C587.832 51.64 587.902 51.71 587.902 51.85V52.2C587.902 52.5733 588.088 52.76 588.462 52.76H589.232C589.605 52.76 589.792 52.5733 589.792 52.2V51.85C589.792 51.71 589.862 51.64 590.002 51.64H590.632C590.772 51.64 590.842 51.71 590.842 51.85V52.2C590.842 52.6947 590.706 53.0773 590.436 53.348C590.165 53.6093 589.764 53.74 589.232 53.74H588.462ZM591.682 54.86C591.822 54.86 591.892 54.93 591.892 55.07V61.79C591.892 61.93 591.822 62 591.682 62H590.912C590.772 62 590.702 61.93 590.702 61.79V56.68H590.632L587.272 61.79C587.225 61.8647 587.178 61.9207 587.132 61.958C587.085 61.986 586.992 62 586.852 62H586.012C585.872 62 585.802 61.93 585.802 61.79V55.07C585.802 54.93 585.872 54.86 586.012 54.86H586.782C586.922 54.86 586.992 54.93 586.992 55.07V60.18H587.062L590.422 55.07C590.468 54.9953 590.515 54.944 590.562 54.916C590.608 54.8787 590.702 54.86 590.842 54.86H591.682ZM597.981 59.97C597.981 60.2873 598.074 60.544 598.261 60.74C598.457 60.9267 598.713 61.02 599.031 61.02H600.641C600.958 61.02 601.21 60.9267 601.397 60.74C601.593 60.544 601.691 60.2873 601.691 59.97V59.62C601.691 59.48 601.761 59.41 601.901 59.41H602.671C602.811 59.41 602.881 59.48 602.881 59.62V59.97C602.881 60.67 602.689 61.2067 602.307 61.58C601.933 61.9533 601.378 62.14 600.641 62.14H599.031C598.293 62.14 597.733 61.9533 597.351 61.58C596.977 61.2067 596.791 60.67 596.791 59.97V56.89C596.791 56.19 596.977 55.6533 597.351 55.28C597.733 54.9067 598.293 54.72 599.031 54.72H600.641C601.378 54.72 601.933 54.9067 602.307 55.28C602.689 55.6533 602.881 56.19 602.881 56.89V57.24C602.881 57.38 602.811 57.45 602.671 57.45H601.901C601.761 57.45 601.691 57.38 601.691 57.24V56.89C601.691 56.5727 601.593 56.3207 601.397 56.134C601.21 55.938 600.958 55.84 600.641 55.84H599.031C598.713 55.84 598.457 55.938 598.261 56.134C598.074 56.3207 597.981 56.5727 597.981 56.89V59.97ZM606.457 62C606.317 62 606.247 61.93 606.247 61.79V55.98H604.077C603.937 55.98 603.867 55.91 603.867 55.77V55.07C603.867 54.93 603.937 54.86 604.077 54.86H609.607C609.747 54.86 609.817 54.93 609.817 55.07V55.77C609.817 55.91 609.747 55.98 609.607 55.98H607.437V61.79C607.437 61.93 607.367 62 607.227 62H606.457ZM614.931 60.88C615.248 60.88 615.5 60.7867 615.687 60.6C615.883 60.404 615.981 60.1473 615.981 59.83V56.89C615.981 56.5727 615.883 56.3207 615.687 56.134C615.5 55.938 615.248 55.84 614.931 55.84H613.741C613.321 55.84 612.971 55.98 612.691 56.26C612.411 56.54 612.271 56.89 612.271 57.31V60.88H614.931ZM612.271 62V64.45C612.271 64.59 612.201 64.66 612.061 64.66H611.291C611.151 64.66 611.081 64.59 611.081 64.45V55.07C611.081 54.93 611.151 54.86 611.291 54.86H612.061C612.201 54.86 612.271 54.93 612.271 55.07V55.56H612.341C612.416 55.4013 612.523 55.2613 612.663 55.14C612.784 55.0373 612.943 54.944 613.139 54.86C613.335 54.7667 613.582 54.72 613.881 54.72H614.931C615.668 54.72 616.224 54.9067 616.597 55.28C616.98 55.6533 617.171 56.19 617.171 56.89V59.83C617.171 60.53 616.98 61.0667 616.597 61.44C616.224 61.8133 615.668 62 614.931 62H612.271ZM618.99 59.83C618.99 58.4767 619.69 57.8 621.09 57.8H623.68V56.89C623.68 56.5727 623.582 56.3207 623.386 56.134C623.2 55.938 622.948 55.84 622.63 55.84H621.65C621.333 55.84 621.076 55.938 620.88 56.134C620.694 56.3207 620.6 56.5727 620.6 56.89C620.6 57.03 620.53 57.1 620.39 57.1H619.62C619.48 57.1 619.41 57.03 619.41 56.89C619.41 56.19 619.597 55.6533 619.97 55.28C620.353 54.9067 620.913 54.72 621.65 54.72H622.63C623.368 54.72 623.923 54.9067 624.296 55.28C624.679 55.6533 624.87 56.19 624.87 56.89V61.79C624.87 61.93 624.8 62 624.66 62H623.89C623.75 62 623.68 61.93 623.68 61.79V61.3H623.61C623.536 61.4587 623.428 61.5987 623.288 61.72C623.167 61.8227 623.008 61.916 622.812 62C622.616 62.0933 622.369 62.14 622.07 62.14H621.09C619.69 62.14 618.99 61.4633 618.99 60.11V59.83ZM620.18 60.11C620.18 60.39 620.26 60.614 620.418 60.782C620.586 60.9407 620.81 61.02 621.09 61.02H622.21C622.63 61.02 622.98 60.88 623.26 60.6C623.54 60.32 623.68 59.97 623.68 59.55V58.92H621.09C620.81 58.92 620.586 59.004 620.418 59.172C620.26 59.3307 620.18 59.55 620.18 59.83V60.11ZM628.294 58.92V61.79C628.294 61.93 628.224 62 628.084 62H627.314C627.174 62 627.104 61.93 627.104 61.79V55.07C627.104 54.93 627.174 54.86 627.314 54.86H628.084C628.224 54.86 628.294 54.93 628.294 55.07V57.87H631.864V55.07C631.864 54.93 631.934 54.86 632.074 54.86H632.844C632.984 54.86 633.054 54.93 633.054 55.07V61.79C633.054 61.93 632.984 62 632.844 62H632.074C631.934 62 631.864 61.93 631.864 61.79V58.92H628.294ZM641.174 54.86C641.314 54.86 641.384 54.93 641.384 55.07V61.79C641.384 61.93 641.314 62 641.174 62H640.404C640.264 62 640.194 61.93 640.194 61.79V56.68H640.124L636.764 61.79C636.717 61.8647 636.67 61.9207 636.624 61.958C636.577 61.986 636.484 62 636.344 62H635.504C635.364 62 635.294 61.93 635.294 61.79V55.07C635.294 54.93 635.364 54.86 635.504 54.86H636.274C636.414 54.86 636.484 54.93 636.484 55.07V60.18H636.554L639.914 55.07C639.96 54.9953 640.007 54.944 640.054 54.916C640.1 54.8787 640.194 54.86 640.334 54.86H641.174ZM643.83 62C643.69 62 643.62 61.93 643.62 61.79V55.07C643.62 54.93 643.69 54.86 643.83 54.86H644.6C644.74 54.86 644.81 54.93 644.81 55.07V60.88H648.24V55.07C648.24 54.93 648.31 54.86 648.45 54.86H649.22C649.36 54.86 649.43 54.93 649.43 55.07V61.09L650.69 62.49C650.727 62.5273 650.746 62.574 650.746 62.63C650.746 62.686 650.727 62.7327 650.69 62.77L650.06 63.33C649.957 63.414 649.864 63.414 649.78 63.33L648.59 62H643.83ZM656.694 57.8V56.89C656.694 56.5727 656.596 56.3207 656.4 56.134C656.213 55.938 655.961 55.84 655.644 55.84H653.964C653.647 55.84 653.39 55.938 653.194 56.134C653.007 56.3207 652.914 56.5727 652.914 56.89V57.8H656.694ZM652.914 58.92V59.97C652.914 60.2873 653.007 60.544 653.194 60.74C653.39 60.9267 653.647 61.02 653.964 61.02H655.644C655.961 61.02 656.213 60.9267 656.4 60.74C656.596 60.544 656.694 60.2873 656.694 59.97V59.9C656.694 59.76 656.764 59.69 656.904 59.69H657.674C657.814 59.69 657.884 59.76 657.884 59.9V59.97C657.884 60.67 657.693 61.2067 657.31 61.58C656.937 61.9533 656.381 62.14 655.644 62.14H653.964C653.227 62.14 652.667 61.9533 652.284 61.58C651.911 61.2067 651.724 60.67 651.724 59.97V56.89C651.724 56.19 651.911 55.6533 652.284 55.28C652.667 54.9067 653.227 54.72 653.964 54.72H655.644C656.381 54.72 656.937 54.9067 657.31 55.28C657.693 55.6533 657.884 56.19 657.884 56.89V58.71C657.884 58.85 657.814 58.92 657.674 58.92H652.914ZM660.629 61.72C660.629 61.776 660.62 61.8273 660.601 61.874C660.592 61.9207 660.578 61.9673 660.559 62.014C660.531 62.0607 660.508 62.1027 660.489 62.14L659.929 63.26C659.911 63.2973 659.878 63.33 659.831 63.358C659.794 63.386 659.757 63.4 659.719 63.4H659.369C659.285 63.4 659.262 63.3533 659.299 63.26L659.929 62H659.579C659.439 62 659.369 61.93 659.369 61.79V60.95C659.369 60.81 659.439 60.74 659.579 60.74H660.419C660.559 60.74 660.629 60.81 660.629 60.95V61.72ZM666.302 58.92V61.79C666.302 61.93 666.232 62 666.092 62H665.322C665.182 62 665.112 61.93 665.112 61.79V55.07C665.112 54.93 665.182 54.86 665.322 54.86H666.092C666.232 54.86 666.302 54.93 666.302 55.07V57.87H669.872V55.07C669.872 54.93 669.942 54.86 670.082 54.86H670.852C670.992 54.86 671.062 54.93 671.062 55.07V61.79C671.062 61.93 670.992 62 670.852 62H670.082C669.942 62 669.872 61.93 669.872 61.79V58.92H666.302ZM678.132 57.8V56.89C678.132 56.5727 678.034 56.3207 677.838 56.134C677.651 55.938 677.399 55.84 677.082 55.84H675.402C675.084 55.84 674.828 55.938 674.632 56.134C674.445 56.3207 674.352 56.5727 674.352 56.89V57.8H678.132ZM674.352 58.92V59.97C674.352 60.2873 674.445 60.544 674.632 60.74C674.828 60.9267 675.084 61.02 675.402 61.02H677.082C677.399 61.02 677.651 60.9267 677.838 60.74C678.034 60.544 678.132 60.2873 678.132 59.97V59.9C678.132 59.76 678.202 59.69 678.342 59.69H679.112C679.252 59.69 679.322 59.76 679.322 59.9V59.97C679.322 60.67 679.13 61.2067 678.748 61.58C678.374 61.9533 677.819 62.14 677.082 62.14H675.402C674.664 62.14 674.104 61.9533 673.722 61.58C673.348 61.2067 673.162 60.67 673.162 59.97V56.89C673.162 56.19 673.348 55.6533 673.722 55.28C674.104 54.9067 674.664 54.72 675.402 54.72H677.082C677.819 54.72 678.374 54.9067 678.748 55.28C679.13 55.6533 679.322 56.19 679.322 56.89V58.71C679.322 58.85 679.252 58.92 679.112 58.92H674.352ZM689.377 54.86C689.517 54.86 689.587 54.93 689.587 55.07V61.79C689.587 61.93 689.517 62 689.377 62H688.607C688.467 62 688.397 61.93 688.397 61.79V59.62H686.367L685.177 61.79C685.14 61.8647 685.098 61.9207 685.051 61.958C685.005 61.986 684.93 62 684.827 62H683.987C683.913 62 683.857 61.986 683.819 61.958C683.791 61.9207 683.801 61.8647 683.847 61.79L685.107 59.48C684.865 59.4333 684.655 59.3307 684.477 59.172C684.319 59.0413 684.174 58.85 684.043 58.598C683.913 58.346 683.847 58.01 683.847 57.59V56.89C683.847 55.5367 684.547 54.86 685.947 54.86H689.377ZM685.947 55.98C685.667 55.98 685.443 56.064 685.275 56.232C685.117 56.3907 685.037 56.61 685.037 56.89V57.59C685.037 57.87 685.117 58.094 685.275 58.262C685.443 58.4207 685.667 58.5 685.947 58.5H688.397V55.98H685.947ZM695.677 60.88C695.957 60.88 696.176 60.8007 696.335 60.642C696.503 60.474 696.587 60.25 696.587 59.97V59.83C696.587 59.55 696.503 59.3307 696.335 59.172C696.176 59.004 695.957 58.92 695.677 58.92H693.017V60.88H695.677ZM695.257 57.8C695.537 57.8 695.756 57.7207 695.915 57.562C696.083 57.394 696.167 57.17 696.167 56.89C696.167 56.61 696.083 56.3907 695.915 56.232C695.756 56.064 695.537 55.98 695.257 55.98H693.017V57.8H695.257ZM692.037 62C691.897 62 691.827 61.93 691.827 61.79V55.07C691.827 54.93 691.897 54.86 692.037 54.86H695.257C696.657 54.86 697.357 55.5367 697.357 56.89C697.357 57.17 697.306 57.3987 697.203 57.576C697.11 57.744 697.007 57.8793 696.895 57.982C696.764 58.094 696.615 58.1733 696.447 58.22V58.29C696.69 58.3367 696.909 58.4253 697.105 58.556C697.273 58.668 697.427 58.8267 697.567 59.032C697.707 59.2373 697.777 59.5033 697.777 59.83V59.97C697.777 61.3233 697.077 62 695.677 62H692.037ZM701.063 60.11C700.923 60.81 700.685 61.3233 700.349 61.65C700.013 61.9767 699.527 62.14 698.893 62.14H698.683C698.543 62.14 698.473 62.07 698.473 61.93V61.23C698.473 61.09 698.543 61.02 698.683 61.02H698.893C699.135 61.02 699.341 60.9407 699.509 60.782C699.686 60.6233 699.807 60.3993 699.873 60.11L700.923 55.07C700.951 54.93 701.067 54.86 701.273 54.86H705.193C705.333 54.86 705.403 54.93 705.403 55.07V61.79C705.403 61.93 705.333 62 705.193 62H704.423C704.283 62 704.213 61.93 704.213 61.79V55.98H701.903L701.063 60.11ZM712.797 54.86C712.937 54.86 713.007 54.93 713.007 55.07V61.79C713.007 61.93 712.937 62 712.797 62H712.027C711.887 62 711.817 61.93 711.817 61.79V59.62H709.787L708.597 61.79C708.56 61.8647 708.518 61.9207 708.471 61.958C708.425 61.986 708.35 62 708.247 62H707.407C707.333 62 707.277 61.986 707.239 61.958C707.211 61.9207 707.221 61.8647 707.267 61.79L708.527 59.48C708.285 59.4333 708.075 59.3307 707.897 59.172C707.739 59.0413 707.594 58.85 707.463 58.598C707.333 58.346 707.267 58.01 707.267 57.59V56.89C707.267 55.5367 707.967 54.86 709.367 54.86H712.797ZM709.367 55.98C709.087 55.98 708.863 56.064 708.695 56.232C708.537 56.3907 708.457 56.61 708.457 56.89V57.59C708.457 57.87 708.537 58.094 708.695 58.262C708.863 58.4207 709.087 58.5 709.367 58.5H711.817V55.98H709.367ZM720.077 57.8V56.89C720.077 56.5727 719.979 56.3207 719.783 56.134C719.596 55.938 719.344 55.84 719.027 55.84H717.347C717.03 55.84 716.773 55.938 716.577 56.134C716.39 56.3207 716.297 56.5727 716.297 56.89V57.8H720.077ZM716.297 58.92V59.97C716.297 60.2873 716.39 60.544 716.577 60.74C716.773 60.9267 717.03 61.02 717.347 61.02H719.027C719.344 61.02 719.596 60.9267 719.783 60.74C719.979 60.544 720.077 60.2873 720.077 59.97V59.9C720.077 59.76 720.147 59.69 720.287 59.69H721.057C721.197 59.69 721.267 59.76 721.267 59.9V59.97C721.267 60.67 721.076 61.2067 720.693 61.58C720.32 61.9533 719.764 62.14 719.027 62.14H717.347C716.61 62.14 716.05 61.9533 715.667 61.58C715.294 61.2067 715.107 60.67 715.107 59.97V56.89C715.107 56.19 715.294 55.6533 715.667 55.28C716.05 54.9067 716.61 54.72 717.347 54.72H719.027C719.764 54.72 720.32 54.9067 720.693 55.28C721.076 55.6533 721.267 56.19 721.267 56.89V58.71C721.267 58.85 721.197 58.92 721.057 58.92H716.297ZM724.978 62C724.838 62 724.768 61.93 724.768 61.79V55.98H722.598C722.458 55.98 722.388 55.91 722.388 55.77V55.07C722.388 54.93 722.458 54.86 722.598 54.86H728.128C728.268 54.86 728.338 54.93 728.338 55.07V55.77C728.338 55.91 728.268 55.98 728.128 55.98H725.958V61.79C725.958 61.93 725.888 62 725.748 62H724.978ZM730.652 59.97C730.652 60.2873 730.746 60.544 730.932 60.74C731.128 60.9267 731.385 61.02 731.702 61.02H733.312C733.63 61.02 733.882 60.9267 734.068 60.74C734.264 60.544 734.362 60.2873 734.362 59.97V59.62C734.362 59.48 734.432 59.41 734.572 59.41H735.342C735.482 59.41 735.552 59.48 735.552 59.62V59.97C735.552 60.67 735.361 61.2067 734.978 61.58C734.605 61.9533 734.05 62.14 733.312 62.14H731.702C730.965 62.14 730.405 61.9533 730.022 61.58C729.649 61.2067 729.462 60.67 729.462 59.97V56.89C729.462 56.19 729.649 55.6533 730.022 55.28C730.405 54.9067 730.965 54.72 731.702 54.72H733.312C734.05 54.72 734.605 54.9067 734.978 55.28C735.361 55.6533 735.552 56.19 735.552 56.89V57.24C735.552 57.38 735.482 57.45 735.342 57.45H734.572C734.432 57.45 734.362 57.38 734.362 57.24V56.89C734.362 56.5727 734.264 56.3207 734.068 56.134C733.882 55.938 733.63 55.84 733.312 55.84H731.702C731.385 55.84 731.128 55.938 730.932 56.134C730.746 56.3207 730.652 56.5727 730.652 56.89V59.97ZM742.67 54.86C742.81 54.86 742.88 54.93 742.88 55.07V61.79C742.88 61.93 742.81 62 742.67 62H741.9C741.76 62 741.69 61.93 741.69 61.79V59.62H739.66L738.47 61.79C738.433 61.8647 738.391 61.9207 738.344 61.958C738.298 61.986 738.223 62 738.12 62H737.28C737.206 62 737.15 61.986 737.112 61.958C737.084 61.9207 737.094 61.8647 737.14 61.79L738.4 59.48C738.158 59.4333 737.948 59.3307 737.77 59.172C737.612 59.0413 737.467 58.85 737.336 58.598C737.206 58.346 737.14 58.01 737.14 57.59V56.89C737.14 55.5367 737.84 54.86 739.24 54.86H742.67ZM739.24 55.98C738.96 55.98 738.736 56.064 738.568 56.232C738.41 56.3907 738.33 56.61 738.33 56.89V57.59C738.33 57.87 738.41 58.094 738.568 58.262C738.736 58.4207 738.96 58.5 739.24 58.5H741.69V55.98H739.24ZM617.322 78C617.182 78 617.112 77.93 617.112 77.79V71.98H613.542V77.79C613.542 77.93 613.472 78 613.332 78H612.562C612.422 78 612.352 77.93 612.352 77.79V71.07C612.352 70.93 612.422 70.86 612.562 70.86H618.092C618.232 70.86 618.302 70.93 618.302 71.07V77.79C618.302 77.93 618.232 78 618.092 78H617.322ZM624.98 71.07C625.008 70.9953 625.045 70.944 625.092 70.916C625.148 70.8787 625.227 70.86 625.33 70.86H626.17C626.319 70.86 626.366 70.93 626.31 71.07L623.58 78C623.384 78.4947 623.193 78.91 623.006 79.246C622.819 79.582 622.619 79.8527 622.404 80.058C622.189 80.2727 621.956 80.4267 621.704 80.52C621.452 80.6133 621.167 80.66 620.85 80.66H620.57C620.43 80.66 620.36 80.59 620.36 80.45V79.75C620.36 79.61 620.43 79.54 620.57 79.54H620.85C621.205 79.54 621.494 79.4233 621.718 79.19C621.951 78.9567 622.175 78.56 622.39 78L619.66 71.07C619.604 70.93 619.651 70.86 619.8 70.86H620.64C620.743 70.86 620.817 70.8787 620.864 70.916C620.92 70.944 620.962 70.9953 620.99 71.07L622.95 76.32H623.02L624.98 71.07ZM628.715 75.97C628.715 76.2873 628.808 76.544 628.995 76.74C629.191 76.9267 629.448 77.02 629.765 77.02H631.305C631.622 77.02 631.874 76.9267 632.061 76.74C632.257 76.544 632.355 76.2873 632.355 75.97V74.15C632.355 73.8327 632.257 73.5807 632.061 73.394C631.874 73.198 631.622 73.1 631.305 73.1H628.715V75.97ZM627.525 71.42C627.525 70.0107 628.272 69.2407 629.765 69.11L631.445 68.97C631.66 68.9513 631.818 68.886 631.921 68.774C632.024 68.662 632.075 68.5173 632.075 68.34V68.27C632.075 68.13 632.145 68.06 632.285 68.06H633.055C633.195 68.06 633.265 68.13 633.265 68.27V68.34C633.265 68.9373 633.12 69.3807 632.831 69.67C632.542 69.95 632.08 70.1133 631.445 70.16L629.765 70.3C629.448 70.328 629.191 70.4447 628.995 70.65C628.808 70.846 628.715 71.1027 628.715 71.42V71.98H631.305C632.042 71.98 632.598 72.1667 632.971 72.54C633.354 72.9133 633.545 73.45 633.545 74.15V75.97C633.545 76.67 633.354 77.2067 632.971 77.58C632.598 77.9533 632.042 78.14 631.305 78.14H629.765C629.028 78.14 628.468 77.9533 628.085 77.58C627.712 77.2067 627.525 76.67 627.525 75.97V71.42ZM636.969 76.11C636.829 76.81 636.591 77.3233 636.255 77.65C635.919 77.9767 635.434 78.14 634.799 78.14H634.589C634.449 78.14 634.379 78.07 634.379 77.93V77.23C634.379 77.09 634.449 77.02 634.589 77.02H634.799C635.042 77.02 635.247 76.9407 635.415 76.782C635.592 76.6233 635.714 76.3993 635.779 76.11L636.829 71.07C636.857 70.93 636.974 70.86 637.179 70.86H641.099C641.239 70.86 641.309 70.93 641.309 71.07V77.79C641.309 77.93 641.239 78 641.099 78H640.329C640.189 78 640.119 77.93 640.119 77.79V71.98H637.809L636.969 76.11ZM649.432 70.86C649.572 70.86 649.642 70.93 649.642 71.07V77.79C649.642 77.93 649.572 78 649.432 78H648.662C648.522 78 648.452 77.93 648.452 77.79V72.68H648.382L645.022 77.79C644.975 77.8647 644.928 77.9207 644.882 77.958C644.835 77.986 644.742 78 644.602 78H643.762C643.622 78 643.552 77.93 643.552 77.79V71.07C643.552 70.93 643.622 70.86 643.762 70.86H644.532C644.672 70.86 644.742 70.93 644.742 71.07V76.18H644.812L648.172 71.07C648.218 70.9953 648.265 70.944 648.312 70.916C648.358 70.8787 648.452 70.86 648.592 70.86H649.432ZM652.928 73.45C652.928 73.7673 653.021 74.024 653.208 74.22C653.404 74.4067 653.66 74.5 653.978 74.5H656.358V71.07C656.358 70.93 656.428 70.86 656.568 70.86H657.338C657.478 70.86 657.548 70.93 657.548 71.07V77.79C657.548 77.93 657.478 78 657.338 78H656.568C656.428 78 656.358 77.93 656.358 77.79V75.62H653.978C653.24 75.62 652.68 75.4333 652.298 75.06C651.924 74.6867 651.738 74.15 651.738 73.45V71.07C651.738 70.93 651.808 70.86 651.948 70.86H652.718C652.858 70.86 652.928 70.93 652.928 71.07V73.45ZM660.984 74.92V77.79C660.984 77.93 660.914 78 660.774 78H660.004C659.864 78 659.794 77.93 659.794 77.79V71.07C659.794 70.93 659.864 70.86 660.004 70.86H660.774C660.914 70.86 660.984 70.93 660.984 71.07V73.87H664.554V71.07C664.554 70.93 664.624 70.86 664.764 70.86H665.534C665.674 70.86 665.744 70.93 665.744 71.07V77.79C665.744 77.93 665.674 78 665.534 78H664.764C664.624 78 664.554 77.93 664.554 77.79V74.92H660.984ZM672.883 72.89C672.883 72.5727 672.785 72.3207 672.589 72.134C672.403 71.938 672.151 71.84 671.833 71.84H670.083C669.766 71.84 669.509 71.938 669.313 72.134C669.127 72.3207 669.033 72.5727 669.033 72.89V75.97C669.033 76.2873 669.127 76.544 669.313 76.74C669.509 76.9267 669.766 77.02 670.083 77.02H671.833C672.151 77.02 672.403 76.9267 672.589 76.74C672.785 76.544 672.883 76.2873 672.883 75.97V72.89ZM674.073 75.97C674.073 76.67 673.882 77.2067 673.499 77.58C673.126 77.9533 672.571 78.14 671.833 78.14H670.083C669.346 78.14 668.786 77.9533 668.403 77.58C668.03 77.2067 667.843 76.67 667.843 75.97V72.89C667.843 72.19 668.03 71.6533 668.403 71.28C668.786 70.9067 669.346 70.72 670.083 70.72H671.833C672.571 70.72 673.126 70.9067 673.499 71.28C673.882 71.6533 674.073 72.19 674.073 72.89V75.97ZM678.833 69.74C678.301 69.74 677.899 69.6093 677.629 69.348C677.358 69.0773 677.223 68.6947 677.223 68.2V67.85C677.223 67.71 677.293 67.64 677.433 67.64H678.063C678.203 67.64 678.273 67.71 678.273 67.85V68.2C678.273 68.5733 678.459 68.76 678.833 68.76H679.603C679.976 68.76 680.163 68.5733 680.163 68.2V67.85C680.163 67.71 680.233 67.64 680.373 67.64H681.003C681.143 67.64 681.213 67.71 681.213 67.85V68.2C681.213 68.6947 681.077 69.0773 680.807 69.348C680.536 69.6093 680.135 69.74 679.603 69.74H678.833ZM682.053 70.86C682.193 70.86 682.263 70.93 682.263 71.07V77.79C682.263 77.93 682.193 78 682.053 78H681.283C681.143 78 681.073 77.93 681.073 77.79V72.68H681.003L677.643 77.79C677.596 77.8647 677.549 77.9207 677.503 77.958C677.456 77.986 677.363 78 677.223 78H676.383C676.243 78 676.173 77.93 676.173 77.79V71.07C676.173 70.93 676.243 70.86 676.383 70.86H677.153C677.293 70.86 677.363 70.93 677.363 71.07V76.18H677.433L680.793 71.07C680.839 70.9953 680.886 70.944 680.933 70.916C680.979 70.8787 681.073 70.86 681.213 70.86H682.053ZM692.202 72.89C692.202 72.5727 692.104 72.3207 691.908 72.134C691.721 71.938 691.469 71.84 691.152 71.84H689.402C689.084 71.84 688.828 71.938 688.632 72.134C688.445 72.3207 688.352 72.5727 688.352 72.89V75.97C688.352 76.2873 688.445 76.544 688.632 76.74C688.828 76.9267 689.084 77.02 689.402 77.02H691.152C691.469 77.02 691.721 76.9267 691.908 76.74C692.104 76.544 692.202 76.2873 692.202 75.97V72.89ZM693.392 75.97C693.392 76.67 693.2 77.2067 692.818 77.58C692.444 77.9533 691.889 78.14 691.152 78.14H689.402C688.664 78.14 688.104 77.9533 687.722 77.58C687.348 77.2067 687.162 76.67 687.162 75.97V72.89C687.162 72.19 687.348 71.6533 687.722 71.28C688.104 70.9067 688.664 70.72 689.402 70.72H691.152C691.889 70.72 692.444 70.9067 692.818 71.28C693.2 71.6533 693.392 72.19 693.392 72.89V75.97ZM699.061 70.86V68.41C699.061 68.27 699.131 68.2 699.271 68.2H700.041C700.181 68.2 700.251 68.27 700.251 68.41V70.86H701.721C702.458 70.86 703.014 71.0467 703.387 71.42C703.77 71.7933 703.961 72.33 703.961 73.03V75.83C703.961 76.53 703.77 77.0667 703.387 77.44C703.014 77.8133 702.458 78 701.721 78H700.251V80.45C700.251 80.59 700.181 80.66 700.041 80.66H699.271C699.131 80.66 699.061 80.59 699.061 80.45V78H697.591C696.854 78 696.294 77.8133 695.911 77.44C695.538 77.0667 695.351 76.53 695.351 75.83V73.03C695.351 72.33 695.538 71.7933 695.911 71.42C696.294 71.0467 696.854 70.86 697.591 70.86H699.061ZM697.591 71.98C697.274 71.98 697.017 72.078 696.821 72.274C696.634 72.4607 696.541 72.7127 696.541 73.03V75.83C696.541 76.1473 696.634 76.404 696.821 76.6C697.017 76.7867 697.274 76.88 697.591 76.88H699.061V71.98H697.591ZM701.721 76.88C702.038 76.88 702.29 76.7867 702.477 76.6C702.673 76.404 702.771 76.1473 702.771 75.83V73.03C702.771 72.7127 702.673 72.4607 702.477 72.274C702.29 72.078 702.038 71.98 701.721 71.98H700.251V76.88H701.721ZM710.889 73.8V72.89C710.889 72.5727 710.791 72.3207 710.595 72.134C710.409 71.938 710.157 71.84 709.839 71.84H708.159C707.842 71.84 707.585 71.938 707.389 72.134C707.203 72.3207 707.109 72.5727 707.109 72.89V73.8H710.889ZM707.109 74.92V75.97C707.109 76.2873 707.203 76.544 707.389 76.74C707.585 76.9267 707.842 77.02 708.159 77.02H709.839C710.157 77.02 710.409 76.9267 710.595 76.74C710.791 76.544 710.889 76.2873 710.889 75.97V75.9C710.889 75.76 710.959 75.69 711.099 75.69H711.869C712.009 75.69 712.079 75.76 712.079 75.9V75.97C712.079 76.67 711.888 77.2067 711.505 77.58C711.132 77.9533 710.577 78.14 709.839 78.14H708.159C707.422 78.14 706.862 77.9533 706.479 77.58C706.106 77.2067 705.919 76.67 705.919 75.97V72.89C705.919 72.19 706.106 71.6533 706.479 71.28C706.862 70.9067 707.422 70.72 708.159 70.72H709.839C710.577 70.72 711.132 70.9067 711.505 71.28C711.888 71.6533 712.079 72.19 712.079 72.89V74.71C712.079 74.85 712.009 74.92 711.869 74.92H707.109ZM718.031 76.88C718.348 76.88 718.6 76.7867 718.787 76.6C718.983 76.404 719.081 76.1473 719.081 75.83V72.89C719.081 72.5727 718.983 72.3207 718.787 72.134C718.6 71.938 718.348 71.84 718.031 71.84H716.841C716.421 71.84 716.071 71.98 715.791 72.26C715.511 72.54 715.371 72.89 715.371 73.31V76.88H718.031ZM715.371 78V80.45C715.371 80.59 715.301 80.66 715.161 80.66H714.391C714.251 80.66 714.181 80.59 714.181 80.45V71.07C714.181 70.93 714.251 70.86 714.391 70.86H715.161C715.301 70.86 715.371 70.93 715.371 71.07V71.56H715.441C715.515 71.4013 715.623 71.2613 715.763 71.14C715.884 71.0373 716.043 70.944 716.239 70.86C716.435 70.7667 716.682 70.72 716.981 70.72H718.031C718.768 70.72 719.323 70.9067 719.697 71.28C720.079 71.6533 720.271 72.19 720.271 72.89V75.83C720.271 76.53 720.079 77.0667 719.697 77.44C719.323 77.8133 718.768 78 718.031 78H715.371ZM723.98 78C723.84 78 723.77 77.93 723.77 77.79V71.98H721.6C721.46 71.98 721.39 71.91 721.39 71.77V71.07C721.39 70.93 721.46 70.86 721.6 70.86H727.13C727.27 70.86 727.34 70.93 727.34 71.07V71.77C727.34 71.91 727.27 71.98 727.13 71.98H724.96V77.79C724.96 77.93 724.89 78 724.75 78H723.98ZM733.504 72.89C733.504 72.5727 733.406 72.3207 733.21 72.134C733.024 71.938 732.772 71.84 732.454 71.84H730.704C730.387 71.84 730.13 71.938 729.934 72.134C729.748 72.3207 729.654 72.5727 729.654 72.89V75.97C729.654 76.2873 729.748 76.544 729.934 76.74C730.13 76.9267 730.387 77.02 730.704 77.02H732.454C732.772 77.02 733.024 76.9267 733.21 76.74C733.406 76.544 733.504 76.2873 733.504 75.97V72.89ZM734.694 75.97C734.694 76.67 734.503 77.2067 734.12 77.58C733.747 77.9533 733.192 78.14 732.454 78.14H730.704C729.967 78.14 729.407 77.9533 729.024 77.58C728.651 77.2067 728.464 76.67 728.464 75.97V72.89C728.464 72.19 728.651 71.6533 729.024 71.28C729.407 70.9067 729.967 70.72 730.704 70.72H732.454C733.192 70.72 733.747 70.9067 734.12 71.28C734.503 71.6533 734.694 72.19 734.694 72.89V75.97ZM739.454 69.74C738.922 69.74 738.52 69.6093 738.25 69.348C737.979 69.0773 737.844 68.6947 737.844 68.2V67.85C737.844 67.71 737.914 67.64 738.054 67.64H738.684C738.824 67.64 738.894 67.71 738.894 67.85V68.2C738.894 68.5733 739.08 68.76 739.454 68.76H740.224C740.597 68.76 740.784 68.5733 740.784 68.2V67.85C740.784 67.71 740.854 67.64 740.994 67.64H741.624C741.764 67.64 741.834 67.71 741.834 67.85V68.2C741.834 68.6947 741.698 69.0773 741.428 69.348C741.157 69.6093 740.756 69.74 740.224 69.74H739.454ZM742.674 70.86C742.814 70.86 742.884 70.93 742.884 71.07V77.79C742.884 77.93 742.814 78 742.674 78H741.904C741.764 78 741.694 77.93 741.694 77.79V72.68H741.624L738.264 77.79C738.217 77.8647 738.17 77.9207 738.124 77.958C738.077 77.986 737.984 78 737.844 78H737.004C736.864 78 736.794 77.93 736.794 77.79V71.07C736.794 70.93 736.864 70.86 737.004 70.86H737.774C737.914 70.86 737.984 70.93 737.984 71.07V76.18H738.054L741.414 71.07C741.46 70.9953 741.507 70.944 741.554 70.916C741.6 70.8787 741.694 70.86 741.834 70.86H742.674Z" fill="#7E7E82"/>
<path opacity="0.721842" d="M286.506 36.2C286.646 36.2 286.716 36.27 286.716 36.41V45.79C286.716 45.93 286.646 46 286.506 46H285.596C285.456 46 285.386 45.93 285.386 45.79V37.46H280.206V45.79C280.206 45.93 280.136 46 279.996 46H279.086C278.946 46 278.876 45.93 278.876 45.79V36.41C278.876 36.27 278.946 36.2 279.086 36.2H286.506ZM294.132 40.89C294.132 40.5727 294.034 40.3207 293.838 40.134C293.652 39.938 293.4 39.84 293.082 39.84H291.332C291.015 39.84 290.758 39.938 290.562 40.134C290.376 40.3207 290.282 40.5727 290.282 40.89V43.97C290.282 44.2873 290.376 44.544 290.562 44.74C290.758 44.9267 291.015 45.02 291.332 45.02H293.082C293.4 45.02 293.652 44.9267 293.838 44.74C294.034 44.544 294.132 44.2873 294.132 43.97V40.89ZM295.322 43.97C295.322 44.67 295.131 45.2067 294.748 45.58C294.375 45.9533 293.82 46.14 293.082 46.14H291.332C290.595 46.14 290.035 45.9533 289.652 45.58C289.279 45.2067 289.092 44.67 289.092 43.97V40.89C289.092 40.19 289.279 39.6533 289.652 39.28C290.035 38.9067 290.595 38.72 291.332 38.72H293.082C293.82 38.72 294.375 38.9067 294.748 39.28C295.131 39.6533 295.322 40.19 295.322 40.89V43.97ZM298.755 44.11C298.615 44.81 298.377 45.3233 298.041 45.65C297.705 45.9767 297.22 46.14 296.585 46.14H296.375C296.235 46.14 296.165 46.07 296.165 45.93V45.23C296.165 45.09 296.235 45.02 296.375 45.02H296.585C296.828 45.02 297.033 44.9407 297.201 44.782C297.378 44.6233 297.5 44.3993 297.565 44.11L298.615 39.07C298.643 38.93 298.76 38.86 298.965 38.86H302.885C303.025 38.86 303.095 38.93 303.095 39.07V45.79C303.095 45.93 303.025 46 302.885 46H302.115C301.975 46 301.905 45.93 301.905 45.79V39.98H299.595L298.755 44.11ZM311.218 38.86C311.358 38.86 311.428 38.93 311.428 39.07V45.79C311.428 45.93 311.358 46 311.218 46H310.448C310.308 46 310.238 45.93 310.238 45.79V40.68H310.168L306.808 45.79C306.761 45.8647 306.714 45.9207 306.668 45.958C306.621 45.986 306.528 46 306.388 46H305.548C305.408 46 305.338 45.93 305.338 45.79V39.07C305.338 38.93 305.408 38.86 305.548 38.86H306.318C306.458 38.86 306.528 38.93 306.528 39.07V44.18H306.598L309.958 39.07C310.004 38.9953 310.051 38.944 310.098 38.916C310.144 38.8787 310.238 38.86 310.378 38.86H311.218ZM315.274 46C315.134 46 315.064 45.93 315.064 45.79V39.98H312.894C312.754 39.98 312.684 39.91 312.684 39.77V39.07C312.684 38.93 312.754 38.86 312.894 38.86H318.424C318.564 38.86 318.634 38.93 318.634 39.07V39.77C318.634 39.91 318.564 39.98 318.424 39.98H316.254V45.79C316.254 45.93 316.184 46 316.044 46H315.274ZM325.778 38.86C325.918 38.86 325.988 38.93 325.988 39.07V45.79C325.988 45.93 325.918 46 325.778 46H325.008C324.868 46 324.798 45.93 324.798 45.79V40.68H324.728L321.368 45.79C321.322 45.8647 321.275 45.9207 321.228 45.958C321.182 45.986 321.088 46 320.948 46H320.108C319.968 46 319.898 45.93 319.898 45.79V39.07C319.898 38.93 319.968 38.86 320.108 38.86H320.878C321.018 38.86 321.088 38.93 321.088 39.07V44.18H321.158L324.518 39.07C324.565 38.9953 324.612 38.944 324.658 38.916C324.705 38.8787 324.798 38.86 324.938 38.86H325.778ZM331.164 42.78H329.414V45.79C329.414 45.93 329.344 46 329.204 46H328.434C328.294 46 328.224 45.93 328.224 45.79V39.07C328.224 38.93 328.294 38.86 328.434 38.86H329.204C329.344 38.86 329.414 38.93 329.414 39.07V41.66H331.164L332.564 39.07C332.602 38.9953 332.644 38.944 332.69 38.916C332.737 38.8787 332.812 38.86 332.914 38.86H333.754C333.913 38.86 333.96 38.93 333.894 39.07L332.144 42.22L334.104 45.79C334.17 45.93 334.123 46 333.964 46H333.124C333.022 46 332.947 45.986 332.9 45.958C332.854 45.9207 332.812 45.8647 332.774 45.79L331.164 42.78ZM335.122 43.83C335.122 42.4767 335.822 41.8 337.222 41.8H339.812V40.89C339.812 40.5727 339.714 40.3207 339.518 40.134C339.332 39.938 339.08 39.84 338.762 39.84H337.782C337.465 39.84 337.208 39.938 337.012 40.134C336.826 40.3207 336.732 40.5727 336.732 40.89C336.732 41.03 336.662 41.1 336.522 41.1H335.752C335.612 41.1 335.542 41.03 335.542 40.89C335.542 40.19 335.729 39.6533 336.102 39.28C336.485 38.9067 337.045 38.72 337.782 38.72H338.762C339.5 38.72 340.055 38.9067 340.428 39.28C340.811 39.6533 341.002 40.19 341.002 40.89V45.79C341.002 45.93 340.932 46 340.792 46H340.022C339.882 46 339.812 45.93 339.812 45.79V45.3H339.742C339.668 45.4587 339.56 45.5987 339.42 45.72C339.299 45.8227 339.14 45.916 338.944 46C338.748 46.0933 338.501 46.14 338.202 46.14H337.222C335.822 46.14 335.122 45.4633 335.122 44.11V43.83ZM336.312 44.11C336.312 44.39 336.392 44.614 336.55 44.782C336.718 44.9407 336.942 45.02 337.222 45.02H338.342C338.762 45.02 339.112 44.88 339.392 44.6C339.672 44.32 339.812 43.97 339.812 43.55V42.92H337.222C336.942 42.92 336.718 43.004 336.55 43.172C336.392 43.3307 336.312 43.55 336.312 43.83V44.11ZM348.979 42.78H347.229V45.79C347.229 45.93 347.159 46 347.019 46H346.249C346.109 46 346.039 45.93 346.039 45.79V39.07C346.039 38.93 346.109 38.86 346.249 38.86H347.019C347.159 38.86 347.229 38.93 347.229 39.07V41.66H348.979L350.379 39.07C350.416 38.9953 350.458 38.944 350.505 38.916C350.552 38.8787 350.626 38.86 350.729 38.86H351.569C351.728 38.86 351.774 38.93 351.709 39.07L349.959 42.22L351.919 45.79C351.984 45.93 351.938 46 351.779 46H350.939C350.836 46 350.762 45.986 350.715 45.958C350.668 45.9207 350.626 45.8647 350.589 45.79L348.979 42.78ZM358.117 40.89C358.117 40.5727 358.019 40.3207 357.823 40.134C357.636 39.938 357.384 39.84 357.067 39.84H355.317C354.999 39.84 354.743 39.938 354.547 40.134C354.36 40.3207 354.267 40.5727 354.267 40.89V43.97C354.267 44.2873 354.36 44.544 354.547 44.74C354.743 44.9267 354.999 45.02 355.317 45.02H357.067C357.384 45.02 357.636 44.9267 357.823 44.74C358.019 44.544 358.117 44.2873 358.117 43.97V40.89ZM359.307 43.97C359.307 44.67 359.115 45.2067 358.733 45.58C358.359 45.9533 357.804 46.14 357.067 46.14H355.317C354.579 46.14 354.019 45.9533 353.637 45.58C353.263 45.2067 353.077 44.67 353.077 43.97V40.89C353.077 40.19 353.263 39.6533 353.637 39.28C354.019 38.9067 354.579 38.72 355.317 38.72H357.067C357.804 38.72 358.359 38.9067 358.733 39.28C359.115 39.6533 359.307 40.19 359.307 40.89V43.97ZM362.596 42.92V45.79C362.596 45.93 362.526 46 362.386 46H361.616C361.476 46 361.406 45.93 361.406 45.79V39.07C361.406 38.93 361.476 38.86 361.616 38.86H362.386C362.526 38.86 362.596 38.93 362.596 39.07V41.87H366.166V39.07C366.166 38.93 366.236 38.86 366.376 38.86H367.146C367.286 38.86 367.356 38.93 367.356 39.07V45.79C367.356 45.93 367.286 46 367.146 46H366.376C366.236 46 366.166 45.93 366.166 45.79V42.92H362.596ZM373.166 38.86V36.41C373.166 36.27 373.236 36.2 373.376 36.2H374.146C374.286 36.2 374.356 36.27 374.356 36.41V38.86H375.826C376.563 38.86 377.118 39.0467 377.492 39.42C377.874 39.7933 378.066 40.33 378.066 41.03V43.83C378.066 44.53 377.874 45.0667 377.492 45.44C377.118 45.8133 376.563 46 375.826 46H374.356V48.45C374.356 48.59 374.286 48.66 374.146 48.66H373.376C373.236 48.66 373.166 48.59 373.166 48.45V46H371.696C370.958 46 370.398 45.8133 370.016 45.44C369.642 45.0667 369.456 44.53 369.456 43.83V41.03C369.456 40.33 369.642 39.7933 370.016 39.42C370.398 39.0467 370.958 38.86 371.696 38.86H373.166ZM371.696 39.98C371.378 39.98 371.122 40.078 370.926 40.274C370.739 40.4607 370.646 40.7127 370.646 41.03V43.83C370.646 44.1473 370.739 44.404 370.926 44.6C371.122 44.7867 371.378 44.88 371.696 44.88H373.166V39.98H371.696ZM375.826 44.88C376.143 44.88 376.395 44.7867 376.582 44.6C376.778 44.404 376.876 44.1473 376.876 43.83V41.03C376.876 40.7127 376.778 40.4607 376.582 40.274C376.395 40.078 376.143 39.98 375.826 39.98H374.356V44.88H375.826ZM386.044 38.86C386.184 38.86 386.254 38.93 386.254 39.07V45.79C386.254 45.93 386.184 46 386.044 46H385.274C385.134 46 385.064 45.93 385.064 45.79V40.68H384.994L381.634 45.79C381.587 45.8647 381.541 45.9207 381.494 45.958C381.447 45.986 381.354 46 381.214 46H380.374C380.234 46 380.164 45.93 380.164 45.79V39.07C380.164 38.93 380.234 38.86 380.374 38.86H381.144C381.284 38.86 381.354 38.93 381.354 39.07V44.18H381.424L384.784 39.07C384.831 38.9953 384.877 38.944 384.924 38.916C384.971 38.8787 385.064 38.86 385.204 38.86H386.044ZM392.69 39.98H390.38L389.4 44.88H392.69V39.98ZM393.88 44.88H394.58C394.72 44.88 394.79 44.95 394.79 45.09V47.33C394.79 47.47 394.72 47.54 394.58 47.54H393.81C393.67 47.54 393.6 47.47 393.6 47.33V46H388.56V47.33C388.56 47.47 388.49 47.54 388.35 47.54H387.58C387.44 47.54 387.37 47.47 387.37 47.33V45.09C387.37 44.95 387.44 44.88 387.58 44.88H388.21L389.4 39.07C389.428 38.93 389.545 38.86 389.75 38.86H393.67C393.81 38.86 393.88 38.93 393.88 39.07V44.88ZM401.154 41.8V40.89C401.154 40.5727 401.056 40.3207 400.86 40.134C400.673 39.938 400.421 39.84 400.104 39.84H398.424C398.107 39.84 397.85 39.938 397.654 40.134C397.467 40.3207 397.374 40.5727 397.374 40.89V41.8H401.154ZM397.374 42.92V43.97C397.374 44.2873 397.467 44.544 397.654 44.74C397.85 44.9267 398.107 45.02 398.424 45.02H400.104C400.421 45.02 400.673 44.9267 400.86 44.74C401.056 44.544 401.154 44.2873 401.154 43.97V43.9C401.154 43.76 401.224 43.69 401.364 43.69H402.134C402.274 43.69 402.344 43.76 402.344 43.9V43.97C402.344 44.67 402.153 45.2067 401.77 45.58C401.397 45.9533 400.841 46.14 400.104 46.14H398.424C397.687 46.14 397.127 45.9533 396.744 45.58C396.371 45.2067 396.184 44.67 396.184 43.97V40.89C396.184 40.19 396.371 39.6533 396.744 39.28C397.127 38.9067 397.687 38.72 398.424 38.72H400.104C400.841 38.72 401.397 38.9067 401.77 39.28C402.153 39.6533 402.344 40.19 402.344 40.89V42.71C402.344 42.85 402.274 42.92 402.134 42.92H397.374ZM405.635 42.92V45.79C405.635 45.93 405.565 46 405.425 46H404.655C404.515 46 404.445 45.93 404.445 45.79V39.07C404.445 38.93 404.515 38.86 404.655 38.86H405.425C405.565 38.86 405.635 38.93 405.635 39.07V41.87H409.205V39.07C409.205 38.93 409.275 38.86 409.415 38.86H410.185C410.325 38.86 410.395 38.93 410.395 39.07V45.79C410.395 45.93 410.325 46 410.185 46H409.415C409.275 46 409.205 45.93 409.205 45.79V42.92H405.635ZM412.845 46C412.705 46 412.635 45.93 412.635 45.79V39.07C412.635 38.93 412.705 38.86 412.845 38.86H413.615C413.755 38.86 413.825 38.93 413.825 39.07V44.88H417.255V39.07C417.255 38.93 417.325 38.86 417.465 38.86H418.235C418.375 38.86 418.445 38.93 418.445 39.07V45.09L419.705 46.49C419.742 46.5273 419.761 46.574 419.761 46.63C419.761 46.686 419.742 46.7327 419.705 46.77L419.075 47.33C418.972 47.414 418.879 47.414 418.795 47.33L417.605 46H412.845ZM426.759 38.86C426.899 38.86 426.969 38.93 426.969 39.07V45.79C426.969 45.93 426.899 46 426.759 46H425.989C425.849 46 425.779 45.93 425.779 45.79V40.68H425.709L422.349 45.79C422.302 45.8647 422.255 45.9207 422.209 45.958C422.162 45.986 422.069 46 421.929 46H421.089C420.949 46 420.879 45.93 420.879 45.79V39.07C420.879 38.93 420.949 38.86 421.089 38.86H421.859C421.999 38.86 422.069 38.93 422.069 39.07V44.18H422.139L425.499 39.07C425.545 38.9953 425.592 38.944 425.639 38.916C425.685 38.8787 425.779 38.86 425.919 38.86H426.759ZM428.925 43.83C428.925 42.4767 429.625 41.8 431.025 41.8H433.615V40.89C433.615 40.5727 433.517 40.3207 433.321 40.134C433.134 39.938 432.882 39.84 432.565 39.84H431.585C431.268 39.84 431.011 39.938 430.815 40.134C430.628 40.3207 430.535 40.5727 430.535 40.89C430.535 41.03 430.465 41.1 430.325 41.1H429.555C429.415 41.1 429.345 41.03 429.345 40.89C429.345 40.19 429.532 39.6533 429.905 39.28C430.288 38.9067 430.848 38.72 431.585 38.72H432.565C433.302 38.72 433.858 38.9067 434.231 39.28C434.614 39.6533 434.805 40.19 434.805 40.89V45.79C434.805 45.93 434.735 46 434.595 46H433.825C433.685 46 433.615 45.93 433.615 45.79V45.3H433.545C433.47 45.4587 433.363 45.5987 433.223 45.72C433.102 45.8227 432.943 45.916 432.747 46C432.551 46.0933 432.304 46.14 432.005 46.14H431.025C429.625 46.14 428.925 45.4633 428.925 44.11V43.83ZM430.115 44.11C430.115 44.39 430.194 44.614 430.353 44.782C430.521 44.9407 430.745 45.02 431.025 45.02H432.145C432.565 45.02 432.915 44.88 433.195 44.6C433.475 44.32 433.615 43.97 433.615 43.55V42.92H431.025C430.745 42.92 430.521 43.004 430.353 43.172C430.194 43.3307 430.115 43.55 430.115 43.83V44.11ZM438.509 44.11C438.369 44.81 438.131 45.3233 437.795 45.65C437.459 45.9767 436.974 46.14 436.339 46.14H436.129C435.989 46.14 435.919 46.07 435.919 45.93V45.23C435.919 45.09 435.989 45.02 436.129 45.02H436.339C436.582 45.02 436.787 44.9407 436.955 44.782C437.132 44.6233 437.254 44.3993 437.319 44.11L438.369 39.07C438.397 38.93 438.514 38.86 438.719 38.86H442.639C442.779 38.86 442.849 38.93 442.849 39.07V45.79C442.849 45.93 442.779 46 442.639 46H441.869C441.729 46 441.659 45.93 441.659 45.79V39.98H439.349L438.509 44.11ZM448.732 44.88C449.012 44.88 449.231 44.8007 449.39 44.642C449.558 44.474 449.642 44.25 449.642 43.97V43.27C449.642 42.99 449.558 42.7707 449.39 42.612C449.231 42.444 449.012 42.36 448.732 42.36H446.282V44.88H448.732ZM445.302 46C445.162 46 445.092 45.93 445.092 45.79V39.07C445.092 38.93 445.162 38.86 445.302 38.86H446.072C446.212 38.86 446.282 38.93 446.282 39.07V41.24H448.732C450.132 41.24 450.832 41.9167 450.832 43.27V43.97C450.832 45.3233 450.132 46 448.732 46H445.302ZM453.979 42.92V45.79C453.979 45.93 453.909 46 453.769 46H452.999C452.859 46 452.789 45.93 452.789 45.79V39.07C452.789 38.93 452.859 38.86 452.999 38.86H453.769C453.909 38.86 453.979 38.93 453.979 39.07V41.87H457.549V39.07C457.549 38.93 457.619 38.86 457.759 38.86H458.529C458.669 38.86 458.739 38.93 458.739 39.07V45.79C458.739 45.93 458.669 46 458.529 46H457.759C457.619 46 457.549 45.93 457.549 45.79V42.92H453.979ZM465.878 40.89C465.878 40.5727 465.78 40.3207 465.584 40.134C465.398 39.938 465.146 39.84 464.828 39.84H463.078C462.761 39.84 462.504 39.938 462.308 40.134C462.122 40.3207 462.028 40.5727 462.028 40.89V43.97C462.028 44.2873 462.122 44.544 462.308 44.74C462.504 44.9267 462.761 45.02 463.078 45.02H464.828C465.146 45.02 465.398 44.9267 465.584 44.74C465.78 44.544 465.878 44.2873 465.878 43.97V40.89ZM467.068 43.97C467.068 44.67 466.877 45.2067 466.494 45.58C466.121 45.9533 465.566 46.14 464.828 46.14H463.078C462.341 46.14 461.781 45.9533 461.398 45.58C461.025 45.2067 460.838 44.67 460.838 43.97V40.89C460.838 40.19 461.025 39.6533 461.398 39.28C461.781 38.9067 462.341 38.72 463.078 38.72H464.828C465.566 38.72 466.121 38.9067 466.494 39.28C466.877 39.6533 467.068 40.19 467.068 40.89V43.97ZM470.218 43.97C470.218 44.2873 470.311 44.544 470.498 44.74C470.694 44.9267 470.951 45.02 471.268 45.02H472.878C473.195 45.02 473.447 44.9267 473.634 44.74C473.83 44.544 473.928 44.2873 473.928 43.97V43.62C473.928 43.48 473.998 43.41 474.138 43.41H474.908C475.048 43.41 475.118 43.48 475.118 43.62V43.97C475.118 44.67 474.927 45.2067 474.544 45.58C474.171 45.9533 473.615 46.14 472.878 46.14H471.268C470.531 46.14 469.971 45.9533 469.588 45.58C469.215 45.2067 469.028 44.67 469.028 43.97V40.89C469.028 40.19 469.215 39.6533 469.588 39.28C469.971 38.9067 470.531 38.72 471.268 38.72H472.878C473.615 38.72 474.171 38.9067 474.544 39.28C474.927 39.6533 475.118 40.19 475.118 40.89V41.24C475.118 41.38 475.048 41.45 474.908 41.45H474.138C473.998 41.45 473.928 41.38 473.928 41.24V40.89C473.928 40.5727 473.83 40.3207 473.634 40.134C473.447 39.938 473.195 39.84 472.878 39.84H471.268C470.951 39.84 470.694 39.938 470.498 40.134C470.311 40.3207 470.218 40.5727 470.218 40.89V43.97ZM478.694 46C478.554 46 478.484 45.93 478.484 45.79V39.98H476.314C476.174 39.98 476.104 39.91 476.104 39.77V39.07C476.104 38.93 476.174 38.86 476.314 38.86H481.844C481.984 38.86 482.054 38.93 482.054 39.07V39.77C482.054 39.91 481.984 39.98 481.844 39.98H479.674V45.79C479.674 45.93 479.604 46 479.464 46H478.694ZM489.198 38.86C489.338 38.86 489.408 38.93 489.408 39.07V45.79C489.408 45.93 489.338 46 489.198 46H488.428C488.288 46 488.218 45.93 488.218 45.79V40.68H488.148L484.788 45.79C484.742 45.8647 484.695 45.9207 484.648 45.958C484.602 45.986 484.508 46 484.368 46H483.528C483.388 46 483.318 45.93 483.318 45.79V39.07C483.318 38.93 483.388 38.86 483.528 38.86H484.298C484.438 38.86 484.508 38.93 484.508 39.07V44.18H484.578L487.938 39.07C487.985 38.9953 488.032 38.944 488.078 38.916C488.125 38.8787 488.218 38.86 488.358 38.86H489.198Z" fill="#7E7E82"/>
</svg>
