<svg width="216" height="29" viewBox="0 0 216 29" fill="none" xmlns="http://www.w3.org/2000/svg">
<path opacity="0.721842" d="M0.26 2.65C0.26 1.01667 1.1 0.199999 2.78 0.199999H7.68C9.36 0.199999 10.2 1.01667 10.2 2.65V7.55C10.2 9.18333 9.36 10 7.68 10H2.78C1.1 10 0.26 9.18333 0.26 7.55V2.65ZM8.87 2.65C8.87 1.85667 8.47333 1.46 7.68 1.46H2.78C1.98667 1.46 1.59 1.85667 1.59 2.65V7.55C1.59 8.34333 1.98667 8.74 2.78 8.74H7.68C8.47333 8.74 8.87 8.34333 8.87 7.55V2.65ZM4.25 6.08C4.25 6.31333 4.36667 6.43 4.6 6.43H5.86C6.09333 6.43 6.21 6.31333 6.21 6.08V5.87C6.21 5.77667 6.25667 5.73 6.35 5.73H7.12C7.21333 5.73 7.26 5.77667 7.26 5.87V6.08C7.26 7.01333 6.79333 7.48 5.86 7.48H4.6C3.66667 7.48 3.2 7.01333 3.2 6.08V4.12C3.2 3.18667 3.66667 2.72 4.6 2.72H5.86C6.79333 2.72 7.26 3.18667 7.26 4.12V4.33C7.26 4.42333 7.21333 4.47 7.12 4.47H6.35C6.25667 4.47 6.21 4.42333 6.21 4.33V4.12C6.21 3.88667 6.09333 3.77 5.86 3.77H4.6C4.36667 3.77 4.25 3.88667 4.25 4.12V6.08ZM22.3778 3.14C22.3778 3.38267 22.3451 3.602 22.2798 3.798C22.2145 3.994 22.1305 4.17133 22.0278 4.33C21.9345 4.48867 21.8225 4.63333 21.6918 4.764C21.5705 4.88533 21.4491 4.99733 21.3278 5.1L17.1978 8.67V8.74H22.1678C22.3078 8.74 22.3778 8.81 22.3778 8.95V9.79C22.3778 9.93 22.3078 10 22.1678 10H15.4478C15.3078 10 15.2378 9.93 15.2378 9.79V9.02C15.2378 8.91733 15.2518 8.838 15.2798 8.782C15.3171 8.726 15.3731 8.66533 15.4478 8.6L20.4178 4.26C20.6231 4.08267 20.7771 3.924 20.8798 3.784C20.9918 3.63467 21.0478 3.42 21.0478 3.14V2.51C21.0478 1.71667 20.6511 1.32 19.8578 1.32H17.7578C16.9645 1.32 16.5678 1.71667 16.5678 2.51V3.07C16.5678 3.21 16.4978 3.28 16.3578 3.28H15.4478C15.3078 3.28 15.2378 3.21 15.2378 3.07V2.51C15.2378 0.876666 16.0778 0.0599995 17.7578 0.0599995H19.8578C21.5378 0.0599995 22.3778 0.876666 22.3778 2.51V3.14ZM32.6 7.69C32.6 9.32333 31.76 10.14 30.08 10.14H27.28C25.6 10.14 24.76 9.32333 24.76 7.69V2.51C24.76 0.876666 25.6 0.0599995 27.28 0.0599995H30.08C31.76 0.0599995 32.6 0.876666 32.6 2.51V7.69ZM26.09 7.69C26.09 8.48333 26.4867 8.88 27.28 8.88H30.08C30.8733 8.88 31.27 8.48333 31.27 7.69V2.51C31.27 1.71667 30.8733 1.32 30.08 1.32H27.28C26.4867 1.32 26.09 1.71667 26.09 2.51V7.69ZM37.7133 9.79C37.7133 9.93 37.6433 10 37.5033 10H36.5933C36.4533 10 36.3833 9.93 36.3833 9.79V1.46H34.3533C34.2133 1.46 34.1433 1.39 34.1433 1.25V0.409999C34.1433 0.269999 34.2133 0.199999 34.3533 0.199999H37.5033C37.6433 0.199999 37.7133 0.269999 37.7133 0.409999V9.79ZM46.1833 4.82V2.51C46.1833 1.71667 45.7866 1.32 44.9933 1.32H42.7533C41.9599 1.32 41.5633 1.72133 41.5633 2.524V3.616C41.5633 4.41867 41.9599 4.82 42.7533 4.82H46.1833ZM46.1833 6.08H42.7533C41.0733 6.08 40.2333 5.26333 40.2333 3.63V2.51C40.2333 0.876666 41.0733 0.0599995 42.7533 0.0599995H44.9933C46.6733 0.0599995 47.5133 0.876666 47.5133 2.51V7.69C47.5133 9.32333 46.6733 10.14 44.9933 10.14H43.0333C41.3533 10.14 40.5133 9.32333 40.5133 7.69V7.27C40.5133 7.13 40.5833 7.06 40.7233 7.06H41.6333C41.7733 7.06 41.8433 7.13 41.8433 7.27V7.69C41.8433 8.48333 42.2399 8.88 43.0333 8.88H44.9933C45.7866 8.88 46.1833 8.48333 46.1833 7.69V6.08ZM52.842 2.51C52.842 0.876666 53.682 0.0599995 55.362 0.0599995H58.582C60.262 0.0599995 61.102 0.876666 61.102 2.51V3.07C61.102 3.21 61.032 3.28 60.892 3.28H59.982C59.842 3.28 59.772 3.21 59.772 3.07V2.51C59.772 1.71667 59.3754 1.32 58.582 1.32H55.362C54.5687 1.32 54.172 1.71667 54.172 2.51V7.69C54.172 8.48333 54.5687 8.88 55.362 8.88H58.582C59.3754 8.88 59.772 8.48333 59.772 7.69V7.13C59.772 6.99 59.842 6.92 59.982 6.92H60.892C61.032 6.92 61.102 6.99 61.102 7.13V7.69C61.102 9.32333 60.262 10.14 58.582 10.14H55.362C53.682 10.14 52.842 9.32333 52.842 7.69V2.51ZM68.802 5.66C69.5954 5.66 69.992 5.26333 69.992 4.47V2.65C69.992 1.85667 69.5954 1.46 68.802 1.46H64.812V5.66H68.802ZM64.812 6.92V9.79C64.812 9.93 64.742 10 64.602 10H63.692C63.552 10 63.482 9.93 63.482 9.79V0.409999C63.482 0.269999 63.552 0.199999 63.692 0.199999H68.802C70.482 0.199999 71.322 1.01667 71.322 2.65V4.47C71.322 6.10333 70.482 6.92 68.802 6.92H64.812ZM79.7986 7.06C79.7986 6.81733 79.7286 6.626 79.5886 6.486C79.4579 6.33667 79.2713 6.22467 79.0286 6.15L74.8286 4.82C74.4086 4.68933 74.0679 4.47933 73.8066 4.19C73.5546 3.89133 73.4286 3.49467 73.4286 3V2.51C73.4286 0.876666 74.2686 0.0599995 75.9486 0.0599995H78.4686C80.1486 0.0599995 80.9886 0.876666 80.9886 2.51V3.07C80.9886 3.21 80.9186 3.28 80.7786 3.28H79.8686C79.7286 3.28 79.6586 3.21 79.6586 3.07V2.51C79.6586 1.71667 79.2619 1.32 78.4686 1.32H75.9486C75.1553 1.32 74.7586 1.71667 74.7586 2.51V2.86C74.7586 3.10267 74.8239 3.29867 74.9546 3.448C75.0946 3.588 75.2859 3.69533 75.5286 3.77L79.7286 5.1C80.1486 5.23067 80.4846 5.44533 80.7366 5.744C80.9979 6.03333 81.1286 6.42533 81.1286 6.92V7.69C81.1286 9.32333 80.2886 10.14 78.6086 10.14H75.8086C74.1286 10.14 73.2886 9.32333 73.2886 7.69V7.13C73.2886 6.99 73.3586 6.92 73.4986 6.92H74.4086C74.5486 6.92 74.6186 6.99 74.6186 7.13V7.69C74.6186 8.48333 75.0153 8.88 75.8086 8.88H78.6086C79.4019 8.88 79.7986 8.48333 79.7986 7.69V7.06ZM5.72 21.66C6.51333 21.66 6.91 21.2633 6.91 20.47V18.65C6.91 17.8567 6.51333 17.46 5.72 17.46H1.73V21.66H5.72ZM1.73 22.92V25.79C1.73 25.93 1.66 26 1.52 26H0.61C0.47 26 0.4 25.93 0.4 25.79V16.41C0.4 16.27 0.47 16.2 0.61 16.2H5.72C7.4 16.2 8.24 17.0167 8.24 18.65V20.47C8.24 22.1033 7.4 22.92 5.72 22.92H1.73ZM9.79313 23.83C9.79313 22.4767 10.4931 21.8 11.8931 21.8H14.4831V20.89C14.4831 20.5727 14.3851 20.3207 14.1891 20.134C14.0025 19.938 13.7505 19.84 13.4331 19.84H12.4531C12.1358 19.84 11.8791 19.938 11.6831 20.134C11.4965 20.3207 11.4031 20.5727 11.4031 20.89C11.4031 21.03 11.3331 21.1 11.1931 21.1H10.4231C10.2831 21.1 10.2131 21.03 10.2131 20.89C10.2131 20.19 10.3998 19.6533 10.7731 19.28C11.1558 18.9067 11.7158 18.72 12.4531 18.72H13.4331C14.1705 18.72 14.7258 18.9067 15.0991 19.28C15.4818 19.6533 15.6731 20.19 15.6731 20.89V25.79C15.6731 25.93 15.6031 26 15.4631 26H14.6931C14.5531 26 14.4831 25.93 14.4831 25.79V25.3H14.4131C14.3385 25.4587 14.2311 25.5987 14.0911 25.72C13.9698 25.8227 13.8111 25.916 13.6151 26C13.4191 26.0933 13.1718 26.14 12.8731 26.14H11.8931C10.4931 26.14 9.79313 25.4633 9.79313 24.11V23.83ZM10.9831 24.11C10.9831 24.39 11.0625 24.614 11.2211 24.782C11.3891 24.9407 11.6131 25.02 11.8931 25.02H13.0131C13.4331 25.02 13.7831 24.88 14.0631 24.6C14.3431 24.32 14.4831 23.97 14.4831 23.55V22.92H11.8931C11.6131 22.92 11.3891 23.004 11.2211 23.172C11.0625 23.3307 10.9831 23.55 10.9831 23.83V24.11ZM19.7271 26.14C18.9898 26.14 18.4298 25.9533 18.0471 25.58C17.6738 25.2067 17.4871 24.67 17.4871 23.97V23.62C17.4871 23.48 17.5571 23.41 17.6971 23.41H18.4671C18.6071 23.41 18.6771 23.48 18.6771 23.62V23.97C18.6771 24.2873 18.7704 24.544 18.9571 24.74C19.1531 24.9267 19.4098 25.02 19.7271 25.02H21.5471C21.8271 25.02 22.0464 24.9407 22.2051 24.782C22.3731 24.614 22.4571 24.39 22.4571 24.11V23.83C22.4571 23.55 22.3731 23.3307 22.2051 23.172C22.0464 23.004 21.8271 22.92 21.5471 22.92H20.3571C20.2171 22.92 20.1471 22.85 20.1471 22.71V22.01C20.1471 21.87 20.2171 21.8 20.3571 21.8H21.4071C21.6871 21.8 21.9064 21.7207 22.0651 21.562C22.2331 21.394 22.3171 21.17 22.3171 20.89V20.75C22.3171 20.47 22.2331 20.2507 22.0651 20.092C21.9064 19.924 21.6871 19.84 21.4071 19.84H19.8671C19.5498 19.84 19.2931 19.938 19.0971 20.134C18.9104 20.3207 18.8171 20.5727 18.8171 20.89V21.24C18.8171 21.38 18.7471 21.45 18.6071 21.45H17.8371C17.6971 21.45 17.6271 21.38 17.6271 21.24V20.89C17.6271 20.19 17.8138 19.6533 18.1871 19.28C18.5698 18.9067 19.1298 18.72 19.8671 18.72H21.4071C22.8071 18.72 23.5071 19.3967 23.5071 20.75V20.89C23.5071 21.17 23.4511 21.3987 23.3391 21.576C23.2271 21.744 23.1058 21.8793 22.9751 21.982C22.8164 22.094 22.6438 22.1733 22.4571 22.22V22.29C22.6811 22.3367 22.8771 22.4253 23.0451 22.556C23.1944 22.668 23.3298 22.8267 23.4511 23.032C23.5818 23.2373 23.6471 23.5033 23.6471 23.83V24.11C23.6471 25.4633 22.9471 26.14 21.5471 26.14H19.7271ZM29.4544 24.88C29.7717 24.88 30.0237 24.7867 30.2104 24.6C30.4064 24.404 30.5044 24.1473 30.5044 23.83V20.89C30.5044 20.5727 30.4064 20.3207 30.2104 20.134C30.0237 19.938 29.7717 19.84 29.4544 19.84H28.2644C27.8444 19.84 27.4944 19.98 27.2144 20.26C26.9344 20.54 26.7944 20.89 26.7944 21.31V24.88H29.4544ZM26.7944 26V28.45C26.7944 28.59 26.7244 28.66 26.5844 28.66H25.8144C25.6744 28.66 25.6044 28.59 25.6044 28.45V19.07C25.6044 18.93 25.6744 18.86 25.8144 18.86H26.5844C26.7244 18.86 26.7944 18.93 26.7944 19.07V19.56H26.8644C26.939 19.4013 27.0464 19.2613 27.1864 19.14C27.3077 19.0373 27.4664 18.944 27.6624 18.86C27.8584 18.7667 28.1057 18.72 28.4044 18.72H29.4544C30.1917 18.72 30.747 18.9067 31.1204 19.28C31.503 19.6533 31.6944 20.19 31.6944 20.89V23.83C31.6944 24.53 31.503 25.0667 31.1204 25.44C30.747 25.8133 30.1917 26 29.4544 26H26.7944ZM33.5138 23.83C33.5138 22.4767 34.2138 21.8 35.6138 21.8H38.2038V20.89C38.2038 20.5727 38.1058 20.3207 37.9098 20.134C37.7232 19.938 37.4712 19.84 37.1538 19.84H36.1738C35.8565 19.84 35.5998 19.938 35.4038 20.134C35.2172 20.3207 35.1238 20.5727 35.1238 20.89C35.1238 21.03 35.0538 21.1 34.9138 21.1H34.1438C34.0038 21.1 33.9338 21.03 33.9338 20.89C33.9338 20.19 34.1205 19.6533 34.4938 19.28C34.8765 18.9067 35.4365 18.72 36.1738 18.72H37.1538C37.8912 18.72 38.4465 18.9067 38.8198 19.28C39.2025 19.6533 39.3938 20.19 39.3938 20.89V25.79C39.3938 25.93 39.3238 26 39.1838 26H38.4138C38.2738 26 38.2038 25.93 38.2038 25.79V25.3H38.1338C38.0592 25.4587 37.9518 25.5987 37.8118 25.72C37.6905 25.8227 37.5318 25.916 37.3358 26C37.1398 26.0933 36.8925 26.14 36.5938 26.14H35.6138C34.2138 26.14 33.5138 25.4633 33.5138 24.11V23.83ZM34.7038 24.11C34.7038 24.39 34.7832 24.614 34.9418 24.782C35.1098 24.9407 35.3338 25.02 35.6138 25.02H36.7338C37.1538 25.02 37.5038 24.88 37.7838 24.6C38.0638 24.32 38.2038 23.97 38.2038 23.55V22.92H35.6138C35.3338 22.92 35.1098 23.004 34.9418 23.172C34.7832 23.3307 34.7038 23.55 34.7038 23.83V24.11ZM42.6778 23.97C42.6778 24.2873 42.7711 24.544 42.9578 24.74C43.1538 24.9267 43.4105 25.02 43.7278 25.02H45.2678C45.5851 25.02 45.8371 24.9267 46.0238 24.74C46.2198 24.544 46.3178 24.2873 46.3178 23.97V22.15C46.3178 21.8327 46.2198 21.5807 46.0238 21.394C45.8371 21.198 45.5851 21.1 45.2678 21.1H42.6778V23.97ZM41.4878 19.42C41.4878 18.0107 42.2345 17.2407 43.7278 17.11L45.4078 16.97C45.6225 16.9513 45.7811 16.886 45.8838 16.774C45.9865 16.662 46.0378 16.5173 46.0378 16.34V16.27C46.0378 16.13 46.1078 16.06 46.2478 16.06H47.0178C47.1578 16.06 47.2278 16.13 47.2278 16.27V16.34C47.2278 16.9373 47.0831 17.3807 46.7938 17.67C46.5045 17.95 46.0425 18.1133 45.4078 18.16L43.7278 18.3C43.4105 18.328 43.1538 18.4447 42.9578 18.65C42.7711 18.846 42.6778 19.1027 42.6778 19.42V19.98H45.2678C46.0051 19.98 46.5605 20.1667 46.9338 20.54C47.3165 20.9133 47.5078 21.45 47.5078 22.15V23.97C47.5078 24.67 47.3165 25.2067 46.9338 25.58C46.5605 25.9533 46.0051 26.14 45.2678 26.14H43.7278C42.9905 26.14 42.4305 25.9533 42.0478 25.58C41.6745 25.2067 41.4878 24.67 41.4878 23.97V19.42ZM54.3618 20.89C54.3618 20.5727 54.2638 20.3207 54.0678 20.134C53.8811 19.938 53.6291 19.84 53.3118 19.84H51.5618C51.2445 19.84 50.9878 19.938 50.7918 20.134C50.6051 20.3207 50.5118 20.5727 50.5118 20.89V23.97C50.5118 24.2873 50.6051 24.544 50.7918 24.74C50.9878 24.9267 51.2445 25.02 51.5618 25.02H53.3118C53.6291 25.02 53.8811 24.9267 54.0678 24.74C54.2638 24.544 54.3618 24.2873 54.3618 23.97V20.89ZM55.5518 23.97C55.5518 24.67 55.3605 25.2067 54.9778 25.58C54.6045 25.9533 54.0491 26.14 53.3118 26.14H51.5618C50.8245 26.14 50.2645 25.9533 49.8818 25.58C49.5085 25.2067 49.3218 24.67 49.3218 23.97V20.89C49.3218 20.19 49.5085 19.6533 49.8818 19.28C50.2645 18.9067 50.8245 18.72 51.5618 18.72H53.3118C54.0491 18.72 54.6045 18.9067 54.9778 19.28C55.3605 19.6533 55.5518 20.19 55.5518 20.89V23.97ZM59.2613 26C59.1213 26 59.0513 25.93 59.0513 25.79V19.98H56.8813C56.7413 19.98 56.6713 19.91 56.6713 19.77V19.07C56.6713 18.93 56.7413 18.86 56.8813 18.86H62.4113C62.5513 18.86 62.6213 18.93 62.6213 19.07V19.77C62.6213 19.91 62.5513 19.98 62.4113 19.98H60.2413V25.79C60.2413 25.93 60.1713 26 60.0312 26H59.2613ZM63.6056 23.83C63.6056 22.4767 64.3056 21.8 65.7056 21.8H68.2956V20.89C68.2956 20.5727 68.1976 20.3207 68.0016 20.134C67.815 19.938 67.563 19.84 67.2456 19.84H66.2656C65.9483 19.84 65.6916 19.938 65.4956 20.134C65.309 20.3207 65.2156 20.5727 65.2156 20.89C65.2156 21.03 65.1456 21.1 65.0056 21.1H64.2356C64.0956 21.1 64.0256 21.03 64.0256 20.89C64.0256 20.19 64.2123 19.6533 64.5856 19.28C64.9683 18.9067 65.5283 18.72 66.2656 18.72H67.2456C67.983 18.72 68.5383 18.9067 68.9116 19.28C69.2943 19.6533 69.4856 20.19 69.4856 20.89V25.79C69.4856 25.93 69.4156 26 69.2756 26H68.5056C68.3656 26 68.2956 25.93 68.2956 25.79V25.3H68.2256C68.151 25.4587 68.0436 25.5987 67.9036 25.72C67.7823 25.8227 67.6236 25.916 67.4276 26C67.2316 26.0933 66.9843 26.14 66.6856 26.14H65.7056C64.3056 26.14 63.6056 25.4633 63.6056 24.11V23.83ZM64.7956 24.11C64.7956 24.39 64.875 24.614 65.0336 24.782C65.2016 24.9407 65.4256 25.02 65.7056 25.02H66.8256C67.2456 25.02 67.5956 24.88 67.8756 24.6C68.1556 24.32 68.2956 23.97 68.2956 23.55V22.92H65.7056C65.4256 22.92 65.2016 23.004 65.0336 23.172C64.875 23.3307 64.7956 23.55 64.7956 23.83V24.11ZM72.9096 22.92V25.79C72.9096 25.93 72.8396 26 72.6996 26H71.9296C71.7896 26 71.7196 25.93 71.7196 25.79V19.07C71.7196 18.93 71.7896 18.86 71.9296 18.86H72.6996C72.8396 18.86 72.9096 18.93 72.9096 19.07V21.87H76.4796V19.07C76.4796 18.93 76.5496 18.86 76.6896 18.86H77.4596C77.5996 18.86 77.6696 18.93 77.6696 19.07V25.79C77.6696 25.93 77.5996 26 77.4596 26H76.6896C76.5496 26 76.4796 25.93 76.4796 25.79V22.92H72.9096ZM84.8091 20.89C84.8091 20.5727 84.7111 20.3207 84.5151 20.134C84.3284 19.938 84.0764 19.84 83.7591 19.84H82.0091C81.6917 19.84 81.4351 19.938 81.2391 20.134C81.0524 20.3207 80.9591 20.5727 80.9591 20.89V23.97C80.9591 24.2873 81.0524 24.544 81.2391 24.74C81.4351 24.9267 81.6917 25.02 82.0091 25.02H83.7591C84.0764 25.02 84.3284 24.9267 84.5151 24.74C84.7111 24.544 84.8091 24.2873 84.8091 23.97V20.89ZM85.9991 23.97C85.9991 24.67 85.8077 25.2067 85.4251 25.58C85.0517 25.9533 84.4964 26.14 83.7591 26.14H82.0091C81.2717 26.14 80.7117 25.9533 80.3291 25.58C79.9557 25.2067 79.7691 24.67 79.7691 23.97V20.89C79.7691 20.19 79.9557 19.6533 80.3291 19.28C80.7117 18.9067 81.2717 18.72 82.0091 18.72H83.7591C84.4964 18.72 85.0517 18.9067 85.4251 19.28C85.8077 19.6533 85.9991 20.19 85.9991 20.89V23.97ZM93.8413 22.78H92.0913V25.79C92.0913 25.93 92.0213 26 91.8813 26H91.1113C90.9713 26 90.9013 25.93 90.9013 25.79V19.07C90.9013 18.93 90.9713 18.86 91.1113 18.86H91.8813C92.0213 18.86 92.0913 18.93 92.0913 19.07V21.66H93.8413L95.2413 19.07C95.2786 18.9953 95.3206 18.944 95.3673 18.916C95.4139 18.8787 95.4886 18.86 95.5913 18.86H96.4313C96.5899 18.86 96.6366 18.93 96.5713 19.07L94.8213 22.22L96.7812 25.79C96.8466 25.93 96.7999 26 96.6413 26H95.8013C95.6986 26 95.6239 25.986 95.5773 25.958C95.5306 25.9207 95.4886 25.8647 95.4513 25.79L93.8413 22.78ZM102.979 20.89C102.979 20.5727 102.881 20.3207 102.685 20.134C102.498 19.938 102.246 19.84 101.929 19.84H100.179C99.8617 19.84 99.605 19.938 99.409 20.134C99.2223 20.3207 99.129 20.5727 99.129 20.89V23.97C99.129 24.2873 99.2223 24.544 99.409 24.74C99.605 24.9267 99.8617 25.02 100.179 25.02H101.929C102.246 25.02 102.498 24.9267 102.685 24.74C102.881 24.544 102.979 24.2873 102.979 23.97V20.89ZM104.169 23.97C104.169 24.67 103.978 25.2067 103.595 25.58C103.222 25.9533 102.666 26.14 101.929 26.14H100.179C99.4417 26.14 98.8817 25.9533 98.499 25.58C98.1257 25.2067 97.939 24.67 97.939 23.97V20.89C97.939 20.19 98.1257 19.6533 98.499 19.28C98.8817 18.9067 99.4417 18.72 100.179 18.72H101.929C102.666 18.72 103.222 18.9067 103.595 19.28C103.978 19.6533 104.169 20.19 104.169 20.89V23.97ZM110.328 24.46L112.848 19.07C112.886 18.9953 112.928 18.944 112.974 18.916C113.03 18.8787 113.128 18.86 113.268 18.86H114.108C114.248 18.86 114.318 18.93 114.318 19.07V25.79C114.318 25.93 114.248 26 114.108 26H113.338C113.198 26 113.128 25.93 113.128 25.79V21.17H113.058L110.888 25.79C110.851 25.8647 110.804 25.9207 110.748 25.958C110.702 25.986 110.608 26 110.468 26H110.118C109.978 26 109.88 25.986 109.824 25.958C109.778 25.9207 109.736 25.8647 109.698 25.79L107.528 21.17H107.458V25.79C107.458 25.93 107.388 26 107.248 26H106.478C106.338 26 106.268 25.93 106.268 25.79V19.07C106.268 18.93 106.338 18.86 106.478 18.86H107.318C107.458 18.86 107.552 18.8787 107.598 18.916C107.654 18.944 107.701 18.9953 107.738 19.07L110.258 24.46H110.328ZM116.283 23.83C116.283 22.4767 116.983 21.8 118.383 21.8H120.973V20.89C120.973 20.5727 120.875 20.3207 120.679 20.134C120.493 19.938 120.241 19.84 119.923 19.84H118.943C118.626 19.84 118.369 19.938 118.173 20.134C117.987 20.3207 117.893 20.5727 117.893 20.89C117.893 21.03 117.823 21.1 117.683 21.1H116.913C116.773 21.1 116.703 21.03 116.703 20.89C116.703 20.19 116.89 19.6533 117.263 19.28C117.646 18.9067 118.206 18.72 118.943 18.72H119.923C120.661 18.72 121.216 18.9067 121.589 19.28C121.972 19.6533 122.163 20.19 122.163 20.89V25.79C122.163 25.93 122.093 26 121.953 26H121.183C121.043 26 120.973 25.93 120.973 25.79V25.3H120.903C120.829 25.4587 120.721 25.5987 120.581 25.72C120.46 25.8227 120.301 25.916 120.105 26C119.909 26.0933 119.662 26.14 119.363 26.14H118.383C116.983 26.14 116.283 25.4633 116.283 24.11V23.83ZM117.473 24.11C117.473 24.39 117.553 24.614 117.711 24.782C117.879 24.9407 118.103 25.02 118.383 25.02H119.503C119.923 25.02 120.273 24.88 120.553 24.6C120.833 24.32 120.973 23.97 120.973 23.55V22.92H118.383C118.103 22.92 117.879 23.004 117.711 23.172C117.553 23.3307 117.473 23.55 117.473 23.83V24.11ZM125.587 22.92V25.79C125.587 25.93 125.517 26 125.377 26H124.607C124.467 26 124.397 25.93 124.397 25.79V19.07C124.397 18.93 124.467 18.86 124.607 18.86H125.377C125.517 18.86 125.587 18.93 125.587 19.07V21.87H129.157V19.07C129.157 18.93 129.227 18.86 129.367 18.86H130.137C130.277 18.86 130.347 18.93 130.347 19.07V25.79C130.347 25.93 130.277 26 130.137 26H129.367C129.227 26 129.157 25.93 129.157 25.79V22.92H125.587ZM136.787 19.98H134.477L133.497 24.88H136.787V19.98ZM137.977 24.88H138.677C138.817 24.88 138.887 24.95 138.887 25.09V27.33C138.887 27.47 138.817 27.54 138.677 27.54H137.907C137.767 27.54 137.697 27.47 137.697 27.33V26H132.657V27.33C132.657 27.47 132.587 27.54 132.447 27.54H131.677C131.537 27.54 131.467 27.47 131.467 27.33V25.09C131.467 24.95 131.537 24.88 131.677 24.88H132.307L133.497 19.07C133.525 18.93 133.641 18.86 133.847 18.86H137.767C137.907 18.86 137.977 18.93 137.977 19.07V24.88ZM145.321 20.89C145.321 20.5727 145.223 20.3207 145.027 20.134C144.84 19.938 144.588 19.84 144.271 19.84H142.521C142.203 19.84 141.947 19.938 141.751 20.134C141.564 20.3207 141.471 20.5727 141.471 20.89V23.97C141.471 24.2873 141.564 24.544 141.751 24.74C141.947 24.9267 142.203 25.02 142.521 25.02H144.271C144.588 25.02 144.84 24.9267 145.027 24.74C145.223 24.544 145.321 24.2873 145.321 23.97V20.89ZM146.511 23.97C146.511 24.67 146.319 25.2067 145.937 25.58C145.563 25.9533 145.008 26.14 144.271 26.14H142.521C141.783 26.14 141.223 25.9533 140.841 25.58C140.467 25.2067 140.281 24.67 140.281 23.97V20.89C140.281 20.19 140.467 19.6533 140.841 19.28C141.223 18.9067 141.783 18.72 142.521 18.72H144.271C145.008 18.72 145.563 18.9067 145.937 19.28C146.319 19.6533 146.511 20.19 146.511 20.89V23.97ZM151.27 17.74C150.738 17.74 150.337 17.6093 150.066 17.348C149.796 17.0773 149.66 16.6947 149.66 16.2V15.85C149.66 15.71 149.73 15.64 149.87 15.64H150.5C150.64 15.64 150.71 15.71 150.71 15.85V16.2C150.71 16.5733 150.897 16.76 151.27 16.76H152.04C152.414 16.76 152.6 16.5733 152.6 16.2V15.85C152.6 15.71 152.67 15.64 152.81 15.64H153.44C153.58 15.64 153.65 15.71 153.65 15.85V16.2C153.65 16.6947 153.515 17.0773 153.244 17.348C152.974 17.6093 152.572 17.74 152.04 17.74H151.27ZM154.49 18.86C154.63 18.86 154.7 18.93 154.7 19.07V25.79C154.7 25.93 154.63 26 154.49 26H153.72C153.58 26 153.51 25.93 153.51 25.79V20.68H153.44L150.08 25.79C150.034 25.8647 149.987 25.9207 149.94 25.958C149.894 25.986 149.8 26 149.66 26H148.82C148.68 26 148.61 25.93 148.61 25.79V19.07C148.61 18.93 148.68 18.86 148.82 18.86H149.59C149.73 18.86 149.8 18.93 149.8 19.07V24.18H149.87L153.23 19.07C153.277 18.9953 153.324 18.944 153.37 18.916C153.417 18.8787 153.51 18.86 153.65 18.86H154.49ZM164.947 22.22L163.295 17.74H163.239L161.587 22.22H164.947ZM161.097 23.48L160.257 25.79C160.229 25.8647 160.187 25.9207 160.131 25.958C160.084 25.986 160.01 26 159.907 26H158.927C158.778 26 158.731 25.93 158.787 25.79L162.427 16.41C162.464 16.3353 162.506 16.284 162.553 16.256C162.6 16.2187 162.674 16.2 162.777 16.2H163.757C163.86 16.2 163.934 16.2187 163.981 16.256C164.028 16.284 164.07 16.3353 164.107 16.41L167.747 25.79C167.803 25.93 167.756 26 167.607 26H166.627C166.524 26 166.445 25.986 166.389 25.958C166.342 25.9207 166.305 25.8647 166.277 25.79L165.437 23.48H161.097ZM172.886 24.88C173.203 24.88 173.455 24.7867 173.642 24.6C173.838 24.404 173.936 24.1473 173.936 23.83V20.89C173.936 20.5727 173.838 20.3207 173.642 20.134C173.455 19.938 173.203 19.84 172.886 19.84H171.696C171.276 19.84 170.926 19.98 170.646 20.26C170.366 20.54 170.226 20.89 170.226 21.31V24.88H172.886ZM170.226 26V28.45C170.226 28.59 170.156 28.66 170.016 28.66H169.246C169.106 28.66 169.036 28.59 169.036 28.45V19.07C169.036 18.93 169.106 18.86 169.246 18.86H170.016C170.156 18.86 170.226 18.93 170.226 19.07V19.56H170.296C170.371 19.4013 170.478 19.2613 170.618 19.14C170.739 19.0373 170.898 18.944 171.094 18.86C171.29 18.7667 171.537 18.72 171.836 18.72H172.886C173.623 18.72 174.179 18.9067 174.552 19.28C174.935 19.6533 175.126 20.19 175.126 20.89V23.83C175.126 24.53 174.935 25.0667 174.552 25.44C174.179 25.8133 173.623 26 172.886 26H170.226ZM182.055 21.8V20.89C182.055 20.5727 181.957 20.3207 181.761 20.134C181.575 19.938 181.323 19.84 181.005 19.84H179.325C179.008 19.84 178.751 19.938 178.555 20.134C178.369 20.3207 178.275 20.5727 178.275 20.89V21.8H182.055ZM178.275 22.92V23.97C178.275 24.2873 178.369 24.544 178.555 24.74C178.751 24.9267 179.008 25.02 179.325 25.02H181.005C181.323 25.02 181.575 24.9267 181.761 24.74C181.957 24.544 182.055 24.2873 182.055 23.97V23.9C182.055 23.76 182.125 23.69 182.265 23.69H183.035C183.175 23.69 183.245 23.76 183.245 23.9V23.97C183.245 24.67 183.054 25.2067 182.671 25.58C182.298 25.9533 181.743 26.14 181.005 26.14H179.325C178.588 26.14 178.028 25.9533 177.645 25.58C177.272 25.2067 177.085 24.67 177.085 23.97V20.89C177.085 20.19 177.272 19.6533 177.645 19.28C178.028 18.9067 178.588 18.72 179.325 18.72H181.005C181.743 18.72 182.298 18.9067 182.671 19.28C183.054 19.6533 183.245 20.19 183.245 20.89V22.71C183.245 22.85 183.175 22.92 183.035 22.92H178.275ZM185.067 20.75C185.067 19.3967 185.767 18.72 187.167 18.72H188.567C189.304 18.72 189.859 18.9067 190.233 19.28C190.615 19.6533 190.807 20.19 190.807 20.89V21.03C190.807 21.17 190.737 21.24 190.597 21.24H189.827C189.687 21.24 189.617 21.17 189.617 21.03V20.89C189.617 20.5727 189.519 20.3207 189.323 20.134C189.136 19.938 188.884 19.84 188.567 19.84H187.167C186.887 19.84 186.663 19.924 186.495 20.092C186.336 20.2507 186.257 20.47 186.257 20.75V20.82C186.257 20.96 186.303 21.0767 186.397 21.17C186.49 21.2633 186.607 21.3333 186.747 21.38L189.827 22.36C190.144 22.4627 190.41 22.64 190.625 22.892C190.839 23.144 190.947 23.48 190.947 23.9V24.11C190.947 25.4633 190.247 26.14 188.847 26.14H187.167C186.429 26.14 185.869 25.9533 185.487 25.58C185.113 25.2067 184.927 24.67 184.927 23.97V23.83C184.927 23.69 184.997 23.62 185.137 23.62H185.907C186.047 23.62 186.117 23.69 186.117 23.83V23.97C186.117 24.2873 186.21 24.544 186.397 24.74C186.593 24.9267 186.849 25.02 187.167 25.02H188.847C189.127 25.02 189.346 24.9407 189.505 24.782C189.673 24.614 189.757 24.39 189.757 24.11V23.97C189.757 23.83 189.71 23.7133 189.617 23.62C189.523 23.5267 189.407 23.4567 189.267 23.41L186.187 22.43C185.869 22.3273 185.603 22.15 185.389 21.898C185.174 21.646 185.067 21.31 185.067 20.89V20.75ZM197.807 20.89C197.807 20.5727 197.709 20.3207 197.513 20.134C197.326 19.938 197.074 19.84 196.757 19.84H195.007C194.69 19.84 194.433 19.938 194.237 20.134C194.05 20.3207 193.957 20.5727 193.957 20.89V23.97C193.957 24.2873 194.05 24.544 194.237 24.74C194.433 24.9267 194.69 25.02 195.007 25.02H196.757C197.074 25.02 197.326 24.9267 197.513 24.74C197.709 24.544 197.807 24.2873 197.807 23.97V20.89ZM198.997 23.97C198.997 24.67 198.806 25.2067 198.423 25.58C198.05 25.9533 197.494 26.14 196.757 26.14H195.007C194.27 26.14 193.71 25.9533 193.327 25.58C192.954 25.2067 192.767 24.67 192.767 23.97V20.89C192.767 20.19 192.954 19.6533 193.327 19.28C193.71 18.9067 194.27 18.72 195.007 18.72H196.757C197.494 18.72 198.05 18.9067 198.423 19.28C198.806 19.6533 198.997 20.19 198.997 20.89V23.97ZM204.947 18.72C205.684 18.72 206.239 18.9067 206.613 19.28C206.995 19.6533 207.187 20.19 207.187 20.89V25.79C207.187 25.93 207.117 26 206.977 26H206.207C206.067 26 205.997 25.93 205.997 25.79V20.89C205.997 20.5727 205.899 20.3207 205.703 20.134C205.516 19.938 205.264 19.84 204.947 19.84H203.757C203.337 19.84 202.987 19.98 202.707 20.26C202.427 20.54 202.287 20.89 202.287 21.31V25.79C202.287 25.93 202.217 26 202.077 26H201.307C201.167 26 201.097 25.93 201.097 25.79V19.07C201.097 18.93 201.167 18.86 201.307 18.86H202.077C202.217 18.86 202.287 18.93 202.287 19.07V19.56H202.357C202.431 19.4013 202.539 19.2613 202.679 19.14C202.8 19.0373 202.959 18.944 203.155 18.86C203.351 18.7667 203.598 18.72 203.897 18.72H204.947ZM211.523 25.44C210.785 25.44 210.225 25.2533 209.843 24.88C209.469 24.5067 209.283 23.97 209.283 23.27V20.89C209.283 20.19 209.469 19.6533 209.843 19.28C210.225 18.9067 210.785 18.72 211.523 18.72H212.573C212.871 18.72 213.119 18.7667 213.315 18.86C213.511 18.944 213.669 19.0373 213.791 19.14C213.931 19.2613 214.038 19.4013 214.113 19.56H214.183V19.07C214.183 18.93 214.253 18.86 214.393 18.86H215.163C215.303 18.86 215.373 18.93 215.373 19.07V26.63C215.373 27.33 215.181 27.8667 214.799 28.24C214.425 28.6133 213.87 28.8 213.133 28.8H211.663C210.925 28.8 210.365 28.6133 209.983 28.24C209.609 27.8667 209.423 27.33 209.423 26.63V26.42C209.423 26.28 209.493 26.21 209.633 26.21H210.403C210.543 26.21 210.613 26.28 210.613 26.42V26.63C210.613 26.9473 210.706 27.1993 210.893 27.386C211.089 27.582 211.345 27.68 211.663 27.68H213.133C213.45 27.68 213.702 27.582 213.889 27.386C214.085 27.1993 214.183 26.9473 214.183 26.63V25.44H211.523ZM214.183 24.32V21.31C214.183 20.89 214.043 20.54 213.763 20.26C213.483 19.98 213.133 19.84 212.713 19.84H211.523C211.205 19.84 210.949 19.938 210.753 20.134C210.566 20.3207 210.473 20.5727 210.473 20.89V23.27C210.473 23.5873 210.566 23.844 210.753 24.04C210.949 24.2267 211.205 24.32 211.523 24.32H214.183Z" fill="#7E7E82"/>
</svg>
