<svg width="212" height="13" viewBox="0 0 212 13" fill="none" xmlns="http://www.w3.org/2000/svg">
<path opacity="0.721842" d="M8.50559 0.199999C8.64559 0.199999 8.71559 0.269999 8.71559 0.409999V9.79C8.71559 9.93 8.64559 10 8.50559 10H7.59559C7.45559 10 7.38559 9.93 7.38559 9.79V1.46H2.20559V9.79C2.20559 9.93 2.13559 10 1.99559 10H1.08559C0.945586 10 0.875586 9.93 0.875586 9.79V0.409999C0.875586 0.269999 0.945586 0.199999 1.08559 0.199999H8.50559ZM16.1323 4.89C16.1323 4.57267 16.0343 4.32067 15.8383 4.134C15.6516 3.938 15.3996 3.84 15.0823 3.84H13.3323C13.015 3.84 12.7583 3.938 12.5623 4.134C12.3756 4.32067 12.2823 4.57267 12.2823 4.89V7.97C12.2823 8.28733 12.3756 8.544 12.5623 8.74C12.7583 8.92667 13.015 9.02 13.3323 9.02H15.0823C15.3996 9.02 15.6516 8.92667 15.8383 8.74C16.0343 8.544 16.1323 8.28733 16.1323 7.97V4.89ZM17.3223 7.97C17.3223 8.67 17.131 9.20667 16.7483 9.58C16.375 9.95333 15.8196 10.14 15.0823 10.14H13.3323C12.595 10.14 12.035 9.95333 11.6523 9.58C11.279 9.20667 11.0923 8.67 11.0923 7.97V4.89C11.0923 4.19 11.279 3.65333 11.6523 3.28C12.035 2.90667 12.595 2.72 13.3323 2.72H15.0823C15.8196 2.72 16.375 2.90667 16.7483 3.28C17.131 3.65333 17.3223 4.19 17.3223 4.89V7.97ZM20.755 8.11C20.615 8.81 20.377 9.32333 20.041 9.65C19.705 9.97667 19.2197 10.14 18.585 10.14H18.375C18.235 10.14 18.165 10.07 18.165 9.93V9.23C18.165 9.09 18.235 9.02 18.375 9.02H18.585C18.8277 9.02 19.033 8.94067 19.201 8.782C19.3784 8.62333 19.4997 8.39933 19.565 8.11L20.615 3.07C20.643 2.93 20.7597 2.86 20.965 2.86H24.885C25.025 2.86 25.095 2.93 25.095 3.07V9.79C25.095 9.93 25.025 10 24.885 10H24.115C23.975 10 23.905 9.93 23.905 9.79V3.98H21.595L20.755 8.11ZM33.2178 2.86C33.3578 2.86 33.4278 2.93 33.4278 3.07V9.79C33.4278 9.93 33.3578 10 33.2178 10H32.4478C32.3078 10 32.2378 9.93 32.2378 9.79V4.68H32.1678L28.8078 9.79C28.7611 9.86467 28.7144 9.92067 28.6678 9.958C28.6211 9.986 28.5278 10 28.3878 10H27.5478C27.4078 10 27.3378 9.93 27.3378 9.79V3.07C27.3378 2.93 27.4078 2.86 27.5478 2.86H28.3178C28.4578 2.86 28.5278 2.93 28.5278 3.07V8.18H28.5978L31.9578 3.07C32.0044 2.99533 32.0511 2.944 32.0978 2.916C32.1444 2.87867 32.2378 2.86 32.3778 2.86H33.2178ZM37.2739 10C37.1339 10 37.0639 9.93 37.0639 9.79V3.98H34.8939C34.7539 3.98 34.6839 3.91 34.6839 3.77V3.07C34.6839 2.93 34.7539 2.86 34.8939 2.86H40.4239C40.5639 2.86 40.6339 2.93 40.6339 3.07V3.77C40.6339 3.91 40.5639 3.98 40.4239 3.98H38.2539V9.79C38.2539 9.93 38.1839 10 38.0439 10H37.2739ZM47.7783 2.86C47.9183 2.86 47.9883 2.93 47.9883 3.07V9.79C47.9883 9.93 47.9183 10 47.7783 10H47.0083C46.8683 10 46.7983 9.93 46.7983 9.79V4.68H46.7283L43.3683 9.79C43.3217 9.86467 43.275 9.92067 43.2283 9.958C43.1817 9.986 43.0883 10 42.9483 10H42.1083C41.9683 10 41.8983 9.93 41.8983 9.79V3.07C41.8983 2.93 41.9683 2.86 42.1083 2.86H42.8783C43.0183 2.86 43.0883 2.93 43.0883 3.07V8.18H43.1583L46.5183 3.07C46.565 2.99533 46.6117 2.944 46.6583 2.916C46.705 2.87867 46.7983 2.86 46.9383 2.86H47.7783ZM53.1645 6.78H51.4145V9.79C51.4145 9.93 51.3445 10 51.2045 10H50.4345C50.2945 10 50.2245 9.93 50.2245 9.79V3.07C50.2245 2.93 50.2945 2.86 50.4345 2.86H51.2045C51.3445 2.86 51.4145 2.93 51.4145 3.07V5.66H53.1645L54.5645 3.07C54.6018 2.99533 54.6438 2.944 54.6905 2.916C54.7372 2.87867 54.8118 2.86 54.9145 2.86H55.7545C55.9132 2.86 55.9598 2.93 55.8945 3.07L54.1445 6.22L56.1045 9.79C56.1698 9.93 56.1232 10 55.9645 10H55.1245C55.0218 10 54.9472 9.986 54.9005 9.958C54.8538 9.92067 54.8118 9.86467 54.7745 9.79L53.1645 6.78ZM57.1222 7.83C57.1222 6.47667 57.8222 5.8 59.2222 5.8H61.8122V4.89C61.8122 4.57267 61.7142 4.32067 61.5182 4.134C61.3316 3.938 61.0796 3.84 60.7622 3.84H59.7822C59.4649 3.84 59.2082 3.938 59.0122 4.134C58.8256 4.32067 58.7322 4.57267 58.7322 4.89C58.7322 5.03 58.6622 5.1 58.5222 5.1H57.7522C57.6122 5.1 57.5422 5.03 57.5422 4.89C57.5422 4.19 57.7289 3.65333 58.1022 3.28C58.4849 2.90667 59.0449 2.72 59.7822 2.72H60.7622C61.4996 2.72 62.0549 2.90667 62.4282 3.28C62.8109 3.65333 63.0022 4.19 63.0022 4.89V9.79C63.0022 9.93 62.9322 10 62.7922 10H62.0222C61.8822 10 61.8122 9.93 61.8122 9.79V9.3H61.7422C61.6676 9.45867 61.5602 9.59867 61.4202 9.72C61.2989 9.82267 61.1402 9.916 60.9442 10C60.7482 10.0933 60.5009 10.14 60.2022 10.14H59.2222C57.8222 10.14 57.1222 9.46333 57.1222 8.11V7.83ZM58.3122 8.11C58.3122 8.39 58.3916 8.614 58.5502 8.782C58.7182 8.94067 58.9422 9.02 59.2222 9.02H60.3422C60.7622 9.02 61.1122 8.88 61.3922 8.6C61.6722 8.32 61.8122 7.97 61.8122 7.55V6.92H59.2222C58.9422 6.92 58.7182 7.004 58.5502 7.172C58.3916 7.33067 58.3122 7.55 58.3122 7.83V8.11ZM70.9789 6.78H69.2289V9.79C69.2289 9.93 69.1589 10 69.0189 10H68.2489C68.1089 10 68.0389 9.93 68.0389 9.79V3.07C68.0389 2.93 68.1089 2.86 68.2489 2.86H69.0189C69.1589 2.86 69.2289 2.93 69.2289 3.07V5.66H70.9789L72.3789 3.07C72.4163 2.99533 72.4583 2.944 72.5049 2.916C72.5516 2.87867 72.6263 2.86 72.7289 2.86H73.5689C73.7276 2.86 73.7743 2.93 73.7089 3.07L71.9589 6.22L73.9189 9.79C73.9843 9.93 73.9376 10 73.7789 10H72.9389C72.8363 10 72.7616 9.986 72.7149 9.958C72.6683 9.92067 72.6263 9.86467 72.5889 9.79L70.9789 6.78ZM80.1167 4.89C80.1167 4.57267 80.0187 4.32067 79.8227 4.134C79.636 3.938 79.384 3.84 79.0667 3.84H77.3167C76.9993 3.84 76.7427 3.938 76.5467 4.134C76.36 4.32067 76.2667 4.57267 76.2667 4.89V7.97C76.2667 8.28733 76.36 8.544 76.5467 8.74C76.7427 8.92667 76.9993 9.02 77.3167 9.02H79.0667C79.384 9.02 79.636 8.92667 79.8227 8.74C80.0187 8.544 80.1167 8.28733 80.1167 7.97V4.89ZM81.3067 7.97C81.3067 8.67 81.1153 9.20667 80.7327 9.58C80.3593 9.95333 79.804 10.14 79.0667 10.14H77.3167C76.5793 10.14 76.0193 9.95333 75.6367 9.58C75.2633 9.20667 75.0767 8.67 75.0767 7.97V4.89C75.0767 4.19 75.2633 3.65333 75.6367 3.28C76.0193 2.90667 76.5793 2.72 77.3167 2.72H79.0667C79.804 2.72 80.3593 2.90667 80.7327 3.28C81.1153 3.65333 81.3067 4.19 81.3067 4.89V7.97ZM84.5961 6.92V9.79C84.5961 9.93 84.5261 10 84.3861 10H83.6161C83.4761 10 83.4061 9.93 83.4061 9.79V3.07C83.4061 2.93 83.4761 2.86 83.6161 2.86H84.3861C84.5261 2.86 84.5961 2.93 84.5961 3.07V5.87H88.1661V3.07C88.1661 2.93 88.2361 2.86 88.3761 2.86H89.1461C89.2861 2.86 89.3561 2.93 89.3561 3.07V9.79C89.3561 9.93 89.2861 10 89.1461 10H88.3761C88.2361 10 88.1661 9.93 88.1661 9.79V6.92H84.5961ZM95.1656 2.86V0.409999C95.1656 0.269999 95.2356 0.199999 95.3756 0.199999H96.1456C96.2856 0.199999 96.3556 0.269999 96.3556 0.409999V2.86H97.8256C98.5629 2.86 99.1183 3.04667 99.4916 3.42C99.8743 3.79333 100.066 4.33 100.066 5.03V7.83C100.066 8.53 99.8743 9.06667 99.4916 9.44C99.1183 9.81333 98.5629 10 97.8256 10H96.3556V12.45C96.3556 12.59 96.2856 12.66 96.1456 12.66H95.3756C95.2356 12.66 95.1656 12.59 95.1656 12.45V10H93.6956C92.9583 10 92.3983 9.81333 92.0156 9.44C91.6423 9.06667 91.4556 8.53 91.4556 7.83V5.03C91.4556 4.33 91.6423 3.79333 92.0156 3.42C92.3983 3.04667 92.9583 2.86 93.6956 2.86H95.1656ZM93.6956 3.98C93.3783 3.98 93.1216 4.078 92.9256 4.274C92.7389 4.46067 92.6456 4.71267 92.6456 5.03V7.83C92.6456 8.14733 92.7389 8.404 92.9256 8.6C93.1216 8.78667 93.3783 8.88 93.6956 8.88H95.1656V3.98H93.6956ZM97.8256 8.88C98.1429 8.88 98.3949 8.78667 98.5816 8.6C98.7776 8.404 98.8756 8.14733 98.8756 7.83V5.03C98.8756 4.71267 98.7776 4.46067 98.5816 4.274C98.3949 4.078 98.1429 3.98 97.8256 3.98H96.3556V8.88H97.8256ZM108.044 2.86C108.184 2.86 108.254 2.93 108.254 3.07V9.79C108.254 9.93 108.184 10 108.044 10H107.274C107.134 10 107.064 9.93 107.064 9.79V4.68H106.994L103.634 9.79C103.587 9.86467 103.541 9.92067 103.494 9.958C103.447 9.986 103.354 10 103.214 10H102.374C102.234 10 102.164 9.93 102.164 9.79V3.07C102.164 2.93 102.234 2.86 102.374 2.86H103.144C103.284 2.86 103.354 2.93 103.354 3.07V8.18H103.424L106.784 3.07C106.831 2.99533 106.877 2.944 106.924 2.916C106.971 2.87867 107.064 2.86 107.204 2.86H108.044ZM114.69 3.98H112.38L111.4 8.88H114.69V3.98ZM115.88 8.88H116.58C116.72 8.88 116.79 8.95 116.79 9.09V11.33C116.79 11.47 116.72 11.54 116.58 11.54H115.81C115.67 11.54 115.6 11.47 115.6 11.33V10H110.56V11.33C110.56 11.47 110.49 11.54 110.35 11.54H109.58C109.44 11.54 109.37 11.47 109.37 11.33V9.09C109.37 8.95 109.44 8.88 109.58 8.88H110.21L111.4 3.07C111.428 2.93 111.545 2.86 111.75 2.86H115.67C115.81 2.86 115.88 2.93 115.88 3.07V8.88ZM123.154 5.8V4.89C123.154 4.57267 123.056 4.32067 122.86 4.134C122.673 3.938 122.421 3.84 122.104 3.84H120.424C120.107 3.84 119.85 3.938 119.654 4.134C119.467 4.32067 119.374 4.57267 119.374 4.89V5.8H123.154ZM119.374 6.92V7.97C119.374 8.28733 119.467 8.544 119.654 8.74C119.85 8.92667 120.107 9.02 120.424 9.02H122.104C122.421 9.02 122.673 8.92667 122.86 8.74C123.056 8.544 123.154 8.28733 123.154 7.97V7.9C123.154 7.76 123.224 7.69 123.364 7.69H124.134C124.274 7.69 124.344 7.76 124.344 7.9V7.97C124.344 8.67 124.153 9.20667 123.77 9.58C123.397 9.95333 122.841 10.14 122.104 10.14H120.424C119.687 10.14 119.127 9.95333 118.744 9.58C118.371 9.20667 118.184 8.67 118.184 7.97V4.89C118.184 4.19 118.371 3.65333 118.744 3.28C119.127 2.90667 119.687 2.72 120.424 2.72H122.104C122.841 2.72 123.397 2.90667 123.77 3.28C124.153 3.65333 124.344 4.19 124.344 4.89V6.71C124.344 6.85 124.274 6.92 124.134 6.92H119.374ZM127.635 6.92V9.79C127.635 9.93 127.565 10 127.425 10H126.655C126.515 10 126.445 9.93 126.445 9.79V3.07C126.445 2.93 126.515 2.86 126.655 2.86H127.425C127.565 2.86 127.635 2.93 127.635 3.07V5.87H131.205V3.07C131.205 2.93 131.275 2.86 131.415 2.86H132.185C132.325 2.86 132.395 2.93 132.395 3.07V9.79C132.395 9.93 132.325 10 132.185 10H131.415C131.275 10 131.205 9.93 131.205 9.79V6.92H127.635ZM134.845 10C134.705 10 134.635 9.93 134.635 9.79V3.07C134.635 2.93 134.705 2.86 134.845 2.86H135.615C135.755 2.86 135.825 2.93 135.825 3.07V8.88H139.255V3.07C139.255 2.93 139.325 2.86 139.465 2.86H140.235C140.375 2.86 140.445 2.93 140.445 3.07V9.09L141.705 10.49C141.742 10.5273 141.761 10.574 141.761 10.63C141.761 10.686 141.742 10.7327 141.705 10.77L141.075 11.33C140.972 11.414 140.879 11.414 140.795 11.33L139.605 10H134.845ZM148.759 2.86C148.899 2.86 148.969 2.93 148.969 3.07V9.79C148.969 9.93 148.899 10 148.759 10H147.989C147.849 10 147.779 9.93 147.779 9.79V4.68H147.709L144.349 9.79C144.302 9.86467 144.255 9.92067 144.209 9.958C144.162 9.986 144.069 10 143.929 10H143.089C142.949 10 142.879 9.93 142.879 9.79V3.07C142.879 2.93 142.949 2.86 143.089 2.86H143.859C143.999 2.86 144.069 2.93 144.069 3.07V8.18H144.139L147.499 3.07C147.545 2.99533 147.592 2.944 147.639 2.916C147.685 2.87867 147.779 2.86 147.919 2.86H148.759ZM150.925 7.83C150.925 6.47667 151.625 5.8 153.025 5.8H155.615V4.89C155.615 4.57267 155.517 4.32067 155.321 4.134C155.134 3.938 154.882 3.84 154.565 3.84H153.585C153.268 3.84 153.011 3.938 152.815 4.134C152.628 4.32067 152.535 4.57267 152.535 4.89C152.535 5.03 152.465 5.1 152.325 5.1H151.555C151.415 5.1 151.345 5.03 151.345 4.89C151.345 4.19 151.532 3.65333 151.905 3.28C152.288 2.90667 152.848 2.72 153.585 2.72H154.565C155.302 2.72 155.858 2.90667 156.231 3.28C156.614 3.65333 156.805 4.19 156.805 4.89V9.79C156.805 9.93 156.735 10 156.595 10H155.825C155.685 10 155.615 9.93 155.615 9.79V9.3H155.545C155.47 9.45867 155.363 9.59867 155.223 9.72C155.102 9.82267 154.943 9.916 154.747 10C154.551 10.0933 154.304 10.14 154.005 10.14H153.025C151.625 10.14 150.925 9.46333 150.925 8.11V7.83ZM152.115 8.11C152.115 8.39 152.194 8.614 152.353 8.782C152.521 8.94067 152.745 9.02 153.025 9.02H154.145C154.565 9.02 154.915 8.88 155.195 8.6C155.475 8.32 155.615 7.97 155.615 7.55V6.92H153.025C152.745 6.92 152.521 7.004 152.353 7.172C152.194 7.33067 152.115 7.55 152.115 7.83V8.11ZM160.509 8.11C160.369 8.81 160.131 9.32333 159.795 9.65C159.459 9.97667 158.974 10.14 158.339 10.14H158.129C157.989 10.14 157.919 10.07 157.919 9.93V9.23C157.919 9.09 157.989 9.02 158.129 9.02H158.339C158.582 9.02 158.787 8.94067 158.955 8.782C159.132 8.62333 159.254 8.39933 159.319 8.11L160.369 3.07C160.397 2.93 160.514 2.86 160.719 2.86H164.639C164.779 2.86 164.849 2.93 164.849 3.07V9.79C164.849 9.93 164.779 10 164.639 10H163.869C163.729 10 163.659 9.93 163.659 9.79V3.98H161.349L160.509 8.11ZM170.732 8.88C171.012 8.88 171.231 8.80067 171.39 8.642C171.558 8.474 171.642 8.25 171.642 7.97V7.27C171.642 6.99 171.558 6.77067 171.39 6.612C171.231 6.444 171.012 6.36 170.732 6.36H168.282V8.88H170.732ZM167.302 10C167.162 10 167.092 9.93 167.092 9.79V3.07C167.092 2.93 167.162 2.86 167.302 2.86H168.072C168.212 2.86 168.282 2.93 168.282 3.07V5.24H170.732C172.132 5.24 172.832 5.91667 172.832 7.27V7.97C172.832 9.32333 172.132 10 170.732 10H167.302ZM175.979 6.92V9.79C175.979 9.93 175.909 10 175.769 10H174.999C174.859 10 174.789 9.93 174.789 9.79V3.07C174.789 2.93 174.859 2.86 174.999 2.86H175.769C175.909 2.86 175.979 2.93 175.979 3.07V5.87H179.549V3.07C179.549 2.93 179.619 2.86 179.759 2.86H180.529C180.669 2.86 180.739 2.93 180.739 3.07V9.79C180.739 9.93 180.669 10 180.529 10H179.759C179.619 10 179.549 9.93 179.549 9.79V6.92H175.979ZM187.878 4.89C187.878 4.57267 187.78 4.32067 187.584 4.134C187.398 3.938 187.146 3.84 186.828 3.84H185.078C184.761 3.84 184.504 3.938 184.308 4.134C184.122 4.32067 184.028 4.57267 184.028 4.89V7.97C184.028 8.28733 184.122 8.544 184.308 8.74C184.504 8.92667 184.761 9.02 185.078 9.02H186.828C187.146 9.02 187.398 8.92667 187.584 8.74C187.78 8.544 187.878 8.28733 187.878 7.97V4.89ZM189.068 7.97C189.068 8.67 188.877 9.20667 188.494 9.58C188.121 9.95333 187.566 10.14 186.828 10.14H185.078C184.341 10.14 183.781 9.95333 183.398 9.58C183.025 9.20667 182.838 8.67 182.838 7.97V4.89C182.838 4.19 183.025 3.65333 183.398 3.28C183.781 2.90667 184.341 2.72 185.078 2.72H186.828C187.566 2.72 188.121 2.90667 188.494 3.28C188.877 3.65333 189.068 4.19 189.068 4.89V7.97ZM192.218 7.97C192.218 8.28733 192.311 8.544 192.498 8.74C192.694 8.92667 192.951 9.02 193.268 9.02H194.878C195.195 9.02 195.447 8.92667 195.634 8.74C195.83 8.544 195.928 8.28733 195.928 7.97V7.62C195.928 7.48 195.998 7.41 196.138 7.41H196.908C197.048 7.41 197.118 7.48 197.118 7.62V7.97C197.118 8.67 196.927 9.20667 196.544 9.58C196.171 9.95333 195.615 10.14 194.878 10.14H193.268C192.531 10.14 191.971 9.95333 191.588 9.58C191.215 9.20667 191.028 8.67 191.028 7.97V4.89C191.028 4.19 191.215 3.65333 191.588 3.28C191.971 2.90667 192.531 2.72 193.268 2.72H194.878C195.615 2.72 196.171 2.90667 196.544 3.28C196.927 3.65333 197.118 4.19 197.118 4.89V5.24C197.118 5.38 197.048 5.45 196.908 5.45H196.138C195.998 5.45 195.928 5.38 195.928 5.24V4.89C195.928 4.57267 195.83 4.32067 195.634 4.134C195.447 3.938 195.195 3.84 194.878 3.84H193.268C192.951 3.84 192.694 3.938 192.498 4.134C192.311 4.32067 192.218 4.57267 192.218 4.89V7.97ZM200.694 10C200.554 10 200.484 9.93 200.484 9.79V3.98H198.314C198.174 3.98 198.104 3.91 198.104 3.77V3.07C198.104 2.93 198.174 2.86 198.314 2.86H203.844C203.984 2.86 204.054 2.93 204.054 3.07V3.77C204.054 3.91 203.984 3.98 203.844 3.98H201.674V9.79C201.674 9.93 201.604 10 201.464 10H200.694ZM211.198 2.86C211.338 2.86 211.408 2.93 211.408 3.07V9.79C211.408 9.93 211.338 10 211.198 10H210.428C210.288 10 210.218 9.93 210.218 9.79V4.68H210.148L206.788 9.79C206.742 9.86467 206.695 9.92067 206.648 9.958C206.602 9.986 206.508 10 206.368 10H205.528C205.388 10 205.318 9.93 205.318 9.79V3.07C205.318 2.93 205.388 2.86 205.528 2.86H206.298C206.438 2.86 206.508 2.93 206.508 3.07V8.18H206.578L209.938 3.07C209.985 2.99533 210.032 2.944 210.078 2.916C210.125 2.87867 210.218 2.86 210.358 2.86H211.198Z" fill="#7E7E82"/>
</svg>
