<svg width="204" height="45" viewBox="0 0 204 45" fill="none" xmlns="http://www.w3.org/2000/svg">
<path opacity="0.721842" d="M8.45258 0.199999C8.59258 0.199999 8.66258 0.269999 8.66258 0.409999V9.79C8.66258 9.93 8.59258 10 8.45258 10H7.54258C7.40258 10 7.33258 9.93 7.33258 9.79V2.23H7.26258L2.22258 9.79C2.13858 9.93 1.99858 10 1.80258 10H0.752578C0.612578 10 0.542578 9.93 0.542578 9.79V0.409999C0.542578 0.269999 0.612578 0.199999 0.752578 0.199999H1.66258C1.80258 0.199999 1.87258 0.269999 1.87258 0.409999V7.97H1.94258L6.98258 0.409999C7.06658 0.269999 7.20658 0.199999 7.40258 0.199999H8.45258ZM12.3764 6.92V9.79C12.3764 9.93 12.3064 10 12.1664 10H11.3964C11.2564 10 11.1864 9.93 11.1864 9.79V3.07C11.1864 2.93 11.2564 2.86 11.3964 2.86H12.1664C12.3064 2.86 12.3764 2.93 12.3764 3.07V5.87H15.9464V3.07C15.9464 2.93 16.0164 2.86 16.1564 2.86H16.9264C17.0664 2.86 17.1364 2.93 17.1364 3.07V9.79C17.1364 9.93 17.0664 10 16.9264 10H16.1564C16.0164 10 15.9464 9.93 15.9464 9.79V6.92H12.3764ZM22.9459 2.86V0.409999C22.9459 0.269999 23.0159 0.199999 23.1559 0.199999H23.9259C24.0659 0.199999 24.1359 0.269999 24.1359 0.409999V2.86H25.6059C26.3432 2.86 26.8985 3.04667 27.2719 3.42C27.6545 3.79333 27.8459 4.33 27.8459 5.03V7.83C27.8459 8.53 27.6545 9.06667 27.2719 9.44C26.8985 9.81333 26.3432 10 25.6059 10H24.1359V12.45C24.1359 12.59 24.0659 12.66 23.9259 12.66H23.1559C23.0159 12.66 22.9459 12.59 22.9459 12.45V10H21.4759C20.7385 10 20.1785 9.81333 19.7959 9.44C19.4225 9.06667 19.2359 8.53 19.2359 7.83V5.03C19.2359 4.33 19.4225 3.79333 19.7959 3.42C20.1785 3.04667 20.7385 2.86 21.4759 2.86H22.9459ZM21.4759 3.98C21.1585 3.98 20.9019 4.078 20.7059 4.274C20.5192 4.46067 20.4259 4.71267 20.4259 5.03V7.83C20.4259 8.14733 20.5192 8.404 20.7059 8.6C20.9019 8.78667 21.1585 8.88 21.4759 8.88H22.9459V3.98H21.4759ZM25.6059 8.88C25.9232 8.88 26.1752 8.78667 26.3619 8.6C26.5579 8.404 26.6559 8.14733 26.6559 7.83V5.03C26.6559 4.71267 26.5579 4.46067 26.3619 4.274C26.1752 4.078 25.9232 3.98 25.6059 3.98H24.1359V8.88H25.6059ZM34.8442 4.89C34.8442 4.57267 34.7462 4.32067 34.5502 4.134C34.3636 3.938 34.1116 3.84 33.7942 3.84H32.0442C31.7269 3.84 31.4702 3.938 31.2742 4.134C31.0876 4.32067 30.9942 4.57267 30.9942 4.89V7.97C30.9942 8.28733 31.0876 8.544 31.2742 8.74C31.4702 8.92667 31.7269 9.02 32.0442 9.02H33.7942C34.1116 9.02 34.3636 8.92667 34.5502 8.74C34.7462 8.544 34.8442 8.28733 34.8442 7.97V4.89ZM36.0342 7.97C36.0342 8.67 35.8429 9.20667 35.4602 9.58C35.0869 9.95333 34.5316 10.14 33.7942 10.14H32.0442C31.3069 10.14 30.7469 9.95333 30.3642 9.58C29.9909 9.20667 29.8042 8.67 29.8042 7.97V4.89C29.8042 4.19 29.9909 3.65333 30.3642 3.28C30.7469 2.90667 31.3069 2.72 32.0442 2.72H33.7942C34.5316 2.72 35.0869 2.90667 35.4602 3.28C35.8429 3.65333 36.0342 4.19 36.0342 4.89V7.97ZM41.9837 8.88C42.301 8.88 42.553 8.78667 42.7397 8.6C42.9357 8.404 43.0337 8.14733 43.0337 7.83V4.89C43.0337 4.57267 42.9357 4.32067 42.7397 4.134C42.553 3.938 42.301 3.84 41.9837 3.84H40.7937C40.3737 3.84 40.0237 3.98 39.7437 4.26C39.4637 4.54 39.3237 4.89 39.3237 5.31V8.88H41.9837ZM39.3237 10V12.45C39.3237 12.59 39.2537 12.66 39.1137 12.66H38.3437C38.2037 12.66 38.1337 12.59 38.1337 12.45V3.07C38.1337 2.93 38.2037 2.86 38.3437 2.86H39.1137C39.2537 2.86 39.3237 2.93 39.3237 3.07V3.56H39.3937C39.4683 3.40133 39.5757 3.26133 39.7157 3.14C39.837 3.03733 39.9957 2.944 40.1917 2.86C40.3877 2.76667 40.635 2.72 40.9337 2.72H41.9837C42.721 2.72 43.2763 2.90667 43.6497 3.28C44.0323 3.65333 44.2237 4.19 44.2237 4.89V7.83C44.2237 8.53 44.0323 9.06667 43.6497 9.44C43.2763 9.81333 42.721 10 41.9837 10H39.3237ZM50.3831 8.46L52.9031 3.07C52.9405 2.99533 52.9825 2.944 53.0291 2.916C53.0851 2.87867 53.1831 2.86 53.3231 2.86H54.1631C54.3031 2.86 54.3731 2.93 54.3731 3.07V9.79C54.3731 9.93 54.3031 10 54.1631 10H53.3931C53.2531 10 53.1831 9.93 53.1831 9.79V5.17H53.1131L50.9431 9.79C50.9058 9.86467 50.8591 9.92067 50.8031 9.958C50.7565 9.986 50.6631 10 50.5231 10H50.1731C50.0331 10 49.9351 9.986 49.8791 9.958C49.8325 9.92067 49.7905 9.86467 49.7531 9.79L47.5831 5.17H47.5131V9.79C47.5131 9.93 47.4431 10 47.3031 10H46.5331C46.3931 10 46.3231 9.93 46.3231 9.79V3.07C46.3231 2.93 46.3931 2.86 46.5331 2.86H47.3731C47.5131 2.86 47.6065 2.87867 47.6531 2.916C47.7091 2.944 47.7558 2.99533 47.7931 3.07L50.3131 8.46H50.3831ZM56.338 7.83C56.338 6.47667 57.038 5.8 58.438 5.8H61.028V4.89C61.028 4.57267 60.93 4.32067 60.734 4.134C60.5474 3.938 60.2954 3.84 59.978 3.84H58.998C58.6807 3.84 58.424 3.938 58.228 4.134C58.0414 4.32067 57.948 4.57267 57.948 4.89C57.948 5.03 57.878 5.1 57.738 5.1H56.968C56.828 5.1 56.758 5.03 56.758 4.89C56.758 4.19 56.9447 3.65333 57.318 3.28C57.7007 2.90667 58.2607 2.72 58.998 2.72H59.978C60.7154 2.72 61.2707 2.90667 61.644 3.28C62.0267 3.65333 62.218 4.19 62.218 4.89V9.79C62.218 9.93 62.148 10 62.008 10H61.238C61.098 10 61.028 9.93 61.028 9.79V9.3H60.958C60.8834 9.45867 60.776 9.59867 60.636 9.72C60.5147 9.82267 60.356 9.916 60.16 10C59.964 10.0933 59.7167 10.14 59.418 10.14H58.438C57.038 10.14 56.338 9.46333 56.338 8.11V7.83ZM57.528 8.11C57.528 8.39 57.6074 8.614 57.766 8.782C57.934 8.94067 58.158 9.02 58.438 9.02H59.558C59.978 9.02 60.328 8.88 60.608 8.6C60.888 8.32 61.028 7.97 61.028 7.55V6.92H58.438C58.158 6.92 57.934 7.004 57.766 7.172C57.6074 7.33067 57.528 7.55 57.528 7.83V8.11ZM64.662 10C64.522 10 64.452 9.93 64.452 9.79V3.07C64.452 2.93 64.522 2.86 64.662 2.86H65.432C65.572 2.86 65.642 2.93 65.642 3.07V8.88H69.072V3.07C69.072 2.93 69.142 2.86 69.282 2.86H70.052C70.192 2.86 70.262 2.93 70.262 3.07V9.09L71.522 10.49C71.5594 10.5273 71.578 10.574 71.578 10.63C71.578 10.686 71.5594 10.7327 71.522 10.77L70.892 11.33C70.7894 11.414 70.696 11.414 70.612 11.33L69.422 10H64.662ZM78.5762 2.86C78.7162 2.86 78.7862 2.93 78.7862 3.07V9.79C78.7862 9.93 78.7162 10 78.5762 10H77.8062C77.6662 10 77.5962 9.93 77.5962 9.79V4.68H77.5262L74.1662 9.79C74.1195 9.86467 74.0728 9.92067 74.0262 9.958C73.9795 9.986 73.8862 10 73.7462 10H72.9062C72.7662 10 72.6962 9.93 72.6962 9.79V3.07C72.6962 2.93 72.7662 2.86 72.9062 2.86H73.6762C73.8162 2.86 73.8862 2.93 73.8862 3.07V8.18H73.9562L77.3162 3.07C77.3628 2.99533 77.4095 2.944 77.4562 2.916C77.5028 2.87867 77.5962 2.86 77.7362 2.86H78.5762ZM86.1743 2.86C86.3143 2.86 86.3843 2.93 86.3843 3.07V9.79C86.3843 9.93 86.3143 10 86.1743 10H85.4043C85.2643 10 85.1943 9.93 85.1943 9.79V7.62H83.1643L81.9743 9.79C81.937 9.86467 81.895 9.92067 81.8483 9.958C81.8017 9.986 81.727 10 81.6243 10H80.7843C80.7097 10 80.6537 9.986 80.6163 9.958C80.5883 9.92067 80.5977 9.86467 80.6443 9.79L81.9043 7.48C81.6617 7.43333 81.4517 7.33067 81.2743 7.172C81.1157 7.04133 80.971 6.85 80.8403 6.598C80.7097 6.346 80.6443 6.01 80.6443 5.59V4.89C80.6443 3.53667 81.3443 2.86 82.7443 2.86H86.1743ZM82.7443 3.98C82.4643 3.98 82.2403 4.064 82.0723 4.232C81.9137 4.39067 81.8343 4.61 81.8343 4.89V5.59C81.8343 5.87 81.9137 6.094 82.0723 6.262C82.2403 6.42067 82.4643 6.5 82.7443 6.5H85.1943V3.98H82.7443ZM89.2679 9.72C89.2679 9.776 89.2586 9.82733 89.2399 9.874C89.2306 9.92067 89.2166 9.96733 89.1979 10.014C89.1699 10.0607 89.1466 10.1027 89.1279 10.14L88.5679 11.26C88.5492 11.2973 88.5166 11.33 88.4699 11.358C88.4326 11.386 88.3952 11.4 88.3579 11.4H88.0079C87.9239 11.4 87.9006 11.3533 87.9379 11.26L88.5679 10H88.2179C88.0779 10 88.0079 9.93 88.0079 9.79V8.95C88.0079 8.81 88.0779 8.74 88.2179 8.74H89.0579C89.1979 8.74 89.2679 8.81 89.2679 8.95V9.72ZM97.6009 8.88C97.9182 8.88 98.1702 8.78667 98.3569 8.6C98.5529 8.404 98.6509 8.14733 98.6509 7.83V4.89C98.6509 4.57267 98.5529 4.32067 98.3569 4.134C98.1702 3.938 97.9182 3.84 97.6009 3.84H96.4109C95.9909 3.84 95.6409 3.98 95.3609 4.26C95.0809 4.54 94.9409 4.89 94.9409 5.31V8.88H97.6009ZM94.9409 10V12.45C94.9409 12.59 94.8709 12.66 94.7309 12.66H93.9609C93.8209 12.66 93.7509 12.59 93.7509 12.45V3.07C93.7509 2.93 93.8209 2.86 93.9609 2.86H94.7309C94.8709 2.86 94.9409 2.93 94.9409 3.07V3.56H95.0109C95.0855 3.40133 95.1929 3.26133 95.3329 3.14C95.4542 3.03733 95.6129 2.944 95.8089 2.86C96.0049 2.76667 96.2522 2.72 96.5509 2.72H97.6009C98.3382 2.72 98.8935 2.90667 99.2669 3.28C99.6495 3.65333 99.8409 4.19 99.8409 4.89V7.83C99.8409 8.53 99.6495 9.06667 99.2669 9.44C98.8935 9.81333 98.3382 10 97.6009 10H94.9409ZM101.66 7.83C101.66 6.47667 102.36 5.8 103.76 5.8H106.35V4.89C106.35 4.57267 106.252 4.32067 106.056 4.134C105.87 3.938 105.618 3.84 105.3 3.84H104.32C104.003 3.84 103.746 3.938 103.55 4.134C103.364 4.32067 103.27 4.57267 103.27 4.89C103.27 5.03 103.2 5.1 103.06 5.1H102.29C102.15 5.1 102.08 5.03 102.08 4.89C102.08 4.19 102.267 3.65333 102.64 3.28C103.023 2.90667 103.583 2.72 104.32 2.72H105.3C106.038 2.72 106.593 2.90667 106.966 3.28C107.349 3.65333 107.54 4.19 107.54 4.89V9.79C107.54 9.93 107.47 10 107.33 10H106.56C106.42 10 106.35 9.93 106.35 9.79V9.3H106.28C106.206 9.45867 106.098 9.59867 105.958 9.72C105.837 9.82267 105.678 9.916 105.482 10C105.286 10.0933 105.039 10.14 104.74 10.14H103.76C102.36 10.14 101.66 9.46333 101.66 8.11V7.83ZM102.85 8.11C102.85 8.39 102.93 8.614 103.088 8.782C103.256 8.94067 103.48 9.02 103.76 9.02H104.88C105.3 9.02 105.65 8.88 105.93 8.6C106.21 8.32 106.35 7.97 106.35 7.55V6.92H103.76C103.48 6.92 103.256 7.004 103.088 7.172C102.93 7.33067 102.85 7.55 102.85 7.83V8.11ZM111.594 10.14C110.857 10.14 110.297 9.95333 109.914 9.58C109.541 9.20667 109.354 8.67 109.354 7.97V7.62C109.354 7.48 109.424 7.41 109.564 7.41H110.334C110.474 7.41 110.544 7.48 110.544 7.62V7.97C110.544 8.28733 110.638 8.544 110.824 8.74C111.02 8.92667 111.277 9.02 111.594 9.02H113.414C113.694 9.02 113.914 8.94067 114.072 8.782C114.24 8.614 114.324 8.39 114.324 8.11V7.83C114.324 7.55 114.24 7.33067 114.072 7.172C113.914 7.004 113.694 6.92 113.414 6.92H112.224C112.084 6.92 112.014 6.85 112.014 6.71V6.01C112.014 5.87 112.084 5.8 112.224 5.8H113.274C113.554 5.8 113.774 5.72067 113.932 5.562C114.1 5.394 114.184 5.17 114.184 4.89V4.75C114.184 4.47 114.1 4.25067 113.932 4.092C113.774 3.924 113.554 3.84 113.274 3.84H111.734C111.417 3.84 111.16 3.938 110.964 4.134C110.778 4.32067 110.684 4.57267 110.684 4.89V5.24C110.684 5.38 110.614 5.45 110.474 5.45H109.704C109.564 5.45 109.494 5.38 109.494 5.24V4.89C109.494 4.19 109.681 3.65333 110.054 3.28C110.437 2.90667 110.997 2.72 111.734 2.72H113.274C114.674 2.72 115.374 3.39667 115.374 4.75V4.89C115.374 5.17 115.318 5.39867 115.206 5.576C115.094 5.744 114.973 5.87933 114.842 5.982C114.684 6.094 114.511 6.17333 114.324 6.22V6.29C114.548 6.33667 114.744 6.42533 114.912 6.556C115.062 6.668 115.197 6.82667 115.318 7.032C115.449 7.23733 115.514 7.50333 115.514 7.83V8.11C115.514 9.46333 114.814 10.14 113.414 10.14H111.594ZM121.532 8.46L124.052 3.07C124.089 2.99533 124.131 2.944 124.178 2.916C124.234 2.87867 124.332 2.86 124.472 2.86H125.312C125.452 2.86 125.522 2.93 125.522 3.07V9.79C125.522 9.93 125.452 10 125.312 10H124.542C124.402 10 124.332 9.93 124.332 9.79V5.17H124.262L122.092 9.79C122.054 9.86467 122.008 9.92067 121.952 9.958C121.905 9.986 121.812 10 121.672 10H121.322C121.182 10 121.084 9.986 121.028 9.958C120.981 9.92067 120.939 9.86467 120.902 9.79L118.732 5.17H118.662V9.79C118.662 9.93 118.592 10 118.452 10H117.682C117.542 10 117.472 9.93 117.472 9.79V3.07C117.472 2.93 117.542 2.86 117.682 2.86H118.522C118.662 2.86 118.755 2.87867 118.802 2.916C118.858 2.944 118.904 2.99533 118.942 3.07L121.462 8.46H121.532ZM132.596 5.8V4.89C132.596 4.57267 132.498 4.32067 132.302 4.134C132.116 3.938 131.864 3.84 131.546 3.84H129.866C129.549 3.84 129.292 3.938 129.096 4.134C128.91 4.32067 128.816 4.57267 128.816 4.89V5.8H132.596ZM128.816 6.92V7.97C128.816 8.28733 128.91 8.544 129.096 8.74C129.292 8.92667 129.549 9.02 129.866 9.02H131.546C131.864 9.02 132.116 8.92667 132.302 8.74C132.498 8.544 132.596 8.28733 132.596 7.97V7.9C132.596 7.76 132.666 7.69 132.806 7.69H133.576C133.716 7.69 133.786 7.76 133.786 7.9V7.97C133.786 8.67 133.595 9.20667 133.212 9.58C132.839 9.95333 132.284 10.14 131.546 10.14H129.866C129.129 10.14 128.569 9.95333 128.186 9.58C127.813 9.20667 127.626 8.67 127.626 7.97V4.89C127.626 4.19 127.813 3.65333 128.186 3.28C128.569 2.90667 129.129 2.72 129.866 2.72H131.546C132.284 2.72 132.839 2.90667 133.212 3.28C133.595 3.65333 133.786 4.19 133.786 4.89V6.71C133.786 6.85 133.716 6.92 133.576 6.92H128.816ZM136.098 10C135.958 10 135.888 9.93 135.888 9.79V3.07C135.888 2.93 135.958 2.86 136.098 2.86H136.868C137.008 2.86 137.078 2.93 137.078 3.07V8.88H139.808V3.07C139.808 2.93 139.878 2.86 140.018 2.86H140.788C140.928 2.86 140.998 2.93 140.998 3.07V8.88H143.728V3.07C143.728 2.93 143.798 2.86 143.938 2.86H144.708C144.848 2.86 144.918 2.93 144.918 3.07V9.09L146.178 10.49C146.215 10.5273 146.234 10.574 146.234 10.63C146.234 10.686 146.215 10.7327 146.178 10.77L145.548 11.33C145.445 11.414 145.352 11.414 145.268 11.33L144.078 10H136.098ZM152.188 5.8V4.89C152.188 4.57267 152.09 4.32067 151.894 4.134C151.708 3.938 151.456 3.84 151.138 3.84H149.458C149.141 3.84 148.884 3.938 148.688 4.134C148.502 4.32067 148.408 4.57267 148.408 4.89V5.8H152.188ZM148.408 6.92V7.97C148.408 8.28733 148.502 8.544 148.688 8.74C148.884 8.92667 149.141 9.02 149.458 9.02H151.138C151.456 9.02 151.708 8.92667 151.894 8.74C152.09 8.544 152.188 8.28733 152.188 7.97V7.9C152.188 7.76 152.258 7.69 152.398 7.69H153.168C153.308 7.69 153.378 7.76 153.378 7.9V7.97C153.378 8.67 153.187 9.20667 152.804 9.58C152.431 9.95333 151.876 10.14 151.138 10.14H149.458C148.721 10.14 148.161 9.95333 147.778 9.58C147.405 9.20667 147.218 8.67 147.218 7.97V4.89C147.218 4.19 147.405 3.65333 147.778 3.28C148.161 2.90667 148.721 2.72 149.458 2.72H151.138C151.876 2.72 152.431 2.90667 152.804 3.28C153.187 3.65333 153.378 4.19 153.378 4.89V6.71C153.378 6.85 153.308 6.92 153.168 6.92H148.408ZM156.669 6.92V9.79C156.669 9.93 156.599 10 156.459 10H155.689C155.549 10 155.479 9.93 155.479 9.79V3.07C155.479 2.93 155.549 2.86 155.689 2.86H156.459C156.599 2.86 156.669 2.93 156.669 3.07V5.87H160.239V3.07C160.239 2.93 160.309 2.86 160.449 2.86H161.219C161.359 2.86 161.429 2.93 161.429 3.07V9.79C161.429 9.93 161.359 10 161.219 10H160.449C160.309 10 160.239 9.93 160.239 9.79V6.92H156.669ZM164.859 6.92V9.79C164.859 9.93 164.789 10 164.649 10H163.879C163.739 10 163.669 9.93 163.669 9.79V3.07C163.669 2.93 163.739 2.86 163.879 2.86H164.649C164.789 2.86 164.859 2.93 164.859 3.07V5.87H168.429V3.07C168.429 2.93 168.499 2.86 168.639 2.86H169.409C169.549 2.86 169.619 2.93 169.619 3.07V9.79C169.619 9.93 169.549 10 169.409 10H168.639C168.499 10 168.429 9.93 168.429 9.79V6.92H164.859ZM171.578 7.83C171.578 6.47667 172.278 5.8 173.678 5.8H176.268V4.89C176.268 4.57267 176.17 4.32067 175.974 4.134C175.788 3.938 175.536 3.84 175.218 3.84H174.238C173.921 3.84 173.664 3.938 173.468 4.134C173.282 4.32067 173.188 4.57267 173.188 4.89C173.188 5.03 173.118 5.1 172.978 5.1H172.208C172.068 5.1 171.998 5.03 171.998 4.89C171.998 4.19 172.185 3.65333 172.558 3.28C172.941 2.90667 173.501 2.72 174.238 2.72H175.218C175.956 2.72 176.511 2.90667 176.884 3.28C177.267 3.65333 177.458 4.19 177.458 4.89V9.79C177.458 9.93 177.388 10 177.248 10H176.478C176.338 10 176.268 9.93 176.268 9.79V9.3H176.198C176.124 9.45867 176.016 9.59867 175.876 9.72C175.755 9.82267 175.596 9.916 175.4 10C175.204 10.0933 174.957 10.14 174.658 10.14H173.678C172.278 10.14 171.578 9.46333 171.578 8.11V7.83ZM172.768 8.11C172.768 8.39 172.848 8.614 173.006 8.782C173.174 8.94067 173.398 9.02 173.678 9.02H174.798C175.218 9.02 175.568 8.88 175.848 8.6C176.128 8.32 176.268 7.97 176.268 7.55V6.92H173.678C173.398 6.92 173.174 7.004 173.006 7.172C172.848 7.33067 172.768 7.55 172.768 7.83V8.11ZM184.844 2.86C184.984 2.86 185.054 2.93 185.054 3.07V9.79C185.054 9.93 184.984 10 184.844 10H184.074C183.934 10 183.864 9.93 183.864 9.79V7.62H181.834L180.644 9.79C180.607 9.86467 180.565 9.92067 180.518 9.958C180.472 9.986 180.397 10 180.294 10H179.454C179.38 10 179.324 9.986 179.286 9.958C179.258 9.92067 179.268 9.86467 179.314 9.79L180.574 7.48C180.332 7.43333 180.122 7.33067 179.944 7.172C179.786 7.04133 179.641 6.85 179.51 6.598C179.38 6.346 179.314 6.01 179.314 5.59V4.89C179.314 3.53667 180.014 2.86 181.414 2.86H184.844ZM181.414 3.98C181.134 3.98 180.91 4.064 180.742 4.232C180.584 4.39067 180.504 4.61 180.504 4.89V5.59C180.504 5.87 180.584 6.094 180.742 6.262C180.91 6.42067 181.134 6.5 181.414 6.5H183.864V3.98H181.414ZM191.287 6.92V9.79C191.287 9.93 191.217 10 191.077 10H190.307C190.167 10 190.097 9.93 190.097 9.79V3.07C190.097 2.93 190.167 2.86 190.307 2.86H191.077C191.217 2.86 191.287 2.93 191.287 3.07V5.87H194.857V3.07C194.857 2.93 194.927 2.86 195.067 2.86H195.837C195.977 2.86 196.047 2.93 196.047 3.07V9.79C196.047 9.93 195.977 10 195.837 10H195.067C194.927 10 194.857 9.93 194.857 9.79V6.92H191.287ZM198.006 7.83C198.006 6.47667 198.706 5.8 200.106 5.8H202.696V4.89C202.696 4.57267 202.598 4.32067 202.402 4.134C202.215 3.938 201.963 3.84 201.646 3.84H200.666C200.349 3.84 200.092 3.938 199.896 4.134C199.709 4.32067 199.616 4.57267 199.616 4.89C199.616 5.03 199.546 5.1 199.406 5.1H198.636C198.496 5.1 198.426 5.03 198.426 4.89C198.426 4.19 198.613 3.65333 198.986 3.28C199.369 2.90667 199.929 2.72 200.666 2.72H201.646C202.383 2.72 202.939 2.90667 203.312 3.28C203.695 3.65333 203.886 4.19 203.886 4.89V9.79C203.886 9.93 203.816 10 203.676 10H202.906C202.766 10 202.696 9.93 202.696 9.79V9.3H202.626C202.551 9.45867 202.444 9.59867 202.304 9.72C202.183 9.82267 202.024 9.916 201.828 10C201.632 10.0933 201.385 10.14 201.086 10.14H200.106C198.706 10.14 198.006 9.46333 198.006 8.11V7.83ZM199.196 8.11C199.196 8.39 199.275 8.614 199.434 8.782C199.602 8.94067 199.826 9.02 200.106 9.02H201.226C201.646 9.02 201.996 8.88 202.276 8.6C202.556 8.32 202.696 7.97 202.696 7.55V6.92H200.106C199.826 6.92 199.602 7.004 199.434 7.172C199.275 7.33067 199.196 7.55 199.196 7.83V8.11ZM10.7653 19.98H8.45531L7.47531 24.88H10.7653V19.98ZM11.9553 24.88H12.6553C12.7953 24.88 12.8653 24.95 12.8653 25.09V27.33C12.8653 27.47 12.7953 27.54 12.6553 27.54H11.8853C11.7453 27.54 11.6753 27.47 11.6753 27.33V26H6.63531V27.33C6.63531 27.47 6.56531 27.54 6.42531 27.54H5.65531C5.51531 27.54 5.44531 27.47 5.44531 27.33V25.09C5.44531 24.95 5.51531 24.88 5.65531 24.88H6.28531L7.47531 19.07C7.50331 18.93 7.61998 18.86 7.82531 18.86H11.7453C11.8853 18.86 11.9553 18.93 11.9553 19.07V24.88ZM14.1193 23.83C14.1193 22.4767 14.8193 21.8 16.2193 21.8H18.8093V20.89C18.8093 20.5727 18.7113 20.3207 18.5153 20.134C18.3286 19.938 18.0766 19.84 17.7593 19.84H16.7793C16.462 19.84 16.2053 19.938 16.0093 20.134C15.8226 20.3207 15.7293 20.5727 15.7293 20.89C15.7293 21.03 15.6593 21.1 15.5193 21.1H14.7493C14.6093 21.1 14.5393 21.03 14.5393 20.89C14.5393 20.19 14.726 19.6533 15.0993 19.28C15.482 18.9067 16.042 18.72 16.7793 18.72H17.7593C18.4966 18.72 19.052 18.9067 19.4253 19.28C19.808 19.6533 19.9993 20.19 19.9993 20.89V25.79C19.9993 25.93 19.9293 26 19.7893 26H19.0193C18.8793 26 18.8093 25.93 18.8093 25.79V25.3H18.7393C18.6646 25.4587 18.5573 25.5987 18.4173 25.72C18.296 25.8227 18.1373 25.916 17.9413 26C17.7453 26.0933 17.498 26.14 17.1993 26.14H16.2193C14.8193 26.14 14.1193 25.4633 14.1193 24.11V23.83ZM15.3093 24.11C15.3093 24.39 15.3886 24.614 15.5473 24.782C15.7153 24.9407 15.9393 25.02 16.2193 25.02H17.3393C17.7593 25.02 18.1093 24.88 18.3893 24.6C18.6693 24.32 18.8093 23.97 18.8093 23.55V22.92H16.2193C15.9393 22.92 15.7153 23.004 15.5473 23.172C15.3886 23.3307 15.3093 23.55 15.3093 23.83V24.11ZM23.4233 22.92V25.79C23.4233 25.93 23.3533 26 23.2133 26H22.4433C22.3033 26 22.2333 25.93 22.2333 25.79V19.07C22.2333 18.93 22.3033 18.86 22.4433 18.86H23.2133C23.3533 18.86 23.4233 18.93 23.4233 19.07V21.87H26.9933V19.07C26.9933 18.93 27.0633 18.86 27.2033 18.86H27.9733C28.1133 18.86 28.1833 18.93 28.1833 19.07V25.79C28.1833 25.93 28.1133 26 27.9733 26H27.2033C27.0633 26 26.9933 25.93 26.9933 25.79V22.92H23.4233ZM31.6127 22.92V25.79C31.6127 25.93 31.5427 26 31.4027 26H30.6327C30.4927 26 30.4227 25.93 30.4227 25.79V19.07C30.4227 18.93 30.4927 18.86 30.6327 18.86H31.4027C31.5427 18.86 31.6127 18.93 31.6127 19.07V21.87H35.1827V19.07C35.1827 18.93 35.2527 18.86 35.3927 18.86H36.1627C36.3027 18.86 36.3727 18.93 36.3727 19.07V25.79C36.3727 25.93 36.3027 26 36.1627 26H35.3927C35.2527 26 35.1827 25.93 35.1827 25.79V22.92H31.6127ZM43.5122 20.89C43.5122 20.5727 43.4142 20.3207 43.2182 20.134C43.0315 19.938 42.7795 19.84 42.4622 19.84H40.7122C40.3949 19.84 40.1382 19.938 39.9422 20.134C39.7555 20.3207 39.6622 20.5727 39.6622 20.89V23.97C39.6622 24.2873 39.7555 24.544 39.9422 24.74C40.1382 24.9267 40.3949 25.02 40.7122 25.02H42.4622C42.7795 25.02 43.0315 24.9267 43.2182 24.74C43.4142 24.544 43.5122 24.2873 43.5122 23.97V20.89ZM44.7022 23.97C44.7022 24.67 44.5109 25.2067 44.1282 25.58C43.7549 25.9533 43.1995 26.14 42.4622 26.14H40.7122C39.9749 26.14 39.4149 25.9533 39.0322 25.58C38.6589 25.2067 38.4722 24.67 38.4722 23.97V20.89C38.4722 20.19 38.6589 19.6533 39.0322 19.28C39.4149 18.9067 39.9749 18.72 40.7122 18.72H42.4622C43.1995 18.72 43.7549 18.9067 44.1282 19.28C44.5109 19.6533 44.7022 20.19 44.7022 20.89V23.97ZM49.4616 17.74C48.9296 17.74 48.5283 17.6093 48.2576 17.348C47.987 17.0773 47.8516 16.6947 47.8516 16.2V15.85C47.8516 15.71 47.9216 15.64 48.0616 15.64H48.6916C48.8316 15.64 48.9016 15.71 48.9016 15.85V16.2C48.9016 16.5733 49.0883 16.76 49.4616 16.76H50.2316C50.605 16.76 50.7916 16.5733 50.7916 16.2V15.85C50.7916 15.71 50.8616 15.64 51.0016 15.64H51.6316C51.7716 15.64 51.8416 15.71 51.8416 15.85V16.2C51.8416 16.6947 51.7063 17.0773 51.4356 17.348C51.165 17.6093 50.7636 17.74 50.2316 17.74H49.4616ZM52.6816 18.86C52.8216 18.86 52.8916 18.93 52.8916 19.07V25.79C52.8916 25.93 52.8216 26 52.6816 26H51.9116C51.7716 26 51.7016 25.93 51.7016 25.79V20.68H51.6316L48.2716 25.79C48.225 25.8647 48.1783 25.9207 48.1316 25.958C48.085 25.986 47.9916 26 47.8516 26H47.0116C46.8716 26 46.8016 25.93 46.8016 25.79V19.07C46.8016 18.93 46.8716 18.86 47.0116 18.86H47.7816C47.9216 18.86 47.9916 18.93 47.9916 19.07V24.18H48.0616L51.4216 19.07C51.4683 18.9953 51.515 18.944 51.5616 18.916C51.6083 18.8787 51.7016 18.86 51.8416 18.86H52.6816ZM58.9805 23.97C58.9805 24.2873 59.0739 24.544 59.2605 24.74C59.4565 24.9267 59.7132 25.02 60.0305 25.02H61.6405C61.9579 25.02 62.2099 24.9267 62.3965 24.74C62.5925 24.544 62.6905 24.2873 62.6905 23.97V23.62C62.6905 23.48 62.7605 23.41 62.9005 23.41H63.6705C63.8105 23.41 63.8805 23.48 63.8805 23.62V23.97C63.8805 24.67 63.6892 25.2067 63.3065 25.58C62.9332 25.9533 62.3779 26.14 61.6405 26.14H60.0305C59.2932 26.14 58.7332 25.9533 58.3505 25.58C57.9772 25.2067 57.7905 24.67 57.7905 23.97V20.89C57.7905 20.19 57.9772 19.6533 58.3505 19.28C58.7332 18.9067 59.2932 18.72 60.0305 18.72H61.6405C62.3779 18.72 62.9332 18.9067 63.3065 19.28C63.6892 19.6533 63.8805 20.19 63.8805 20.89V21.24C63.8805 21.38 63.8105 21.45 63.6705 21.45H62.9005C62.7605 21.45 62.6905 21.38 62.6905 21.24V20.89C62.6905 20.5727 62.5925 20.3207 62.3965 20.134C62.2099 19.938 61.9579 19.84 61.6405 19.84H60.0305C59.7132 19.84 59.4565 19.938 59.2605 20.134C59.0739 20.3207 58.9805 20.5727 58.9805 20.89V23.97ZM67.4566 26C67.3166 26 67.2466 25.93 67.2466 25.79V19.98H65.0766C64.9366 19.98 64.8666 19.91 64.8666 19.77V19.07C64.8666 18.93 64.9366 18.86 65.0766 18.86H70.6066C70.7466 18.86 70.8166 18.93 70.8166 19.07V19.77C70.8166 19.91 70.7466 19.98 70.6066 19.98H68.4366V25.79C68.4366 25.93 68.3666 26 68.2266 26H67.4566ZM75.9309 24.88C76.2483 24.88 76.5003 24.7867 76.6869 24.6C76.8829 24.404 76.9809 24.1473 76.9809 23.83V20.89C76.9809 20.5727 76.8829 20.3207 76.6869 20.134C76.5003 19.938 76.2483 19.84 75.9309 19.84H74.7409C74.3209 19.84 73.9709 19.98 73.6909 20.26C73.4109 20.54 73.2709 20.89 73.2709 21.31V24.88H75.9309ZM73.2709 26V28.45C73.2709 28.59 73.2009 28.66 73.0609 28.66H72.2909C72.1509 28.66 72.0809 28.59 72.0809 28.45V19.07C72.0809 18.93 72.1509 18.86 72.2909 18.86H73.0609C73.2009 18.86 73.2709 18.93 73.2709 19.07V19.56H73.3409C73.4156 19.4013 73.5229 19.2613 73.6629 19.14C73.7843 19.0373 73.9429 18.944 74.1389 18.86C74.3349 18.7667 74.5823 18.72 74.8809 18.72H75.9309C76.6683 18.72 77.2236 18.9067 77.5969 19.28C77.9796 19.6533 78.1709 20.19 78.1709 20.89V23.83C78.1709 24.53 77.9796 25.0667 77.5969 25.44C77.2236 25.8133 76.6683 26 75.9309 26H73.2709ZM79.9904 23.83C79.9904 22.4767 80.6904 21.8 82.0904 21.8H84.6804V20.89C84.6804 20.5727 84.5824 20.3207 84.3864 20.134C84.1997 19.938 83.9477 19.84 83.6304 19.84H82.6504C82.3331 19.84 82.0764 19.938 81.8804 20.134C81.6937 20.3207 81.6004 20.5727 81.6004 20.89C81.6004 21.03 81.5304 21.1 81.3904 21.1H80.6204C80.4804 21.1 80.4104 21.03 80.4104 20.89C80.4104 20.19 80.5971 19.6533 80.9704 19.28C81.3531 18.9067 81.9131 18.72 82.6504 18.72H83.6304C84.3677 18.72 84.9231 18.9067 85.2964 19.28C85.6791 19.6533 85.8704 20.19 85.8704 20.89V25.79C85.8704 25.93 85.8004 26 85.6604 26H84.8904C84.7504 26 84.6804 25.93 84.6804 25.79V25.3H84.6104C84.5357 25.4587 84.4284 25.5987 84.2884 25.72C84.1671 25.8227 84.0084 25.916 83.8124 26C83.6164 26.0933 83.3691 26.14 83.0704 26.14H82.0904C80.6904 26.14 79.9904 25.4633 79.9904 24.11V23.83ZM81.1804 24.11C81.1804 24.39 81.2597 24.614 81.4184 24.782C81.5864 24.9407 81.8104 25.02 82.0904 25.02H83.2104C83.6304 25.02 83.9804 24.88 84.2604 24.6C84.5404 24.32 84.6804 23.97 84.6804 23.55V22.92H82.0904C81.8104 22.92 81.5864 23.004 81.4184 23.172C81.2597 23.3307 81.1804 23.55 81.1804 23.83V24.11ZM89.2944 22.92V25.79C89.2944 25.93 89.2244 26 89.0844 26H88.3144C88.1744 26 88.1044 25.93 88.1044 25.79V19.07C88.1044 18.93 88.1744 18.86 88.3144 18.86H89.0844C89.2244 18.86 89.2944 18.93 89.2944 19.07V21.87H92.8644V19.07C92.8644 18.93 92.9344 18.86 93.0744 18.86H93.8444C93.9844 18.86 94.0544 18.93 94.0544 19.07V25.79C94.0544 25.93 93.9844 26 93.8444 26H93.0744C92.9344 26 92.8644 25.93 92.8644 25.79V22.92H89.2944ZM102.174 18.86C102.314 18.86 102.384 18.93 102.384 19.07V25.79C102.384 25.93 102.314 26 102.174 26H101.404C101.264 26 101.194 25.93 101.194 25.79V20.68H101.124L97.7638 25.79C97.7172 25.8647 97.6705 25.9207 97.6238 25.958C97.5772 25.986 97.4838 26 97.3438 26H96.5038C96.3638 26 96.2938 25.93 96.2938 25.79V19.07C96.2938 18.93 96.3638 18.86 96.5038 18.86H97.2738C97.4138 18.86 97.4838 18.93 97.4838 19.07V24.18H97.5538L100.914 19.07C100.96 18.9953 101.007 18.944 101.054 18.916C101.1 18.8787 101.194 18.86 101.334 18.86H102.174ZM104.83 26C104.69 26 104.62 25.93 104.62 25.79V19.07C104.62 18.93 104.69 18.86 104.83 18.86H105.6C105.74 18.86 105.81 18.93 105.81 19.07V24.88H109.24V19.07C109.24 18.93 109.31 18.86 109.45 18.86H110.22C110.36 18.86 110.43 18.93 110.43 19.07V25.09L111.69 26.49C111.727 26.5273 111.746 26.574 111.746 26.63C111.746 26.686 111.727 26.7327 111.69 26.77L111.06 27.33C110.957 27.414 110.864 27.414 110.78 27.33L109.59 26H104.83ZM117.694 21.8V20.89C117.694 20.5727 117.596 20.3207 117.4 20.134C117.213 19.938 116.961 19.84 116.644 19.84H114.964C114.647 19.84 114.39 19.938 114.194 20.134C114.007 20.3207 113.914 20.5727 113.914 20.89V21.8H117.694ZM113.914 22.92V23.97C113.914 24.2873 114.007 24.544 114.194 24.74C114.39 24.9267 114.647 25.02 114.964 25.02H116.644C116.961 25.02 117.213 24.9267 117.4 24.74C117.596 24.544 117.694 24.2873 117.694 23.97V23.9C117.694 23.76 117.764 23.69 117.904 23.69H118.674C118.814 23.69 118.884 23.76 118.884 23.9V23.97C118.884 24.67 118.693 25.2067 118.31 25.58C117.937 25.9533 117.381 26.14 116.644 26.14H114.964C114.227 26.14 113.667 25.9533 113.284 25.58C112.911 25.2067 112.724 24.67 112.724 23.97V20.89C112.724 20.19 112.911 19.6533 113.284 19.28C113.667 18.9067 114.227 18.72 114.964 18.72H116.644C117.381 18.72 117.937 18.9067 118.31 19.28C118.693 19.6533 118.884 20.19 118.884 20.89V22.71C118.884 22.85 118.814 22.92 118.674 22.92H113.914ZM121.629 25.72C121.629 25.776 121.62 25.8273 121.601 25.874C121.592 25.9207 121.578 25.9673 121.559 26.014C121.531 26.0607 121.508 26.1027 121.489 26.14L120.929 27.26C120.911 27.2973 120.878 27.33 120.831 27.358C120.794 27.386 120.757 27.4 120.719 27.4H120.369C120.285 27.4 120.262 27.3533 120.299 27.26L120.929 26H120.579C120.439 26 120.369 25.93 120.369 25.79V24.95C120.369 24.81 120.439 24.74 120.579 24.74H121.419C121.559 24.74 121.629 24.81 121.629 24.95V25.72ZM127.302 22.92V25.79C127.302 25.93 127.232 26 127.092 26H126.322C126.182 26 126.112 25.93 126.112 25.79V19.07C126.112 18.93 126.182 18.86 126.322 18.86H127.092C127.232 18.86 127.302 18.93 127.302 19.07V21.87H130.872V19.07C130.872 18.93 130.942 18.86 131.082 18.86H131.852C131.992 18.86 132.062 18.93 132.062 19.07V25.79C132.062 25.93 131.992 26 131.852 26H131.082C130.942 26 130.872 25.93 130.872 25.79V22.92H127.302ZM139.132 21.8V20.89C139.132 20.5727 139.034 20.3207 138.838 20.134C138.651 19.938 138.399 19.84 138.082 19.84H136.402C136.084 19.84 135.828 19.938 135.632 20.134C135.445 20.3207 135.352 20.5727 135.352 20.89V21.8H139.132ZM135.352 22.92V23.97C135.352 24.2873 135.445 24.544 135.632 24.74C135.828 24.9267 136.084 25.02 136.402 25.02H138.082C138.399 25.02 138.651 24.9267 138.838 24.74C139.034 24.544 139.132 24.2873 139.132 23.97V23.9C139.132 23.76 139.202 23.69 139.342 23.69H140.112C140.252 23.69 140.322 23.76 140.322 23.9V23.97C140.322 24.67 140.13 25.2067 139.748 25.58C139.374 25.9533 138.819 26.14 138.082 26.14H136.402C135.664 26.14 135.104 25.9533 134.722 25.58C134.348 25.2067 134.162 24.67 134.162 23.97V20.89C134.162 20.19 134.348 19.6533 134.722 19.28C135.104 18.9067 135.664 18.72 136.402 18.72H138.082C138.819 18.72 139.374 18.9067 139.748 19.28C140.13 19.6533 140.322 20.19 140.322 20.89V22.71C140.322 22.85 140.252 22.92 140.112 22.92H135.352ZM150.377 18.86C150.517 18.86 150.587 18.93 150.587 19.07V25.79C150.587 25.93 150.517 26 150.377 26H149.607C149.467 26 149.397 25.93 149.397 25.79V23.62H147.367L146.177 25.79C146.14 25.8647 146.098 25.9207 146.051 25.958C146.005 25.986 145.93 26 145.827 26H144.987C144.913 26 144.857 25.986 144.819 25.958C144.791 25.9207 144.801 25.8647 144.847 25.79L146.107 23.48C145.865 23.4333 145.655 23.3307 145.477 23.172C145.319 23.0413 145.174 22.85 145.043 22.598C144.913 22.346 144.847 22.01 144.847 21.59V20.89C144.847 19.5367 145.547 18.86 146.947 18.86H150.377ZM146.947 19.98C146.667 19.98 146.443 20.064 146.275 20.232C146.117 20.3907 146.037 20.61 146.037 20.89V21.59C146.037 21.87 146.117 22.094 146.275 22.262C146.443 22.4207 146.667 22.5 146.947 22.5H149.397V19.98H146.947ZM156.677 24.88C156.957 24.88 157.176 24.8007 157.335 24.642C157.503 24.474 157.587 24.25 157.587 23.97V23.83C157.587 23.55 157.503 23.3307 157.335 23.172C157.176 23.004 156.957 22.92 156.677 22.92H154.017V24.88H156.677ZM156.257 21.8C156.537 21.8 156.756 21.7207 156.915 21.562C157.083 21.394 157.167 21.17 157.167 20.89C157.167 20.61 157.083 20.3907 156.915 20.232C156.756 20.064 156.537 19.98 156.257 19.98H154.017V21.8H156.257ZM153.037 26C152.897 26 152.827 25.93 152.827 25.79V19.07C152.827 18.93 152.897 18.86 153.037 18.86H156.257C157.657 18.86 158.357 19.5367 158.357 20.89C158.357 21.17 158.306 21.3987 158.203 21.576C158.11 21.744 158.007 21.8793 157.895 21.982C157.764 22.094 157.615 22.1733 157.447 22.22V22.29C157.69 22.3367 157.909 22.4253 158.105 22.556C158.273 22.668 158.427 22.8267 158.567 23.032C158.707 23.2373 158.777 23.5033 158.777 23.83V23.97C158.777 25.3233 158.077 26 156.677 26H153.037ZM162.063 24.11C161.923 24.81 161.685 25.3233 161.349 25.65C161.013 25.9767 160.527 26.14 159.893 26.14H159.683C159.543 26.14 159.473 26.07 159.473 25.93V25.23C159.473 25.09 159.543 25.02 159.683 25.02H159.893C160.135 25.02 160.341 24.9407 160.509 24.782C160.686 24.6233 160.807 24.3993 160.873 24.11L161.923 19.07C161.951 18.93 162.067 18.86 162.273 18.86H166.193C166.333 18.86 166.403 18.93 166.403 19.07V25.79C166.403 25.93 166.333 26 166.193 26H165.423C165.283 26 165.213 25.93 165.213 25.79V19.98H162.903L162.063 24.11ZM173.797 18.86C173.937 18.86 174.007 18.93 174.007 19.07V25.79C174.007 25.93 173.937 26 173.797 26H173.027C172.887 26 172.817 25.93 172.817 25.79V23.62H170.787L169.597 25.79C169.56 25.8647 169.518 25.9207 169.471 25.958C169.425 25.986 169.35 26 169.247 26H168.407C168.333 26 168.277 25.986 168.239 25.958C168.211 25.9207 168.221 25.8647 168.267 25.79L169.527 23.48C169.285 23.4333 169.075 23.3307 168.897 23.172C168.739 23.0413 168.594 22.85 168.463 22.598C168.333 22.346 168.267 22.01 168.267 21.59V20.89C168.267 19.5367 168.967 18.86 170.367 18.86H173.797ZM170.367 19.98C170.087 19.98 169.863 20.064 169.695 20.232C169.537 20.3907 169.457 20.61 169.457 20.89V21.59C169.457 21.87 169.537 22.094 169.695 22.262C169.863 22.4207 170.087 22.5 170.367 22.5H172.817V19.98H170.367ZM181.077 21.8V20.89C181.077 20.5727 180.979 20.3207 180.783 20.134C180.596 19.938 180.344 19.84 180.027 19.84H178.347C178.03 19.84 177.773 19.938 177.577 20.134C177.39 20.3207 177.297 20.5727 177.297 20.89V21.8H181.077ZM177.297 22.92V23.97C177.297 24.2873 177.39 24.544 177.577 24.74C177.773 24.9267 178.03 25.02 178.347 25.02H180.027C180.344 25.02 180.596 24.9267 180.783 24.74C180.979 24.544 181.077 24.2873 181.077 23.97V23.9C181.077 23.76 181.147 23.69 181.287 23.69H182.057C182.197 23.69 182.267 23.76 182.267 23.9V23.97C182.267 24.67 182.076 25.2067 181.693 25.58C181.32 25.9533 180.764 26.14 180.027 26.14H178.347C177.61 26.14 177.05 25.9533 176.667 25.58C176.294 25.2067 176.107 24.67 176.107 23.97V20.89C176.107 20.19 176.294 19.6533 176.667 19.28C177.05 18.9067 177.61 18.72 178.347 18.72H180.027C180.764 18.72 181.32 18.9067 181.693 19.28C182.076 19.6533 182.267 20.19 182.267 20.89V22.71C182.267 22.85 182.197 22.92 182.057 22.92H177.297ZM185.978 26C185.838 26 185.768 25.93 185.768 25.79V19.98H183.598C183.458 19.98 183.388 19.91 183.388 19.77V19.07C183.388 18.93 183.458 18.86 183.598 18.86H189.128C189.268 18.86 189.338 18.93 189.338 19.07V19.77C189.338 19.91 189.268 19.98 189.128 19.98H186.958V25.79C186.958 25.93 186.888 26 186.748 26H185.978ZM191.652 23.97C191.652 24.2873 191.746 24.544 191.932 24.74C192.128 24.9267 192.385 25.02 192.702 25.02H194.312C194.63 25.02 194.882 24.9267 195.068 24.74C195.264 24.544 195.362 24.2873 195.362 23.97V23.62C195.362 23.48 195.432 23.41 195.572 23.41H196.342C196.482 23.41 196.552 23.48 196.552 23.62V23.97C196.552 24.67 196.361 25.2067 195.978 25.58C195.605 25.9533 195.05 26.14 194.312 26.14H192.702C191.965 26.14 191.405 25.9533 191.022 25.58C190.649 25.2067 190.462 24.67 190.462 23.97V20.89C190.462 20.19 190.649 19.6533 191.022 19.28C191.405 18.9067 191.965 18.72 192.702 18.72H194.312C195.05 18.72 195.605 18.9067 195.978 19.28C196.361 19.6533 196.552 20.19 196.552 20.89V21.24C196.552 21.38 196.482 21.45 196.342 21.45H195.572C195.432 21.45 195.362 21.38 195.362 21.24V20.89C195.362 20.5727 195.264 20.3207 195.068 20.134C194.882 19.938 194.63 19.84 194.312 19.84H192.702C192.385 19.84 192.128 19.938 191.932 20.134C191.746 20.3207 191.652 20.5727 191.652 20.89V23.97ZM203.67 18.86C203.81 18.86 203.88 18.93 203.88 19.07V25.79C203.88 25.93 203.81 26 203.67 26H202.9C202.76 26 202.69 25.93 202.69 25.79V23.62H200.66L199.47 25.79C199.433 25.8647 199.391 25.9207 199.344 25.958C199.298 25.986 199.223 26 199.12 26H198.28C198.206 26 198.15 25.986 198.112 25.958C198.084 25.9207 198.094 25.8647 198.14 25.79L199.4 23.48C199.158 23.4333 198.948 23.3307 198.77 23.172C198.612 23.0413 198.467 22.85 198.336 22.598C198.206 22.346 198.14 22.01 198.14 21.59V20.89C198.14 19.5367 198.84 18.86 200.24 18.86H203.67ZM200.24 19.98C199.96 19.98 199.736 20.064 199.568 20.232C199.41 20.3907 199.33 20.61 199.33 20.89V21.59C199.33 21.87 199.41 22.094 199.568 22.262C199.736 22.4207 199.96 22.5 200.24 22.5H202.69V19.98H200.24ZM78.3224 42C78.1824 42 78.1124 41.93 78.1124 41.79V35.98H74.5424V41.79C74.5424 41.93 74.4724 42 74.3324 42H73.5624C73.4224 42 73.3524 41.93 73.3524 41.79V35.07C73.3524 34.93 73.4224 34.86 73.5624 34.86H79.0924C79.2324 34.86 79.3024 34.93 79.3024 35.07V41.79C79.3024 41.93 79.2324 42 79.0924 42H78.3224ZM85.9799 35.07C86.0079 34.9953 86.0452 34.944 86.0919 34.916C86.1479 34.8787 86.2272 34.86 86.3299 34.86H87.1699C87.3192 34.86 87.3659 34.93 87.3099 35.07L84.5799 42C84.3839 42.4947 84.1925 42.91 84.0059 43.246C83.8192 43.582 83.6185 43.8527 83.4039 44.058C83.1892 44.2727 82.9559 44.4267 82.7039 44.52C82.4519 44.6133 82.1672 44.66 81.8499 44.66H81.5699C81.4299 44.66 81.3599 44.59 81.3599 44.45V43.75C81.3599 43.61 81.4299 43.54 81.5699 43.54H81.8499C82.2045 43.54 82.4939 43.4233 82.7179 43.19C82.9512 42.9567 83.1752 42.56 83.3899 42L80.6599 35.07C80.6039 34.93 80.6505 34.86 80.7999 34.86H81.6399C81.7425 34.86 81.8172 34.8787 81.8639 34.916C81.9199 34.944 81.9619 34.9953 81.9899 35.07L83.9499 40.32H84.0199L85.9799 35.07ZM89.7149 39.97C89.7149 40.2873 89.8083 40.544 89.9949 40.74C90.1909 40.9267 90.4476 41.02 90.7649 41.02H92.3049C92.6223 41.02 92.8743 40.9267 93.0609 40.74C93.2569 40.544 93.3549 40.2873 93.3549 39.97V38.15C93.3549 37.8327 93.2569 37.5807 93.0609 37.394C92.8743 37.198 92.6223 37.1 92.3049 37.1H89.7149V39.97ZM88.5249 35.42C88.5249 34.0107 89.2716 33.2407 90.7649 33.11L92.4449 32.97C92.6596 32.9513 92.8183 32.886 92.9209 32.774C93.0236 32.662 93.0749 32.5173 93.0749 32.34V32.27C93.0749 32.13 93.1449 32.06 93.2849 32.06H94.0549C94.1949 32.06 94.2649 32.13 94.2649 32.27V32.34C94.2649 32.9373 94.1203 33.3807 93.8309 33.67C93.5416 33.95 93.0796 34.1133 92.4449 34.16L90.7649 34.3C90.4476 34.328 90.1909 34.4447 89.9949 34.65C89.8083 34.846 89.7149 35.1027 89.7149 35.42V35.98H92.3049C93.0423 35.98 93.5976 36.1667 93.9709 36.54C94.3536 36.9133 94.5449 37.45 94.5449 38.15V39.97C94.5449 40.67 94.3536 41.2067 93.9709 41.58C93.5976 41.9533 93.0423 42.14 92.3049 42.14H90.7649C90.0276 42.14 89.4676 41.9533 89.0849 41.58C88.7116 41.2067 88.5249 40.67 88.5249 39.97V35.42ZM97.9689 40.11C97.8289 40.81 97.5909 41.3233 97.2549 41.65C96.9189 41.9767 96.4336 42.14 95.7989 42.14H95.5889C95.4489 42.14 95.3789 42.07 95.3789 41.93V41.23C95.3789 41.09 95.4489 41.02 95.5889 41.02H95.7989C96.0416 41.02 96.2469 40.9407 96.4149 40.782C96.5922 40.6233 96.7136 40.3993 96.7789 40.11L97.8289 35.07C97.8569 34.93 97.9736 34.86 98.1789 34.86H102.099C102.239 34.86 102.309 34.93 102.309 35.07V41.79C102.309 41.93 102.239 42 102.099 42H101.329C101.189 42 101.119 41.93 101.119 41.79V35.98H98.8089L97.9689 40.11ZM110.432 34.86C110.572 34.86 110.642 34.93 110.642 35.07V41.79C110.642 41.93 110.572 42 110.432 42H109.662C109.522 42 109.452 41.93 109.452 41.79V36.68H109.382L106.022 41.79C105.975 41.8647 105.928 41.9207 105.882 41.958C105.835 41.986 105.742 42 105.602 42H104.762C104.622 42 104.552 41.93 104.552 41.79V35.07C104.552 34.93 104.622 34.86 104.762 34.86H105.532C105.672 34.86 105.742 34.93 105.742 35.07V40.18H105.812L109.172 35.07C109.218 34.9953 109.265 34.944 109.312 34.916C109.358 34.8787 109.452 34.86 109.592 34.86H110.432ZM113.928 37.45C113.928 37.7673 114.021 38.024 114.208 38.22C114.404 38.4067 114.66 38.5 114.978 38.5H117.358V35.07C117.358 34.93 117.428 34.86 117.568 34.86H118.338C118.478 34.86 118.548 34.93 118.548 35.07V41.79C118.548 41.93 118.478 42 118.338 42H117.568C117.428 42 117.358 41.93 117.358 41.79V39.62H114.978C114.24 39.62 113.68 39.4333 113.298 39.06C112.924 38.6867 112.738 38.15 112.738 37.45V35.07C112.738 34.93 112.808 34.86 112.948 34.86H113.718C113.858 34.86 113.928 34.93 113.928 35.07V37.45ZM121.984 38.92V41.79C121.984 41.93 121.914 42 121.774 42H121.004C120.864 42 120.794 41.93 120.794 41.79V35.07C120.794 34.93 120.864 34.86 121.004 34.86H121.774C121.914 34.86 121.984 34.93 121.984 35.07V37.87H125.554V35.07C125.554 34.93 125.624 34.86 125.764 34.86H126.534C126.674 34.86 126.744 34.93 126.744 35.07V41.79C126.744 41.93 126.674 42 126.534 42H125.764C125.624 42 125.554 41.93 125.554 41.79V38.92H121.984ZM133.883 36.89C133.883 36.5727 133.785 36.3207 133.589 36.134C133.403 35.938 133.151 35.84 132.833 35.84H131.083C130.766 35.84 130.509 35.938 130.313 36.134C130.127 36.3207 130.033 36.5727 130.033 36.89V39.97C130.033 40.2873 130.127 40.544 130.313 40.74C130.509 40.9267 130.766 41.02 131.083 41.02H132.833C133.151 41.02 133.403 40.9267 133.589 40.74C133.785 40.544 133.883 40.2873 133.883 39.97V36.89ZM135.073 39.97C135.073 40.67 134.882 41.2067 134.499 41.58C134.126 41.9533 133.571 42.14 132.833 42.14H131.083C130.346 42.14 129.786 41.9533 129.403 41.58C129.03 41.2067 128.843 40.67 128.843 39.97V36.89C128.843 36.19 129.03 35.6533 129.403 35.28C129.786 34.9067 130.346 34.72 131.083 34.72H132.833C133.571 34.72 134.126 34.9067 134.499 35.28C134.882 35.6533 135.073 36.19 135.073 36.89V39.97ZM139.833 33.74C139.301 33.74 138.899 33.6093 138.629 33.348C138.358 33.0773 138.223 32.6947 138.223 32.2V31.85C138.223 31.71 138.293 31.64 138.433 31.64H139.063C139.203 31.64 139.273 31.71 139.273 31.85V32.2C139.273 32.5733 139.459 32.76 139.833 32.76H140.603C140.976 32.76 141.163 32.5733 141.163 32.2V31.85C141.163 31.71 141.233 31.64 141.373 31.64H142.003C142.143 31.64 142.213 31.71 142.213 31.85V32.2C142.213 32.6947 142.077 33.0773 141.807 33.348C141.536 33.6093 141.135 33.74 140.603 33.74H139.833ZM143.053 34.86C143.193 34.86 143.263 34.93 143.263 35.07V41.79C143.263 41.93 143.193 42 143.053 42H142.283C142.143 42 142.073 41.93 142.073 41.79V36.68H142.003L138.643 41.79C138.596 41.8647 138.549 41.9207 138.503 41.958C138.456 41.986 138.363 42 138.223 42H137.383C137.243 42 137.173 41.93 137.173 41.79V35.07C137.173 34.93 137.243 34.86 137.383 34.86H138.153C138.293 34.86 138.363 34.93 138.363 35.07V40.18H138.433L141.793 35.07C141.839 34.9953 141.886 34.944 141.933 34.916C141.979 34.8787 142.073 34.86 142.213 34.86H143.053ZM153.202 36.89C153.202 36.5727 153.104 36.3207 152.908 36.134C152.721 35.938 152.469 35.84 152.152 35.84H150.402C150.084 35.84 149.828 35.938 149.632 36.134C149.445 36.3207 149.352 36.5727 149.352 36.89V39.97C149.352 40.2873 149.445 40.544 149.632 40.74C149.828 40.9267 150.084 41.02 150.402 41.02H152.152C152.469 41.02 152.721 40.9267 152.908 40.74C153.104 40.544 153.202 40.2873 153.202 39.97V36.89ZM154.392 39.97C154.392 40.67 154.2 41.2067 153.818 41.58C153.444 41.9533 152.889 42.14 152.152 42.14H150.402C149.664 42.14 149.104 41.9533 148.722 41.58C148.348 41.2067 148.162 40.67 148.162 39.97V36.89C148.162 36.19 148.348 35.6533 148.722 35.28C149.104 34.9067 149.664 34.72 150.402 34.72H152.152C152.889 34.72 153.444 34.9067 153.818 35.28C154.2 35.6533 154.392 36.19 154.392 36.89V39.97ZM160.061 34.86V32.41C160.061 32.27 160.131 32.2 160.271 32.2H161.041C161.181 32.2 161.251 32.27 161.251 32.41V34.86H162.721C163.458 34.86 164.014 35.0467 164.387 35.42C164.77 35.7933 164.961 36.33 164.961 37.03V39.83C164.961 40.53 164.77 41.0667 164.387 41.44C164.014 41.8133 163.458 42 162.721 42H161.251V44.45C161.251 44.59 161.181 44.66 161.041 44.66H160.271C160.131 44.66 160.061 44.59 160.061 44.45V42H158.591C157.854 42 157.294 41.8133 156.911 41.44C156.538 41.0667 156.351 40.53 156.351 39.83V37.03C156.351 36.33 156.538 35.7933 156.911 35.42C157.294 35.0467 157.854 34.86 158.591 34.86H160.061ZM158.591 35.98C158.274 35.98 158.017 36.078 157.821 36.274C157.634 36.4607 157.541 36.7127 157.541 37.03V39.83C157.541 40.1473 157.634 40.404 157.821 40.6C158.017 40.7867 158.274 40.88 158.591 40.88H160.061V35.98H158.591ZM162.721 40.88C163.038 40.88 163.29 40.7867 163.477 40.6C163.673 40.404 163.771 40.1473 163.771 39.83V37.03C163.771 36.7127 163.673 36.4607 163.477 36.274C163.29 36.078 163.038 35.98 162.721 35.98H161.251V40.88H162.721ZM171.889 37.8V36.89C171.889 36.5727 171.791 36.3207 171.595 36.134C171.409 35.938 171.157 35.84 170.839 35.84H169.159C168.842 35.84 168.585 35.938 168.389 36.134C168.203 36.3207 168.109 36.5727 168.109 36.89V37.8H171.889ZM168.109 38.92V39.97C168.109 40.2873 168.203 40.544 168.389 40.74C168.585 40.9267 168.842 41.02 169.159 41.02H170.839C171.157 41.02 171.409 40.9267 171.595 40.74C171.791 40.544 171.889 40.2873 171.889 39.97V39.9C171.889 39.76 171.959 39.69 172.099 39.69H172.869C173.009 39.69 173.079 39.76 173.079 39.9V39.97C173.079 40.67 172.888 41.2067 172.505 41.58C172.132 41.9533 171.577 42.14 170.839 42.14H169.159C168.422 42.14 167.862 41.9533 167.479 41.58C167.106 41.2067 166.919 40.67 166.919 39.97V36.89C166.919 36.19 167.106 35.6533 167.479 35.28C167.862 34.9067 168.422 34.72 169.159 34.72H170.839C171.577 34.72 172.132 34.9067 172.505 35.28C172.888 35.6533 173.079 36.19 173.079 36.89V38.71C173.079 38.85 173.009 38.92 172.869 38.92H168.109ZM179.031 40.88C179.348 40.88 179.6 40.7867 179.787 40.6C179.983 40.404 180.081 40.1473 180.081 39.83V36.89C180.081 36.5727 179.983 36.3207 179.787 36.134C179.6 35.938 179.348 35.84 179.031 35.84H177.841C177.421 35.84 177.071 35.98 176.791 36.26C176.511 36.54 176.371 36.89 176.371 37.31V40.88H179.031ZM176.371 42V44.45C176.371 44.59 176.301 44.66 176.161 44.66H175.391C175.251 44.66 175.181 44.59 175.181 44.45V35.07C175.181 34.93 175.251 34.86 175.391 34.86H176.161C176.301 34.86 176.371 34.93 176.371 35.07V35.56H176.441C176.515 35.4013 176.623 35.2613 176.763 35.14C176.884 35.0373 177.043 34.944 177.239 34.86C177.435 34.7667 177.682 34.72 177.981 34.72H179.031C179.768 34.72 180.323 34.9067 180.697 35.28C181.079 35.6533 181.271 36.19 181.271 36.89V39.83C181.271 40.53 181.079 41.0667 180.697 41.44C180.323 41.8133 179.768 42 179.031 42H176.371ZM184.98 42C184.84 42 184.77 41.93 184.77 41.79V35.98H182.6C182.46 35.98 182.39 35.91 182.39 35.77V35.07C182.39 34.93 182.46 34.86 182.6 34.86H188.13C188.27 34.86 188.34 34.93 188.34 35.07V35.77C188.34 35.91 188.27 35.98 188.13 35.98H185.96V41.79C185.96 41.93 185.89 42 185.75 42H184.98ZM194.504 36.89C194.504 36.5727 194.406 36.3207 194.21 36.134C194.024 35.938 193.772 35.84 193.454 35.84H191.704C191.387 35.84 191.13 35.938 190.934 36.134C190.748 36.3207 190.654 36.5727 190.654 36.89V39.97C190.654 40.2873 190.748 40.544 190.934 40.74C191.13 40.9267 191.387 41.02 191.704 41.02H193.454C193.772 41.02 194.024 40.9267 194.21 40.74C194.406 40.544 194.504 40.2873 194.504 39.97V36.89ZM195.694 39.97C195.694 40.67 195.503 41.2067 195.12 41.58C194.747 41.9533 194.192 42.14 193.454 42.14H191.704C190.967 42.14 190.407 41.9533 190.024 41.58C189.651 41.2067 189.464 40.67 189.464 39.97V36.89C189.464 36.19 189.651 35.6533 190.024 35.28C190.407 34.9067 190.967 34.72 191.704 34.72H193.454C194.192 34.72 194.747 34.9067 195.12 35.28C195.503 35.6533 195.694 36.19 195.694 36.89V39.97ZM200.454 33.74C199.922 33.74 199.52 33.6093 199.25 33.348C198.979 33.0773 198.844 32.6947 198.844 32.2V31.85C198.844 31.71 198.914 31.64 199.054 31.64H199.684C199.824 31.64 199.894 31.71 199.894 31.85V32.2C199.894 32.5733 200.08 32.76 200.454 32.76H201.224C201.597 32.76 201.784 32.5733 201.784 32.2V31.85C201.784 31.71 201.854 31.64 201.994 31.64H202.624C202.764 31.64 202.834 31.71 202.834 31.85V32.2C202.834 32.6947 202.698 33.0773 202.428 33.348C202.157 33.6093 201.756 33.74 201.224 33.74H200.454ZM203.674 34.86C203.814 34.86 203.884 34.93 203.884 35.07V41.79C203.884 41.93 203.814 42 203.674 42H202.904C202.764 42 202.694 41.93 202.694 41.79V36.68H202.624L199.264 41.79C199.217 41.8647 199.17 41.9207 199.124 41.958C199.077 41.986 198.984 42 198.844 42H198.004C197.864 42 197.794 41.93 197.794 41.79V35.07C197.794 34.93 197.864 34.86 198.004 34.86H198.774C198.914 34.86 198.984 34.93 198.984 35.07V40.18H199.054L202.414 35.07C202.46 34.9953 202.507 34.944 202.554 34.916C202.6 34.8787 202.694 34.86 202.834 34.86H203.674Z" fill="#7E7E82"/>
</svg>
